{
.appVersion = "3151";
.formatVersion = 3;
axes = (
{
name = Weight;
tag = wght;
}
);
customParameters = (
{
name = "Enforce Compatibility Check";
value = 1;
}
);
date = "2022-11-25 23:19:09 +0000";
familyName = Madurai;
featurePrefixes = (
{
code = "languagesystem DFLT dflt;

languagesystem tml2 dflt;";
name = Languagesystems;
},
{
code = "@list1 = [nga-tamil va-tamil];
@list1Sub = [nga-tamil.001 va-tamil];

@list2 = [iMatra-tamil];
@list2Sub = [iMatra-tamil.001];

lookup subSt {
	sub @list1 by @list1Sub;
	sub @list2 by @list2Sub;
} subSt;
";
name = lkup;
}
);
features = (
{
automatic = 1;
code = "feature akhn;
feature cjct;
feature psts;
";
tag = aalt;
},
{
code = "lookupflag 0;
script tml2;
lookup Akhn_tamil {
	sub ka-tamil pulli-tamil ssa-tamil by k_ssa-tamil;
	sub sha-tamil pulli-tamil ra-tamil iiMatra-tamil by sh_ra_iiMatra-tamil;
	sub sa-tamil pulli-tamil ra-tamil iiMatra-tamil by sh_ra_iiMatra-tamil;
} Akhn_tamil;
";
tag = akhn;
},
{
code = "script tml2;
lookup cjct_tamil {
	sub ka-tamil pulli-tamil ssa-tamil by k_ssa-tamil;
} cjct_tamil;
";
tag = cjct;
},
{
code = "script tml2;
sub [nga-tamil pa-tamil ya-tamil] uMatra-tamil' by uMatra-tamil.alt1;
sub [nya-tamil nna-tamil ta-tamil na-tamil nnna-tamil rra-tamil la-tamil]' uuMatra-tamil by [nya_uMatra-tamil nna_uMatra-tamil ta_uMatra-tamil na_uMatra-tamil nnna_uMatra-tamil rra_uMatra-tamil la_uMatra-tamil];
sub [nya_uMatra-tamil nna_uMatra-tamil ta_uMatra-tamil na_uMatra-tamil nnna_uMatra-tamil rra_uMatra-tamil la_uMatra-tamil] uuMatra-tamil' by uuMatra-tamil.alt1;

#uMatra ligatures
sub va-tamil uMatra-tamil by va_uMatra-tamil;
sub ka-tamil uMatra-tamil by ka_uMatra-tamil;
sub nga-tamil uMatra-tamil.alt1 by nga_uMatra-tamil;
sub nya-tamil uMatra-tamil by nya_uMatra-tamil;
sub na-tamil uMatra-tamil by na_uMatra-tamil;
sub ca-tamil uMatra-tamil by ca_uMatra-tamil;
sub pa-tamil uMatra-tamil.alt1 by pa_uMatra-tamil;
sub ya-tamil uMatra-tamil.alt1 by ya_uMatra-tamil;

glyphs = (
{
glyphname = "ka_uMatra-tamil";
layers = (
{
anchors = (
{
name = imatra;
pos = (500,600);
},
{
name = top;
pos = (305,600);
}
);
layerId = "E2153A70-07D4-4910-8E8C-7A6B98FF4FD7";
shapes = (
{
closed = 1;
nodes = (
(453,-160,o),
(540,-73,o),
(540,74,cs),
(540,191,ls),
(540,275,o),
(541,364,o),
(380,371,c),
(380,580,l),
(470,580,l),
(470,620,l),
(220,620,l),
(220,365,l),
(175,350,o),
(140,305,o),
(140,248,cs),
(140,102,ls),
(140,32,o),
(191,-20,o),
(260,-20,cs),
(329,-20,o),
(380,32,o),
(380,102,cs),
(380,331,l),
(501,326,o),
(500,274,o),
(500,191,cs),
(500,74,ls),
(500,-54,o),
(434,-120,o),
(285,-120,cs),
(136,-120,o),
(70,-54,o),
(70,74,cs),
(70,566,ls),
(70,694,o),
(136,760,o),
(285,760,cs),
(434,760,o),
(500,696,o),
(500,570,c),
(540,570,l),
(540,715,o),
(453,800,o),
(285,800,cs),
(117,800,o),
(30,713,o),
(30,566,cs),
(30,74,ls),
(30,-73,o),
(117,-160,o),
(285,-160,cs)
);
},
{
closed = 1;
nodes = (
(210,20,o),
(180,51,o),
(180,102,cs),
(180,248,ls),
(180,299,o),
(211,330,o),
(252,330,cs),
(340,330,l),
(340,102,ls),
(340,51,o),
(310,20,o),
(260,20,cs)
);
},
{
closed = 1;
nodes = (
(260,580,l),
(340,580,l),
(340,370,l),
(260,370,l)
);
},
{
closed = 1;
nodes = (
(540,530,l),
(540,572,l),
(500,572,l),
(500,530,l)
);
}
);
width = 570;
}
);
metricLeft = "ca-tamil";
metricRight = "ca-tamil";
},
{
glyphname = "ka_uuMatra-tamil";
lastChange = "2023-04-29 09:46:56 +0000";
layers = (
{
anchors = (
{
name = imatra;
pos = (680,600);
},
{
name = top;
pos = (375,600);
}
);
layerId = "E2153A70-07D4-4910-8E8C-7A6B98FF4FD7";
shapes = (
{
closed = 1;
nodes = (
(219,-20,o),
(270,32,o),
(270,102,cs),
(270,330,l),
(313,330,l),
(301,313,o),
(294,292,o),
(294,268,cs),
(294,242,ls),
(294,185,o),
(334,140,o),
(389,140,cs),
(445,140,o),
(484,185,o),
(484,242,cs),
(484,268,ls),
(484,292,o),
(477,313,o),
(465,330,c),
(478,330,ls),
(541,330,o),
(580,290,o),
(580,227,cs),
(580,222,ls),
(580,159,o),
(541,120,o),
(478,120,cs),
(380,120,ls),
(340,120,o),
(309,90,o),
(309,50,cs),
(309,10,o),
(340,-20,o),
(380,-20,cs),
(720,-20,l),
(720,20,l),
(380,20,ls),
(359,20,o),
(349,30,o),
(349,50,cs),
(349,70,o),
(359,80,o),
(380,80,cs),
(478,80,ls),
(560,80,o),
(620,140,o),
(620,222,cs),
(620,227,ls),
(620,309,o),
(560,370,o),
(478,370,cs),
(270,370,l),
(270,580,l),
(380,580,l),
(380,620,l),
(110,620,l),
(110,365,l),
(65,350,o),
(30,305,o),
(30,248,cs),
(30,102,ls),
(30,32,o),
(81,-20,o),
(150,-20,cs)
);
},
{
closed = 1;
nodes = (
(100,20,o),
(70,51,o),
(70,102,cs),
(70,248,ls),
(70,299,o),
(101,330,o),
(142,330,cs),
(230,330,l),
(230,102,ls),
(230,51,o),
(200,20,o),
(150,20,cs)
);
},
{
closed = 1;
nodes = (
(355,180,o),
(334,203,o),
(334,242,cs),
(334,268,ls),
(334,307,o),
(355,330,o),
(389,330,cs),
(423,330,o),
(444,307,o),
(444,268,cs),
(444,242,ls),
(444,202,o),
(424,180,o),
(389,180,cs)
);
},
{
closed = 1;
nodes = (
(150,580,l),
(230,580,l),
(230,370,l),
(150,370,l)
);
}
);
width = 750;
}
);
metricLeft = "ca-tamil";
metricRight = "ca-tamil";
},
{
glyphname = "nga_uMatra-tamil";
layers = (
{
anchors = (
{
name = imatra;
pos = (230,600);
},
{
name = top;
pos = (280,600);
}
);
layerId = "E2153A70-07D4-4910-8E8C-7A6B98FF4FD7";
shapes = (
{
closed = 1;
nodes = (
(490,-300,l),
(530,-300,l),
(530,0,l),
(490,0,l)
);
},
{
closed = 1;
nodes = (
(259,-22,l),
(530,-20,l),
(530,470,l),
(530,470,o),
(490,470,o),
(490,470,cs),
(490,20,l),
(369,19,l),
(415,46,o),
(430,88,o),
(430,185,cs),
(430,310,o),
(397,365,o),
(321,365,cs),
(284,365,o),
(255,346,o),
(250,318,c),
(250,580,l),
(380,580,l),
(380,620,l),
(30,620,l),
(30,-20,l),
(30,-20,o),
(70,-20,o),
(70,-20,cs),
(70,580,l),
(210,580,l),
(210,130,ls),
(210,130,o),
(250,130,o),
(250,130,cs),
(250,260,ls),
(250,302,o),
(272,325,o),
(311,325,cs),
(370,325,o),
(390,290,o),
(390,185,cs),
(390,69,o),
(368,20,o),
(252,18,c),
(252,-22,l)
);
}
);
width = 560;
}
);
metricLeft = "ca-tamil";
metricRight = "ca-tamil";
},
{
glyphname = "nga_uuMatra-tamil";
layers = (
{
anchors = (
{
name = imatra;
pos = (570,600);
},
{
name = top;
pos = (320,600);
}
);
layerId = "E2153A70-07D4-4910-8E8C-7A6B98FF4FD7";
shapes = (
{
closed = 1;
nodes = (
(518,-230,ls),
(600,-230,o),
(660,-170,o),
(660,-88,cs),
(660,-32,ls),
(660,26,o),
(612,69,o),
(550,69,cs),
(543,69,o),
(520,69,o),
(520,69,c),
(520,29,l),
(520,29,o),
(542,29,o),
(548,29,cs),
(594,31,o),
(620,6,o),
(620,-32,cs),
(620,-88,ls),
(620,-151,o),
(581,-190,o),
(518,-190,cs),
(425,-190,l),
(425,-230,l)
);
},
{
closed = 1;
nodes = (
(463,-230,o),
(495,-198,o),
(495,-160,cs),
(495,-122,o),
(463,-90,o),
(425,-90,cs),
(387,-90,o),
(355,-122,o),
(355,-160,cs),
(355,-198,o),
(387,-230,o),
(425,-230,cs)
);
},
{
closed = 1;
nodes = (
(406,-190,o),
(395,-179,o),
(395,-160,cs),
(395,-141,o),
(406,-130,o),
(425,-130,cs),
(444,-130,o),
(455,-141,o),
(455,-160,cs),
(455,-179,o),
(444,-190,o),
(425,-190,cs)
);
},
{
closed = 1;
nodes = (
(490,-70,l),
(530,-70,l),
(530,-20,l),
(490,-20,l)
);
},
{
closed = 1;
nodes = (
(259,-22,l),
(530,-20,l),
(530,470,l),
(530,470,o),
(490,470,o),
(490,470,cs),
(490,20,l),
(369,19,l),
(415,46,o),
(430,88,o),
(430,185,cs),
(430,310,o),
(397,365,o),
(321,365,cs),
(284,365,o),
(255,346,o),
(250,318,c),
(250,580,l),
(380,580,l),
(380,620,l),
(30,620,l),
(30,-20,l),
(30,-20,o),
(70,-20,o),
(70,-20,cs),
(70,580,l),
(210,580,l),
(210,130,ls),
(210,130,o),
(250,130,o),
(250,130,cs),
(250,260,ls),
(250,302,o),
(272,325,o),
(311,325,cs),
(370,325,o),
(390,290,o),
(390,185,cs),
(390,69,o),
(368,20,o),
(252,18,c),
(252,-22,l)
);
}
);
width = 690;
}
);
metricLeft = "ca-tamil";
metricRight = "ca-tamil";
},
{
glyphname = "ca_uMatra-tamil";
lastChange = "2023-04-29 09:46:56 +0000";
layers = (
{
anchors = (
{
name = imatra;
pos = (415,600);
},
{
name = top;
pos = (243,600);
}
);
layerId = "E2153A70-07D4-4910-8E8C-7A6B98FF4FD7";
shapes = (
{
closed = 1;
nodes = (
(380,-20,l),
(380,330,l),
(415,330,l),
(415,370,l),
(340,370,l),
(340,-20,l)
);
},
{
closed = 1;
nodes = (
(219,-20,o),
(270,32,o),
(270,102,cs),
(270,330,l),
(380,330,l),
(380,370,l),
(270,370,l),
(270,580,l),
(380,580,l),
(380,620,l),
(110,620,l),
(110,365,l),
(65,350,o),
(30,305,o),
(30,248,cs),
(30,102,ls),
(30,32,o),
(81,-20,o),
(150,-20,cs)
);
},
{
closed = 1;
nodes = (
(100,20,o),
(70,51,o),
(70,102,cs),
(70,248,ls),
(70,299,o),
(101,330,o),
(142,330,cs),
(230,330,l),
(230,102,ls),
(230,51,o),
(200,20,o),
(150,20,cs)
);
},
{
closed = 1;
nodes = (
(150,580,l),
(230,580,l),
(230,370,l),
(150,370,l)
);
}
);
width = 445;
}
);
metricLeft = "ca-tamil";
metricRight = "ca-tamil";
},
{
glyphname = "ca_uuMatra-tamil";
lastChange = "2023-04-29 09:46:56 +0000";
layers = (
{
anchors = (
{
name = imatra;
pos = (420,600);
},
{
name = top;
pos = (245,600);
}
);
layerId = "E2153A70-07D4-4910-8E8C-7A6B98FF4FD7";
shapes = (
{
closed = 1;
nodes = (
(380,-20,l),
(380,330,l),
(415,330,l),
(415,370,l),
(340,370,l),
(340,-20,l)
);
},
{
closed = 1;
nodes = (
(219,-20,o),
(270,32,o),
(270,102,cs),
(270,330,l),
(380,330,l),
(380,370,l),
(270,370,l),
(270,580,l),
(380,580,l),
(380,620,l),
(110,620,l),
(110,365,l),
(65,350,o),
(30,305,o),
(30,248,cs),
(30,102,ls),
(30,32,o),
(81,-20,o),
(150,-20,cs)
);
},
{
closed = 1;
nodes = (
(100,20,o),
(70,51,o),
(70,102,cs),
(70,248,ls),
(70,299,o),
(101,330,o),
(142,330,cs),
(230,330,l),
(230,102,ls),
(230,51,o),
(200,20,o),
(150,20,cs)
);
},
{
closed = 1;
nodes = (
(150,580,l),
(230,580,l),
(230,370,l),
(150,370,l)
);
},
{
closed = 1;
nodes = (
(353,-230,ls),
(435,-230,o),
(495,-170,o),
(495,-88,cs),
(495,-32,ls),
(495,26,o),
(455,69,o),
(381,69,cs),
(381,69,o),
(355,69,o),
(355,69,c),
(355,29,l),
(355,29,o),
(381,29,o),
(381,29,cs),
(429,29,o),
(455,6,o),
(455,-32,cs),
(455,-88,ls),
(455,-151,o),
(416,-190,o),
(353,-190,cs),
(260,-190,l),
(260,-230,l)
);
},
{
closed = 1;
nodes = (
(298,-230,o),
(330,-198,o),
(330,-160,cs),
(330,-122,o),
(298,-90,o),
(260,-90,cs),
(222,-90,o),
(190,-122,o),
(190,-160,cs),
(190,-198,o),
(222,-230,o),
(260,-230,cs)
);
},
{
closed = 1;
nodes = (
(241,-190,o),
(230,-179,o),
(230,-160,cs),
(230,-141,o),
(241,-130,o),
(260,-130,cs),
(279,-130,o),
(290,-141,o),
(290,-160,cs),
(290,-179,o),
(279,-190,o),
(260,-190,cs)
);
}
);
width = 525;
}
);
metricLeft = "ca-tamil";
metricRight = "ca-tamil";
},
{
glyphname = "nya_uMatra-tamil";
layers = (
{
anchors = (
{
name = imatra;
pos = (630,600);
},
{
name = top;
pos = (350,600);
}
);
layerId = "E2153A70-07D4-4910-8E8C-7A6B98FF4FD7";
shapes = (
{
closed = 1;
nodes = (
(390,580,l),
(510,580,l),
(510,620,l),
(254,620,ls),
(125,620,o),
(30,525,o),
(30,396,cs),
(30,148,ls),
(30,82,o),
(77,30,o),
(140,30,cs),
(205,30,o),
(250,82,o),
(250,148,cs),
(250,192,ls),
(250,258,o),
(203,310,o),
(140,310,cs),
(113,310,o),
(89,300,o),
(70,284,c),
(70,396,ls),
(70,506,o),
(144,580,o),
(254,580,cs),
(350,580,l),
(350,30,l),
(390,30,l)
);
},
{
closed = 1;
nodes = (
(226,-281,o),
(160,-215,o),
(160,-117,cs),
(160,-80,l),
(530,-80,l),
(530,-117,ls),
(530,-215,o),
(464,-281,o),
(366,-281,cs),
(324,-281,ls)
);
},
{
closed = 1;
nodes = (
(97,70,o),
(70,100,o),
(70,148,cs),
(70,192,ls),
(70,240,o),
(97,270,o),
(140,270,cs),
(183,270,o),
(210,240,o),
(210,192,cs),
(210,148,ls),
(210,100,o),
(184,70,o),
(140,70,cs)
);
},
{
closed = 1;
nodes = (
(570,186,l),
(570,310,o),
(537,365,o),
(461,365,cs),
(424,365,o),
(395,346,o),
(390,318,c),
(390,260,l),
(390,302,o),
(412,325,o),
(451,325,cs),
(510,325,o),
(530,288,o),
(530,186,c)
);
},
{
closed = 1;
nodes = (
(530,186,l),
(530,-40,l),
(120,-40,l),
(120,-117,l),
(120,-234,o),
(207,-321,o),
(324,-321,cs),
(366,-321,ls),
(483,-321,o),
(570,-234,o),
(570,-117,cs),
(570,-80,l),
(670,-80,l),
(670,470,l),
(630,470,l),
(630,-40,l),
(570,-40,l),
(570,186,l)
);
}
);
width = 700;
}
);
metricLeft = "ca-tamil";
metricRight = "ca-tamil";
},
{
glyphname = "nya_uuMatra-tamil";
layers = (
{
anchors = (
{
name = imatra;
pos = (630,600);
},
{
name = top;
pos = (350,600);
}
);
layerId = "E2153A70-07D4-4910-8E8C-7A6B98FF4FD7";
shapes = (
{
closed = 1;
nodes = (
(390,580,l),
(510,580,l),
(510,620,l),
(254,620,ls),
(125,620,o),
(30,525,o),
(30,396,cs),
(30,148,ls),
(30,82,o),
(77,30,o),
(140,30,cs),
(205,30,o),
(250,82,o),
(250,148,cs),
(250,192,ls),
(250,258,o),
(203,310,o),
(140,310,cs),
(113,310,o),
(89,300,o),
(70,284,c),
(70,396,ls),
(70,506,o),
(144,580,o),
(254,580,cs),
(350,580,l),
(350,30,l),
(390,30,l)
);
},
{
closed = 1;
nodes = (
(226,-281,o),
(160,-215,o),
(160,-117,cs),
(160,-80,l),
(530,-80,l),
(530,-117,ls),
(530,-215,o),
(464,-281,o),
(366,-281,cs),
(324,-281,ls)
);
},
{
closed = 1;
nodes = (
(97,70,o),
(70,100,o),
(70,148,cs),
(70,192,ls),
(70,240,o),
(97,270,o),
(140,270,cs),
(183,270,o),
(210,240,o),
(210,192,cs),
(210,148,ls),
(210,100,o),
(184,70,o),
(140,70,cs)
);
},
{
closed = 1;
nodes = (
(670,-20,l),
(670,580,l),
(790,580,l),
(790,-20,l),
(830,-20,l),
(830,580,l),
(900,580,l),
(900,620,l),
(630,620,l),
(630,-20,l)
);
},
{
closed = 1;
nodes = (
(570,186,l),
(570,310,o),
(537,365,o),
(461,365,cs),
(424,365,o),
(395,346,o),
(390,318,c),
(390,260,l),
(390,302,o),
(412,325,o),
(451,325,cs),
(510,325,o),
(530,288,o),
(530,186,c)
);
},
{
closed = 1;
nodes = (
(530,186,l),
(530,-40,l),
(120,-40,l),
(120,-117,l),
(120,-234,o),
(207,-321,o),
(324,-321,cs),
(366,-321,ls),
(483,-321,o),
(570,-234,o),
(570,-117,cs),
(570,-80,l),
(670,-80,l),
(670,470,l),
(630,470,l),
(630,-40,l),
(570,-40,l),
(570,186,l)
);
}
);
width = 930;
}
);
metricLeft = "ca-tamil";
metricRight = "ca-tamil";
},
{
glyphname = "tta_iMatra-tamil";
layers = (
{
anchors = (
{
name = imatra;
pos = (330,600);
},
{
name = top;
pos = (200,600);
}
);
layerId = "E2153A70-07D4-4910-8E8C-7A6B98FF4FD7";
shapes = (
{
closed = 1;
nodes = (
(310,-300,l),
(310,-20,l),
(370,-20,l),
(370,20,l),
(310,20,l),
(310,198,ls),
(310,257,o),
(267,300,o),
(210,300,cs),
(153,300,o),
(110,257,o),
(110,198,cs),
(110,82,ls),
(110,58,o),
(120,28,o),
(149,20,c),
(70,20,l),
(70,620,l),
(30,620,l),
(30,-20,l),
(270,-20,l),
(270,-300,l)
);
},
{
closed = 1;
nodes = (
(172,20,o),
(150,42,o),
(150,82,cs),
(150,198,ls),
(150,238,o),
(172,260,o),
(210,260,cs),
(248,260,o),
(270,238,o),
(270,198,cs),
(270,20,l),
(204,20,ls)
);
}
);
width = 400;
}
);
metricLeft = "ca-tamil";
metricRight = "ca-tamil";
},
{
glyphname = "tta_iiMatra-tamil";
layers = (
{
anchors = (
{
name = imatra;
pos = (330,600);
},
{
name = top;
pos = (200,600);
}
);
layerId = "E2153A70-07D4-4910-8E8C-7A6B98FF4FD7";
shapes = (
{
closed = 1;
nodes = (
(370,-20,l),
(370,20,l),
(240,20,ls),
(197,20,o),
(171,50,o),
(171,102,cs),
(171,198,l),
(186,187,o),
(205,180,o),
(226,180,cs),
(282,180,o),
(321,225,o),
(321,282,cs),
(321,318,ls),
(321,375,o),
(280,420,o),
(226,420,cs),
(172,420,o),
(131,375,o),
(131,318,cs),
(131,102,ls),
(131,62,o),
(138,27,o),
(178,20,c),
(70,20,l),
(70,620,l),
(30,620,l),
(30,-20,l)
);
},
{
closed = 1;
nodes = (
(192,220,o),
(171,243,o),
(171,282,cs),
(171,318,ls),
(171,357,o),
(192,380,o),
(226,380,cs),
(260,380,o),
(281,357,o),
(281,318,cs),
(281,282,ls),
(281,243,o),
(261,220,o),
(226,220,cs)
);
}
);
width = 400;
}
);
metricLeft = "ca-tamil";
metricRight = "ca-tamil";
},
{
glyphname = "tta_uMatra-tamil";
layers = (
{
anchors = (
{
name = imatra;
pos = (420,600);
},
{
name = top;
pos = (260,600);
}
);
layerId = "E2153A70-07D4-4910-8E8C-7A6B98FF4FD7";
shapes = (
{
closed = 1;
nodes = (
(416,-160,o),
(490,-46,o),
(490,73,cs),
(490,204,ls),
(490,292,o),
(446,366,o),
(355,366,cs),
(331,366,o),
(299,360,o),
(280,336,c),
(280,600,l),
(240,600,l),
(240,146,l),
(280,146,l),
(280,274,ls),
(280,299,o),
(313,326,o),
(355,326,cs),
(427,326,o),
(450,273,o),
(450,204,cs),
(450,73,ls),
(450,-27,o),
(397,-120,o),
(260,-120,cs),
(123,-120,o),
(70,-27,o),
(70,73,cs),
(70,577,ls),
(70,687,o),
(123,780,o),
(260,780,cs),
(397,780,o),
(450,687,o),
(450,577,cs),
(450,530,l),
(490,530,l),
(490,577,ls),
(490,706,o),
(416,820,o),
(260,820,cs),
(104,820,o),
(30,706,o),
(30,577,cs),
(30,73,ls),
(30,-46,o),
(104,-160,o),
(260,-160,cs)
);
}
);
width = 520;
}
);
metricLeft = "ca-tamil";
metricRight = "ca-tamil";
},
{
glyphname = "tta_uuMatra-tamil";
layers = (
{
anchors = (
{
name = imatra;
pos = (390,600);
},
{
name = top;
pos = (230,600);
}
);
layerId = "E2153A70-07D4-4910-8E8C-7A6B98FF4FD7";
shapes = (
{
closed = 1;
nodes = (
(458,460,o),
(490,492,o),
(490,530,cs),
(490,568,o),
(458,600,o),
(420,600,cs),
(382,600,o),
(350,568,o),
(350,530,cs),
(350,492,o),
(382,460,o),
(420,460,cs)
);
},
{
closed = 1;
nodes = (
(401,500,o),
(390,511,o),
(390,530,cs),
(390,549,o),
(401,560,o),
(420,560,cs),
(439,560,o),
(450,549,o),
(450,530,cs),
(450,511,o),
(439,500,o),
(420,500,cs)
);
},
{
closed = 1;
nodes = (
(416,-160,o),
(490,-46,o),
(490,73,cs),
(490,204,ls),
(490,292,o),
(446,366,o),
(355,366,cs),
(331,366,o),
(299,360,o),
(280,336,c),
(280,600,l),
(240,600,l),
(240,146,l),
(280,146,l),
(280,274,ls),
(280,299,o),
(313,326,o),
(355,326,cs),
(427,326,o),
(450,273,o),
(450,204,cs),
(450,73,ls),
(450,-27,o),
(397,-120,o),
(260,-120,cs),
(123,-120,o),
(70,-27,o),
(70,73,cs),
(70,577,ls),
(70,687,o),
(123,780,o),
(260,780,cs),
(397,780,o),
(450,687,o),
(450,577,cs),
(450,530,l),
(490,530,l),
(490,577,ls),
(490,706,o),
(416,820,o),
(260,820,cs),
(104,820,o),
(30,706,o),
(30,577,cs),
(30,73,ls),
(30,-46,o),
(104,-160,o),
(260,-160,cs)
);
}
);
width = 520;
}
);
metricLeft = "ca-tamil";
metricRight = "ca-tamil";
},
{
glyphname = "nna_uMatra-tamil";
layers = (
{
anchors = (
{
name = imatra;
pos = (1017,600);
},
{
name = top;
pos = (544,600);
}
);
layerId = "E2153A70-07D4-4910-8E8C-7A6B98FF4FD7";
shapes = (
{
closed = 1;
nodes = (
(689,-321,ls),
(806,-321,o),
(893,-234,o),
(893,-117,cs),
(893,-80,l),
(1003,-80,l),
(1003,470,l),
(963,470,l),
(963,-40,l),
(893,-40,l),
(893,458,ls),
(893,560,o),
(833,620,o),
(731,620,cs),
(234,620,ls),
(117,620,o),
(30,533,o),
(30,416,cs),
(30,122,ls),
(30,43,o),
(77,-15,o),
(153,-20,cs),
(155,-20,o),
(158,-20,o),
(160,-20,cs),
(162,-20,ls),
(216,-20,o),
(255,26,o),
(255,82,cs),
(255,118,ls),
(255,175,o),
(214,220,o),
(160,220,cs),
(106,220,o),
(75,175,o),
(75,118,cs),
(75,86,l),
(72,97,o),
(70,109,o),
(70,122,cs),
(70,416,ls),
(70,514,o),
(136,580,o),
(234,580,cs),
(303,580,l),
(288,561,o),
(279,538,o),
(279,511,cs),
(279,89,ls),
(279,27,o),
(325,-20,o),
(386,-20,cs),
(447,-20,o),
(494,27,o),
(494,89,cs),
(494,511,ls),
(494,538,o),
(486,561,o),
(471,580,c),
(542,580,l),
(527,561,o),
(518,538,o),
(518,511,cs),
(518,89,ls),
(518,27,o),
(564,-20,o),
(625,-20,cs),
(686,-20,o),
(733,27,o),
(733,89,cs),
(733,511,ls),
(733,538,o),
(725,561,o),
(710,580,c),
(731,580,ls),
(814,580,o),
(853,541,o),
(853,458,cs),
(853,-40,l),
(430,-40,l),
(430,-117,l),
(430,-234,o),
(517,-321,o),
(634,-321,cs)
);
},
{
closed = 1;
nodes = (
(124,20,o),
(105,45,o),
(105,82,cs),
(105,118,ls),
(105,157,o),
(126,180,o),
(160,180,cs),
(194,180,o),
(215,157,o),
(215,118,cs),
(215,82,ls),
(215,43,o),
(195,20,o),
(161,20,cs),
(155,20,ls)
);
},
{
closed = 1;
nodes = (
(536,-281,o),
(470,-215,o),
(470,-117,cs),
(470,-80,l),
(853,-80,l),
(853,-117,ls),
(853,-215,o),
(787,-281,o),
(689,-281,cs),
(634,-281,ls)
);
},
{
closed = 1;
nodes = (
(344,20,o),
(319,46,o),
(319,89,cs),
(319,511,ls),
(319,554,o),
(345,580,o),
(388,580,cs),
(429,580,o),
(454,554,o),
(454,511,cs),
(454,89,ls),
(454,46,o),
(428,20,o),
(386,20,cs)
);
},
{
closed = 1;
nodes = (
(583,20,o),
(558,46,o),
(558,89,cs),
(558,511,ls),
(558,554,o),
(584,580,o),
(627,580,cs),
(668,580,o),
(693,554,o),
(693,511,cs),
(693,89,ls),
(693,46,o),
(667,20,o),
(625,20,cs)
);
}
);
width = 1033;
}
);
metricLeft = "ca-tamil";
metricRight = "ca-tamil";
},
{
glyphname = "nna_uuMatra-tamil";
layers = (
{
anchors = (
{
name = imatra;
pos = (1014,600);
},
{
name = top;
pos = (541,600);
}
);
layerId = "E2153A70-07D4-4910-8E8C-7A6B98FF4FD7";
shapes = (
{
closed = 1;
nodes = (
(689,-321,ls),
(806,-321,o),
(893,-234,o),
(893,-117,cs),
(893,-80,l),
(1003,-80,l),
(1003,470,l),
(963,470,l),
(963,-40,l),
(893,-40,l),
(893,458,ls),
(893,560,o),
(833,620,o),
(731,620,cs),
(234,620,ls),
(117,620,o),
(30,533,o),
(30,416,cs),
(30,122,ls),
(30,43,o),
(77,-15,o),
(153,-20,cs),
(155,-20,o),
(158,-20,o),
(160,-20,cs),
(162,-20,ls),
(216,-20,o),
(255,26,o),
(255,82,cs),
(255,118,ls),
(255,175,o),
(214,220,o),
(160,220,cs),
(106,220,o),
(75,175,o),
(75,118,cs),
(75,86,l),
(72,97,o),
(70,109,o),
(70,122,cs),
(70,416,ls),
(70,514,o),
(136,580,o),
(234,580,cs),
(303,580,l),
(288,561,o),
(279,538,o),
(279,511,cs),
(279,89,ls),
(279,27,o),
(325,-20,o),
(386,-20,cs),
(447,-20,o),
(494,27,o),
(494,89,cs),
(494,511,ls),
(494,538,o),
(486,561,o),
(471,580,c),
(542,580,l),
(527,561,o),
(518,538,o),
(518,511,cs),
(518,89,ls),
(518,27,o),
(564,-20,o),
(625,-20,cs),
(686,-20,o),
(733,27,o),
(733,89,cs),
(733,511,ls),
(733,538,o),
(725,561,o),
(710,580,c),
(731,580,ls),
(814,580,o),
(853,541,o),
(853,458,cs),
(853,-40,l),
(430,-40,l),
(430,-117,l),
(430,-234,o),
(517,-321,o),
(634,-321,cs)
);
},
{
closed = 1;
nodes = (
(124,20,o),
(105,45,o),
(105,82,cs),
(105,118,ls),
(105,157,o),
(126,180,o),
(160,180,cs),
(194,180,o),
(215,157,o),
(215,118,cs),
(215,82,ls),
(215,43,o),
(195,20,o),
(161,20,cs),
(155,20,ls)
);
},
{
closed = 1;
nodes = (
(536,-281,o),
(470,-215,o),
(470,-117,cs),
(470,-80,l),
(853,-80,l),
(853,-117,ls),
(853,-215,o),
(787,-281,o),
(689,-281,cs),
(634,-281,ls)
);
},
{
closed = 1;
nodes = (
(344,20,o),
(319,46,o),
(319,89,cs),
(319,511,ls),
(319,554,o),
(345,580,o),
(388,580,cs),
(429,580,o),
(454,554,o),
(454,511,cs),
(454,89,ls),
(454,46,o),
(428,20,o),
(386,20,cs)
);
},
{
closed = 1;
nodes = (
(583,20,o),
(558,46,o),
(558,89,cs),
(558,511,ls),
(558,554,o),
(584,580,o),
(627,580,cs),
(668,580,o),
(693,554,o),
(693,511,cs),
(693,89,ls),
(693,46,o),
(667,20,o),
(625,20,cs)
);
},
{
closed = 1;
nodes = (
(1003,-20,l),
(1003,580,l),
(1123,580,l),
(1123,-20,l),
(1163,-20,l),
(1163,580,l),
(1233,580,l),
(1233,620,l),
(963,620,l),
(963,-20,l)
);
}
);
width = 1263;
}
);
metricLeft = "ca-tamil";
metricRight = "ca-tamil";
},
{
glyphname = "ta_uMatra-tamil";
layers = (
{
anchors = (
{
name = imatra;
pos = (489,600);
},
{
name = top;
pos = (280,600);
}
);
layerId = "E2153A70-07D4-4910-8E8C-7A6B98FF4FD7";
shapes = (
{
closed = 1;
nodes = (
(231,-321,ls),
(345,-321,o),
(429,-237,o),
(429,-123,cs),
(429,-80,l),
(529,-80,l),
(529,462,l),
(489,462,l),
(489,-40,l),
(429,-40,l),
(429,0,l),
(389,0,l),
(389,-40,l),
(30,-40,l),
(30,-123,l),
(30,-237,o),
(114,-321,o),
(228,-321,cs)
);
},
{
closed = 1;
nodes = (
(133,-281,o),
(70,-218,o),
(70,-123,cs),
(70,-80,l),
(389,-80,l),
(389,-123,ls),
(389,-218,o),
(326,-281,o),
(231,-281,cs),
(228,-281,ls)
);
},
{
closed = 1;
nodes = (
(100,20,o),
(70,51,o),
(70,102,cs),
(70,248,ls),
(70,299,o),
(101,330,o),
(142,330,cs),
(230,330,l),
(230,102,ls),
(230,51,o),
(200,20,o),
(150,20,cs)
);
},
{
closed = 1;
nodes = (
(219,-20,o),
(270,32,o),
(270,102,cs),
(270,330,l),
(356,330,o),
(389,274,o),
(389,145,cs),
(389,0,ls),
(389,0,o),
(429,0,o),
(429,0,cs),
(429,145,ls),
(429,288,o),
(381,370,o),
(270,370,c),
(270,580,l),
(380,580,l),
(380,620,l),
(110,620,l),
(110,365,l),
(65,350,o),
(30,305,o),
(30,248,cs),
(30,102,ls),
(30,32,o),
(81,-20,o),
(150,-20,cs)
);
},
{
closed = 1;
nodes = (
(150,580,l),
(230,580,l),
(230,370,l),
(150,370,l)
);
}
);
width = 559;
}
);
metricLeft = "ca-tamil";
metricRight = "ca-tamil";
},
{
glyphname = "ta_uuMatra-tamil";
layers = (
{
anchors = (
{
name = imatra;
pos = (489,600);
},
{
name = top;
pos = (280,600);
}
);
layerId = "E2153A70-07D4-4910-8E8C-7A6B98FF4FD7";
shapes = (
{
closed = 1;
nodes = (
(231,-321,ls),
(345,-321,o),
(429,-237,o),
(429,-123,cs),
(429,-80,l),
(529,-80,l),
(529,462,l),
(489,462,l),
(489,-40,l),
(429,-40,l),
(429,0,l),
(389,0,l),
(389,-40,l),
(30,-40,l),
(30,-123,l),
(30,-237,o),
(114,-321,o),
(228,-321,cs)
);
},
{
closed = 1;
nodes = (
(133,-281,o),
(70,-218,o),
(70,-123,cs),
(70,-80,l),
(389,-80,l),
(389,-123,ls),
(389,-218,o),
(326,-281,o),
(231,-281,cs),
(228,-281,ls)
);
},
{
closed = 1;
nodes = (
(100,20,o),
(70,51,o),
(70,102,cs),
(70,248,ls),
(70,299,o),
(101,330,o),
(142,330,cs),
(230,330,l),
(230,102,ls),
(230,51,o),
(200,20,o),
(150,20,cs)
);
},
{
closed = 1;
nodes = (
(219,-20,o),
(270,32,o),
(270,102,cs),
(270,330,l),
(356,330,o),
(389,274,o),
(389,145,cs),
(389,0,ls),
(389,0,o),
(429,0,o),
(429,0,cs),
(429,145,ls),
(429,288,o),
(381,370,o),
(270,370,c),
(270,580,l),
(380,580,l),
(380,620,l),
(110,620,l),
(110,365,l),
(65,350,o),
(30,305,o),
(30,248,cs),
(30,102,ls),
(30,32,o),
(81,-20,o),
(150,-20,cs)
);
},
{
closed = 1;
nodes = (
(150,580,l),
(230,580,l),
(230,370,l),
(150,370,l)
);
},
{
closed = 1;
nodes = (
(529,-20,l),
(529,580,l),
(649,580,l),
(649,-20,l),
(689,-20,l),
(689,580,l),
(759,580,l),
(759,620,l),
(489,620,l),
(489,-20,l)
);
}
);
width = 789;
}
);
metricLeft = "ca-tamil";
metricRight = "ca-tamil";
},
{
glyphname = "na_uMatra-tamil";
layers = (
{
anchors = (
{
name = imatra;
pos = (490,600);
},
{
name = top;
pos = (280,600);
}
);
layerId = "E2153A70-07D4-4910-8E8C-7A6B98FF4FD7";
shapes = (
{
closed = 1;
nodes = (
(232,-321,ls),
(346,-321,o),
(430,-237,o),
(430,-123,cs),
(430,-80,l),
(530,-80,l),
(530,462,l),
(490,462,l),
(490,-40,l),
(430,-40,l),
(430,186,l),
(390,186,l),
(390,-40,l),
(31,-40,l),
(31,-123,ls),
(31,-237,o),
(115,-321,o),
(229,-321,cs)
);
},
{
closed = 1;
nodes = (
(134,-281,o),
(71,-218,o),
(71,-123,cs),
(71,-80,l),
(390,-80,l),
(390,-123,ls),
(390,-218,o),
(327,-281,o),
(232,-281,cs),
(229,-281,ls)
);
},
{
closed = 1;
nodes = (
(430,186,l),
(430,310,o),
(397,365,o),
(321,365,cs),
(284,365,o),
(255,346,o),
(250,318,c),
(250,580,l),
(380,580,l),
(380,620,l),
(30,620,l),
(30,-20,l),
(70,-20,l),
(70,580,l),
(210,580,l),
(210,130,l),
(250,130,l),
(250,260,ls),
(250,302,o),
(272,325,o),
(311,325,cs),
(370,325,o),
(390,288,o),
(390,186,c)
);
}
);
width = 560;
}
);
metricLeft = "ca-tamil";
metricRight = "ca-tamil";
},
{
glyphname = "na_uuMatra-tamil";
layers = (
{
anchors = (
{
name = imatra;
pos = (490,600);
},
{
name = top;
pos = (280,600);
}
);
layerId = "E2153A70-07D4-4910-8E8C-7A6B98FF4FD7";
shapes = (
{
closed = 1;
nodes = (
(232,-321,ls),
(346,-321,o),
(430,-237,o),
(430,-123,cs),
(430,-80,l),
(530,-80,l),
(530,462,l),
(490,462,l),
(490,-40,l),
(430,-40,l),
(430,186,l),
(390,186,l),
(390,-40,l),
(31,-40,l),
(31,-123,ls),
(31,-237,o),
(115,-321,o),
(229,-321,cs)
);
},
{
closed = 1;
nodes = (
(134,-281,o),
(71,-218,o),
(71,-123,cs),
(71,-80,l),
(390,-80,l),
(390,-123,ls),
(390,-218,o),
(327,-281,o),
(232,-281,cs),
(229,-281,ls)
);
},
{
closed = 1;
nodes = (
(530,-20,l),
(530,580,l),
(650,580,l),
(650,-20,l),
(690,-20,l),
(690,580,l),
(760,580,l),
(760,620,l),
(490,620,l),
(490,-20,l)
);
},
{
closed = 1;
nodes = (
(430,186,l),
(430,310,o),
(397,365,o),
(321,365,cs),
(284,365,o),
(255,346,o),
(250,318,c),
(250,580,l),
(380,580,l),
(380,620,l),
(30,620,l),
(30,0,l),
(70,0,l),
(70,580,l),
(210,580,l),
(210,130,l),
(250,130,l),
(250,260,ls),
(250,302,o),
(272,325,o),
(311,325,cs),
(370,325,o),
(390,288,o),
(390,186,c)
);
}
);
width = 790;
}
);
metricLeft = "ca-tamil";
metricRight = "ca-tamil";
},
{
glyphname = "nnna_uMatra-tamil";
layers = (
{
anchors = (
{
name = imatra;
pos = (774,600);
},
{
name = top;
pos = (421,600);
}
);
layerId = "E2153A70-07D4-4910-8E8C-7A6B98FF4FD7";
shapes = (
{
closed = 1;
nodes = (
(450,-321,ls),
(567,-321,o),
(654,-234,o),
(654,-117,cs),
(654,-80,l),
(814,-80,l),
(814,490,l),
(774,490,l),
(774,-40,l),
(654,-40,l),
(654,478,ls),
(654,560,o),
(594,620,o),
(512,620,cs),
(234,620,ls),
(117,620,o),
(30,533,o),
(30,416,cs),
(30,122,ls),
(30,43,o),
(87,-15,o),
(153,-20,cs),
(155,-20,o),
(158,-20,o),
(160,-20,cs),
(162,-20,ls),
(217,-20,o),
(255,26,o),
(255,82,cs),
(255,118,ls),
(255,175,o),
(214,220,o),
(160,220,cs),
(106,220,o),
(75,175,o),
(75,118,cs),
(75,86,l),
(72,97,o),
(70,109,o),
(70,122,cs),
(70,416,ls),
(70,514,o),
(136,580,o),
(234,580,cs),
(303,580,l),
(288,561,o),
(279,538,o),
(279,511,cs),
(279,89,ls),
(279,27,o),
(325,-20,o),
(386,-20,cs),
(447,-20,o),
(494,27,o),
(494,89,cs),
(494,511,ls),
(494,538,o),
(486,561,o),
(471,580,c),
(512,580,ls),
(575,580,o),
(614,541,o),
(614,478,cs),
(614,-40,l),
(171,-40,l),
(171,-117,l),
(171,-234,o),
(258,-321,o),
(375,-321,cs)
);
},
{
closed = 1;
nodes = (
(277,-281,o),
(211,-215,o),
(211,-117,cs),
(211,-80,l),
(614,-80,l),
(614,-117,ls),
(614,-215,o),
(548,-281,o),
(450,-281,cs),
(375,-281,ls)
);
},
{
closed = 1;
nodes = (
(124,20,o),
(105,45,o),
(105,82,cs),
(105,118,ls),
(105,157,o),
(126,180,o),
(160,180,cs),
(194,180,o),
(215,157,o),
(215,118,cs),
(215,82,ls),
(215,43,o),
(195,20,o),
(161,20,cs),
(155,20,ls)
);
},
{
closed = 1;
nodes = (
(344,20,o),
(319,46,o),
(319,89,cs),
(319,511,ls),
(319,554,o),
(345,580,o),
(388,580,cs),
(429,580,o),
(454,554,o),
(454,511,cs),
(454,89,ls),
(454,46,o),
(428,20,o),
(386,20,cs)
);
}
);
width = 844;
}
);
metricLeft = "ca-tamil";
metricRight = "ca-tamil";
},
{
glyphname = "nnna_uuMatra-tamil";
layers = (
{
anchors = (
{
name = imatra;
pos = (824,600);
},
{
name = top;
pos = (471,600);
}
);
layerId = "E2153A70-07D4-4910-8E8C-7A6B98FF4FD7";
shapes = (
{
closed = 1;
nodes = (
(814,-20,l),
(814,580,l),
(934,580,l),
(934,-20,l),
(974,-20,l),
(974,580,l),
(1044,580,l),
(1044,620,l),
(774,620,l),
(774,-20,l)
);
},
{
closed = 1;
nodes = (
(450,-321,ls),
(567,-321,o),
(654,-234,o),
(654,-117,cs),
(654,-80,l),
(814,-80,l),
(814,490,l),
(774,490,l),
(774,-40,l),
(654,-40,l),
(654,478,ls),
(654,560,o),
(594,620,o),
(512,620,cs),
(234,620,ls),
(117,620,o),
(30,533,o),
(30,416,cs),
(30,122,ls),
(30,43,o),
(87,-15,o),
(153,-20,cs),
(155,-20,o),
(158,-20,o),
(160,-20,cs),
(162,-20,ls),
(217,-20,o),
(255,26,o),
(255,82,cs),
(255,118,ls),
(255,175,o),
(214,220,o),
(160,220,cs),
(106,220,o),
(75,175,o),
(75,118,cs),
(75,86,l),
(72,97,o),
(70,109,o),
(70,122,cs),
(70,416,ls),
(70,514,o),
(136,580,o),
(234,580,cs),
(303,580,l),
(288,561,o),
(279,538,o),
(279,511,cs),
(279,89,ls),
(279,27,o),
(325,-20,o),
(386,-20,cs),
(447,-20,o),
(494,27,o),
(494,89,cs),
(494,511,ls),
(494,538,o),
(486,561,o),
(471,580,c),
(512,580,ls),
(575,580,o),
(614,541,o),
(614,478,cs),
(614,-40,l),
(171,-40,l),
(171,-117,l),
(171,-234,o),
(258,-321,o),
(375,-321,cs)
);
},
{
closed = 1;
nodes = (
(277,-281,o),
(211,-215,o),
(211,-117,cs),
(211,-80,l),
(614,-80,l),
(614,-117,ls),
(614,-215,o),
(548,-281,o),
(450,-281,cs),
(375,-281,ls)
);
},
{
closed = 1;
nodes = (
(124,20,o),
(105,45,o),
(105,82,cs),
(105,118,ls),
(105,157,o),
(126,180,o),
(160,180,cs),
(194,180,o),
(215,157,o),
(215,118,cs),
(215,82,ls),
(215,43,o),
(195,20,o),
(161,20,cs),
(155,20,ls)
);
},
{
closed = 1;
nodes = (
(344,20,o),
(319,46,o),
(319,89,cs),
(319,511,ls),
(319,554,o),
(345,580,o),
(388,580,cs),
(429,580,o),
(454,554,o),
(454,511,cs),
(454,89,ls),
(454,46,o),
(428,20,o),
(386,20,cs)
);
}
);
width = 1074;
}
);
metricLeft = "ca-tamil";
metricRight = "ca-tamil";
},
{
glyphname = "pa_uMatra-tamil";
layers = (
{
anchors = (
{
name = imatra;
pos = (350,600);
},
{
name = top;
pos = (200,600);
}
);
layerId = "E2153A70-07D4-4910-8E8C-7A6B98FF4FD7";
shapes = (
{
closed = 1;
nodes = (
(370,-300,o),
(370,-300,cs),
(370,620,l),
(330,620,l),
(330,20,l),
(70,20,l),
(70,620,l),
(30,620,l),
(30,-20,l),
(330,-20,l),
(330,-300,ls),
(330,-300,o)
);
}
);
width = 400;
}
);
metricLeft = "ca-tamil";
metricRight = "ca-tamil";
},
{
glyphname = "pa_uuMatra-tamil";
layers = (
{
anchors = (
{
name = imatra;
pos = (409,600);
},
{
name = top;
pos = (239,600);
}
);
layerId = "E2153A70-07D4-4910-8E8C-7A6B98FF4FD7";
shapes = (
{
closed = 1;
nodes = (
(369,-20,l),
(369,620,l),
(329,620,l),
(329,20,l),
(69,20,l),
(69,620,l),
(30,620,l),
(30,173,o),
(30,-20,o),
(30,-20,cs)
);
},
{
closed = 1;
nodes = (
(357,-230,ls),
(439,-230,o),
(499,-170,o),
(499,-88,cs),
(499,-32,ls),
(499,26,o),
(451,69,o),
(389,69,cs),
(382,69,o),
(359,69,o),
(359,69,c),
(359,29,l),
(359,29,o),
(381,29,o),
(387,29,cs),
(433,31,o),
(459,6,o),
(459,-32,cs),
(459,-88,ls),
(459,-151,o),
(420,-190,o),
(357,-190,cs),
(264,-190,l),
(264,-230,l)
);
},
{
closed = 1;
nodes = (
(302,-230,o),
(334,-198,o),
(334,-160,cs),
(334,-122,o),
(302,-90,o),
(264,-90,cs),
(226,-90,o),
(194,-122,o),
(194,-160,cs),
(194,-198,o),
(226,-230,o),
(264,-230,cs)
);
},
{
closed = 1;
nodes = (
(245,-190,o),
(234,-179,o),
(234,-160,cs),
(234,-141,o),
(245,-130,o),
(264,-130,cs),
(283,-130,o),
(294,-141,o),
(294,-160,cs),
(294,-179,o),
(283,-190,o),
(264,-190,cs)
);
},
{
closed = 1;
nodes = (
(329,-70,l),
(369,-70,l),
(369,-20,l),
(329,-20,l)
);
}
);
width = 529;
}
);
metricLeft = "ca-tamil";
metricRight = "ca-tamil";
},
{
glyphname = "ma_uMatra-tamil";
lastChange = "2023-04-29 09:46:56 +0000";
layers = (
{
anchors = (
{
name = imatra;
pos = (480,600);
},
{
name = top;
pos = (275,600);
}
);
layerId = "E2153A70-07D4-4910-8E8C-7A6B98FF4FD7";
shapes = (
{
closed = 1;
nodes = (
(197,-200,ls),
(282,-200,o),
(345,-138,o),
(345,-53,cs),
(345,0,l),
(305,0,l),
(305,-53,ls),
(305,-119,o),
(263,-160,o),
(197,-160,cs),
(177,-160,ls),
(111,-160,o),
(70,-118,o),
(70,-52,cs),
(70,470,l),
(30,470,l),
(30,-52,ls),
(30,-137,o),
(92,-200,o),
(177,-200,cs)
);
},
{
closed = 1;
nodes = (
(411,-20,ls),
(473,-20,o),
(520,27,o),
(520,89,cs),
(520,511,ls),
(520,573,o),
(474,620,o),
(413,620,cs),
(352,620,o),
(305,573,o),
(305,511,cs),
(305,20,l),
(170,20,l),
(170,620,l),
(130,620,l),
(130,-20,l)
);
},
{
closed = 1;
nodes = (
(345,511,ls),
(345,554,o),
(371,580,o),
(413,580,cs),
(454,580,o),
(480,554,o),
(480,511,cs),
(480,89,ls),
(480,46,o),
(454,20,o),
(411,20,cs),
(345,20,l)
);
}
);
width = 550;
}
);
metricLeft = "ca-tamil";
metricRight = "ca-tamil";
},
{
glyphname = "ma_uuMatra-tamil";
layers = (
{
anchors = (
{
name = imatra;
pos = (530,600);
},
{
name = top;
pos = (325,600);
}
);
layerId = "E2153A70-07D4-4910-8E8C-7A6B98FF4FD7";
shapes = (
{
closed = 1;
nodes = (
(247,-200,ls),
(332,-200,o),
(396,-138,o),
(395,-53,cs),
(395,0,l),
(355,0,l),
(355,-53,ls),
(355,-119,o),
(313,-160,o),
(247,-160,cs),
(177,-160,ls),
(111,-160,o),
(70,-118,o),
(70,-52,cs),
(70,470,l),
(30,470,l),
(30,-52,ls),
(30,-137,o),
(92,-200,o),
(177,-200,cs)
);
},
{
closed = 1;
nodes = (
(461,-20,ls),
(523,-20,o),
(570,27,o),
(570,89,cs),
(570,511,ls),
(570,573,o),
(524,620,o),
(463,620,cs),
(402,620,o),
(355,573,o),
(355,511,cs),
(355,20,l),
(220,20,l),
(220,620,l),
(180,620,l),
(180,-20,l)
);
},
{
closed = 1;
nodes = (
(395,511,ls),
(395,554,o),
(421,580,o),
(463,580,cs),
(504,580,o),
(530,554,o),
(530,511,cs),
(530,89,ls),
(530,46,o),
(504,20,o),
(461,20,cs),
(395,20,l)
);
},
{
closed = 1;
nodes = (
(138,400,o),
(170,432,o),
(170,470,cs),
(170,508,o),
(138,540,o),
(100,540,cs),
(62,540,o),
(30,508,o),
(30,470,cs),
(30,432,o),
(62,400,o),
(100,400,cs)
);
},
{
closed = 1;
nodes = (
(81,440,o),
(70,451,o),
(70,470,cs),
(70,489,o),
(81,500,o),
(100,500,cs),
(119,500,o),
(130,489,o),
(130,470,cs),
(130,451,o),
(119,440,o),
(100,440,cs)
);
}
);
width = 600;
}
);
metricLeft = "ca-tamil";
metricRight = "ca-tamil";
},
{
glyphname = "ya_uMatra-tamil";
layers = (
{
anchors = (
{
name = top;
pos = (230,600);
}
);
layerId = "E2153A70-07D4-4910-8E8C-7A6B98FF4FD7";
shapes = (
{
closed = 1;
nodes = (
(390,-300,l),
(430,-300,l),
(430,0,l),
(390,0,l)
);
},
{
closed = 1;
nodes = (
(167,-20,o),
(191,-11,o),
(210,4,c),
(210,-20,l),
(430,-20,l),
(430,620,l),
(390,620,l),
(390,20,l),
(250,20,l),
(250,600,l),
(210,600,l),
(210,92,ls),
(210,47,o),
(184,20,o),
(140,20,cs),
(96,20,o),
(70,47,o),
(70,92,cs),
(70,620,l),
(30,620,l),
(30,92,ls),
(30,28,o),
(77,-20,o),
(140,-20,cs)
);
}
);
width = 460;
}
);
metricLeft = "ca-tamil";
metricRight = "ca-tamil";
},
{
glyphname = "ya_uuMatra-tamil";
lastChange = "2023-04-29 09:46:56 +0000";
layers = (
{
anchors = (
{
name = imatra;
pos = (470,600);
},
{
name = top;
pos = (270,600);
}
);
layerId = "E2153A70-07D4-4910-8E8C-7A6B98FF4FD7";
shapes = (
{
closed = 1;
nodes = (
(167,-20,o),
(191,-11,o),
(210,4,c),
(210,-20,l),
(430,-20,l),
(430,620,l),
(390,620,l),
(390,20,l),
(250,20,l),
(250,600,l),
(210,600,l),
(210,92,ls),
(210,47,o),
(184,20,o),
(140,20,cs),
(96,20,o),
(70,47,o),
(70,92,cs),
(70,620,l),
(30,620,l),
(30,92,ls),
(30,28,o),
(77,-20,o),
(140,-20,cs)
);
},
{
closed = 1;
nodes = (
(418,-230,ls),
(500,-230,o),
(560,-170,o),
(560,-88,cs),
(560,-32,ls),
(560,26,o),
(512,69,o),
(450,69,cs),
(443,69,o),
(420,69,o),
(420,69,c),
(420,29,l),
(420,29,o),
(442,29,o),
(448,29,cs),
(494,31,o),
(520,6,o),
(520,-32,cs),
(520,-88,ls),
(520,-151,o),
(481,-190,o),
(418,-190,cs),
(325,-190,l),
(325,-230,l)
);
},
{
closed = 1;
nodes = (
(363,-230,o),
(395,-198,o),
(395,-160,cs),
(395,-122,o),
(363,-90,o),
(325,-90,cs),
(287,-90,o),
(255,-122,o),
(255,-160,cs),
(255,-198,o),
(287,-230,o),
(325,-230,cs)
);
},
{
closed = 1;
nodes = (
(306,-190,o),
(295,-179,o),
(295,-160,cs),
(295,-141,o),
(306,-130,o),
(325,-130,cs),
(344,-130,o),
(355,-141,o),
(355,-160,cs),
(355,-179,o),
(344,-190,o),
(325,-190,cs)
);
},
{
closed = 1;
nodes = (
(390,-70,l),
(430,-70,l),
(430,-20,l),
(390,-20,l)
);
}
);
width = 590;
}
);
metricLeft = "ca-tamil";
metricRight = "ca-tamil";
},
{
glyphname = "ra_uMatra-tamil";
layers = (
{
anchors = (
{
name = imatra;
pos = (490,600);
},
{
name = top;
pos = (280,600);
}
);
layerId = "E2153A70-07D4-4910-8E8C-7A6B98FF4FD7";
shapes = (
{
closed = 1;
nodes = (
(490,103,l),
(490,-44,o),
(404,-120,o),
(280,-120,cs),
(156,-120,o),
(70,-44,o),
(70,74,cs),
(70,576,ls),
(70,694,o),
(156,760,o),
(280,760,cs),
(404,760,o),
(490,694,o),
(490,576,cs),
(490,530,l),
(530,530,l),
(530,576,ls),
(530,713,o),
(423,800,o),
(280,800,cs),
(137,800,o),
(30,713,o),
(30,576,cs),
(30,74,ls),
(30,-63,o),
(137,-160,o),
(280,-160,cs),
(423,-160,o),
(530,-63,o),
(530,103,c)
);
},
{
closed = 1;
nodes = (
(530,186,l),
(530,310,o),
(497,365,o),
(421,365,cs),
(384,365,o),
(355,346,o),
(350,318,c),
(350,580,l),
(440,580,l),
(440,620,l),
(130,620,l),
(130,80,l),
(170,80,l),
(170,580,l),
(310,580,l),
(310,130,l),
(350,130,l),
(350,260,ls),
(350,302,o),
(372,325,o),
(411,325,cs),
(470,325,o),
(490,288,o),
(490,186,c)
);
},
{
closed = 1;
nodes = (
(490,103,l),
(530,103,l),
(530,186,l),
(490,186,l)
);
}
);
width = 560;
}
);
metricLeft = "ca-tamil";
metricRight = "ca-tamil";
},
{
glyphname = "ra_uuMatra-tamil";
layers = (
{
anchors = (
{
name = imatra;
pos = (490,600);
},
{
name = top;
pos = (280,600);
}
);
layerId = "E2153A70-07D4-4910-8E8C-7A6B98FF4FD7";
shapes = (
{
closed = 1;
nodes = (
(498,387,o),
(530,419,o),
(530,457,cs),
(530,495,o),
(498,527,o),
(460,527,cs),
(422,527,o),
(390,495,o),
(390,457,cs),
(390,419,o),
(422,387,o),
(460,387,cs)
);
},
{
closed = 1;
nodes = (
(441,427,o),
(430,438,o),
(430,457,cs),
(430,476,o),
(441,487,o),
(460,487,cs),
(479,487,o),
(490,476,o),
(490,457,cs),
(490,438,o),
(479,427,o),
(460,427,cs)
);
},
{
closed = 1;
nodes = (
(490,551,l),
(490,457,l),
(530,457,l),
(530,551,l)
);
},
{
closed = 1;
nodes = (
(490,103,l),
(490,-44,o),
(404,-120,o),
(280,-120,cs),
(156,-120,o),
(70,-44,o),
(70,74,cs),
(70,576,ls),
(70,694,o),
(156,760,o),
(280,760,cs),
(404,760,o),
(490,694,o),
(490,576,cs),
(490,530,l),
(530,530,l),
(530,576,ls),
(530,713,o),
(423,800,o),
(280,800,cs),
(137,800,o),
(30,713,o),
(30,576,cs),
(30,74,ls),
(30,-63,o),
(137,-160,o),
(280,-160,cs),
(423,-160,o),
(530,-63,o),
(530,103,c)
);
},
{
closed = 1;
nodes = (
(530,186,l),
(530,310,o),
(497,365,o),
(421,365,cs),
(384,365,o),
(355,346,o),
(350,318,c),
(350,580,l),
(440,580,l),
(440,620,l),
(130,620,l),
(130,80,l),
(170,80,l),
(170,580,l),
(310,580,l),
(310,130,l),
(350,130,l),
(350,260,ls),
(350,302,o),
(372,325,o),
(411,325,cs),
(470,325,o),
(490,288,o),
(490,186,c)
);
},
{
closed = 1;
nodes = (
(490,103,l),
(530,103,l),
(530,186,l),
(490,186,l)
);
}
);
width = 560;
}
);
metricLeft = "ca-tamil";
metricRight = "ca-tamil";
},
{
glyphname = "rra_uMatra-tamil";
layers = (
{
anchors = (
{
name = imatra;
pos = (460,600);
},
{
name = top;
pos = (257,600);
}
);
layerId = "E2153A70-07D4-4910-8E8C-7A6B98FF4FD7";
shapes = (
{
closed = 1;
nodes = (
(227,-321,ls),
(326,-321,o),
(400,-247,o),
(400,-148,cs),
(400,-80,l),
(500,-80,l),
(500,460,l),
(500,460,o),
(460,460,o),
(460,460,cs),
(460,-40,l),
(400,-40,l),
(400,369,ls),
(400,507,o),
(395,621,o),
(281,621,cs),
(242,621,o),
(216,606,o),
(200,584,c),
(183,606,o),
(156,620,o),
(125,620,cs),
(71,620,o),
(30,579,o),
(30,524,cs),
(30,60,ls),
(30,60,o),
(70,60,o),
(70,60,cs),
(70,524,ls),
(70,560,o),
(90,580,o),
(125,580,cs),
(160,580,o),
(180,560,o),
(180,524,cs),
(180,100,ls),
(180,100,o),
(220,100,o),
(220,100,cs),
(220,516,ls),
(220,556,o),
(233,581,o),
(281,581,cs),
(356,581,o),
(360,505,o),
(360,369,cs),
(360,-40,l),
(30,-40,l),
(30,-148,l),
(30,-247,o),
(104,-321,o),
(203,-321,cs)
);
},
{
closed = 1;
nodes = (
(123,-281,o),
(70,-228,o),
(70,-148,cs),
(70,-80,l),
(360,-80,l),
(360,-148,ls),
(360,-228,o),
(307,-281,o),
(227,-281,cs),
(203,-281,ls)
);
}
);
width = 530;
}
);
metricLeft = "ca-tamil";
metricRight = "ca-tamil";
},
{
glyphname = "rra_uuMatra-tamil";
layers = (
{
anchors = (
{
name = imatra;
pos = (460,600);
},
{
name = top;
pos = (257,600);
}
);
layerId = "E2153A70-07D4-4910-8E8C-7A6B98FF4FD7";
shapes = (
{
closed = 1;
nodes = (
(227,-321,ls),
(326,-321,o),
(400,-247,o),
(400,-148,cs),
(400,-80,l),
(500,-80,l),
(500,470,l),
(500,470,o),
(460,470,o),
(460,470,cs),
(460,-40,l),
(400,-40,l),
(400,369,ls),
(400,507,o),
(395,621,o),
(281,621,cs),
(242,621,o),
(216,606,o),
(200,584,c),
(183,606,o),
(156,620,o),
(125,620,cs),
(71,620,o),
(30,579,o),
(30,524,cs),
(30,60,ls),
(30,60,o),
(70,60,o),
(70,60,cs),
(70,524,ls),
(70,560,o),
(90,580,o),
(125,580,cs),
(160,580,o),
(180,560,o),
(180,524,cs),
(180,100,ls),
(180,100,o),
(220,100,o),
(220,100,cs),
(220,516,ls),
(220,556,o),
(233,581,o),
(281,581,cs),
(356,581,o),
(360,505,o),
(360,369,cs),
(360,-40,l),
(30,-40,l),
(30,-148,l),
(30,-247,o),
(104,-321,o),
(203,-321,cs)
);
},
{
closed = 1;
nodes = (
(123,-281,o),
(70,-228,o),
(70,-148,cs),
(70,-80,l),
(360,-80,l),
(360,-148,ls),
(360,-228,o),
(307,-281,o),
(227,-281,cs),
(203,-281,ls)
);
},
{
closed = 1;
nodes = (
(500,-20,l),
(500,580,l),
(620,580,l),
(620,-20,l),
(660,-20,l),
(660,580,l),
(730,580,l),
(730,620,l),
(460,620,l),
(460,-20,l)
);
}
);
width = 760;
}
);
metricLeft = "ca-tamil";
metricRight = "ca-tamil";
},
{
glyphname = "la_iMatra-tamil";
layers = (
{
anchors = (
{
name = imatra;
pos = (527,600);
},
{
name = top;
pos = (299,600);
}
);
layerId = "E2153A70-07D4-4910-8E8C-7A6B98FF4FD7";
shapes = (
{
closed = 1;
nodes = (
(447,523,l),
(447,520,l),
(439,520,ls),
(394,520,o),
(367,547,o),
(367,640,cs),
(367,713,o),
(394,760,o),
(447,760,cs),
(500,760,o),
(527,733,o),
(527,628,cs),
(527,-20,l),
(567,-20,l),
(567,628,ls),
(567,752,o),
(519,800,o),
(447,800,cs),
(375,800,o),
(327,732,o),
(327,640,cs),
(327,528,o),
(375,480,o),
(439,480,cs),
(447,480,l)
);
},
{
closed = 1;
nodes = (
(134,20,o),
(115,45,o),
(115,82,cs),
(115,118,ls),
(115,157,o),
(136,180,o),
(170,180,cs),
(204,180,o),
(225,157,o),
(225,118,cs),
(225,82,ls),
(225,43,o),
(205,20,o),
(171,20,cs),
(165,20,ls)
);
},
{
closed = 1;
nodes = (
(447,620,l),
(447,76,ls),
(447,40,o),
(427,20,o),
(392,20,cs),
(357,20,o),
(337,40,o),
(337,76,cs),
(337,473,ls),
(337,563,o),
(274,620,o),
(196,620,cs),
(172,620,ls),
(90,620,o),
(30,560,o),
(30,478,cs),
(30,122,ls),
(30,43,o),
(87,-20,o),
(163,-20,cs),
(172,-20,ls),
(227,-20,o),
(265,26,o),
(265,82,cs),
(265,118,ls),
(265,175,o),
(224,220,o),
(170,220,cs),
(116,220,o),
(75,175,o),
(75,118,cs),
(75,86,l),
(72,97,o),
(70,109,o),
(70,122,cs),
(70,478,ls),
(70,541,o),
(109,580,o),
(172,580,cs),
(196,580,ls),
(256,580,o),
(297,543,o),
(297,473,cs),
(297,76,ls),
(297,21,o),
(338,-20,o),
(392,-20,cs),
(446,-20,o),
(487,21,o),
(487,76,cs),
(487,620,l)
);
}
);
width = 597;
}
);
metricLeft = "ca-tamil";
metricRight = "ca-tamil";
},
{
glyphname = "la_iiMatra-tamil";
layers = (
{
anchors = (
{
name = imatra;
pos = (517,600);
},
{
name = top;
pos = (289,600);
}
);
layerId = "E2153A70-07D4-4910-8E8C-7A6B98FF4FD7";
shapes = (
{
closed = 1;
nodes = (
(134,20,o),
(115,45,o),
(115,82,cs),
(115,118,ls),
(115,157,o),
(136,180,o),
(170,180,cs),
(204,180,o),
(225,157,o),
(225,118,cs),
(225,82,ls),
(225,43,o),
(205,20,o),
(171,20,cs),
(165,20,ls)
);
},
{
closed = 1;
nodes = (
(468,500,l),
(468,540,l),
(440,540,ls),
(395,540,o),
(368,567,o),
(368,650,cs),
(368,723,o),
(395,780,o),
(458,780,cs),
(466,780,o),
(475,779,o),
(483,776,c),
(452,769,o),
(428,741,o),
(428,708,cs),
(428,670,o),
(460,638,o),
(498,638,cs),
(536,638,o),
(568,670,o),
(568,708,cs),
(568,772,o),
(520,820,o),
(458,820,cs),
(376,820,o),
(328,752,o),
(328,650,cs),
(328,548,o),
(376,500,o),
(440,500,cs)
);
},
{
closed = 1;
nodes = (
(479,678,o),
(468,689,o),
(468,708,cs),
(468,727,o),
(479,738,o),
(498,738,cs),
(517,738,o),
(528,727,o),
(528,708,cs),
(528,689,o),
(517,678,o),
(498,678,cs)
);
},
{
closed = 1;
nodes = (
(447,620,l),
(447,76,ls),
(447,40,o),
(427,20,o),
(392,20,cs),
(357,20,o),
(337,40,o),
(337,76,cs),
(337,473,ls),
(337,563,o),
(274,620,o),
(184,620,cs),
(90,620,o),
(30,560,o),
(30,478,cs),
(30,122,ls),
(30,43,o),
(87,-20,o),
(163,-20,cs),
(172,-20,ls),
(226,-20,o),
(265,26,o),
(265,82,cs),
(265,118,ls),
(265,175,o),
(224,220,o),
(170,220,cs),
(116,220,o),
(75,175,o),
(75,118,cs),
(75,86,l),
(72,97,o),
(70,109,o),
(70,122,cs),
(70,478,ls),
(70,541,o),
(109,580,o),
(184,580,cs),
(256,580,o),
(297,543,o),
(297,473,cs),
(297,76,ls),
(297,21,o),
(338,-20,o),
(392,-20,cs),
(446,-20,o),
(487,21,o),
(487,76,cs),
(487,620,l)
);
}
);
width = 587;
}
);
metricLeft = "ca-tamil";
},
{
glyphname = "la_uMatra-tamil";
layers = (
{
anchors = (
{
name = imatra;
pos = (521,600);
},
{
name = top;
pos = (282,600);
}
);
layerId = "E2153A70-07D4-4910-8E8C-7A6B98FF4FD7";
shapes = (
{
closed = 1;
nodes = (
(239,-321,ls),
(338,-321,o),
(412,-247,o),
(412,-148,cs),
(412,-80,l),
(582,-80,l),
(582,470,l),
(542,470,l),
(542,-40,l),
(412,-40,l),
(412,0,ls),
(412,11,o),
(403,20,o),
(392,20,cs),
(381,20,o),
(372,11,o),
(372,0,cs),
(372,-40,l),
(30,-40,l),
(30,-148,l),
(30,-247,o),
(104,-321,o),
(203,-321,cs)
);
},
{
closed = 1;
nodes = (
(124,-281,o),
(71,-228,o),
(71,-148,cs),
(71,-80,l),
(373,-80,l),
(373,-148,ls),
(373,-228,o),
(320,-281,o),
(240,-281,cs),
(204,-281,ls)
);
},
{
closed = 1;
nodes = (
(172,-20,ls),
(226,-20,o),
(265,26,o),
(265,82,cs),
(265,118,ls),
(265,175,o),
(224,220,o),
(170,220,cs),
(116,220,o),
(75,175,o),
(75,118,cs),
(75,86,l),
(72,97,o),
(70,109,o),
(70,122,cs),
(70,478,ls),
(70,541,o),
(109,580,o),
(184,580,cs),
(256,580,o),
(297,543,o),
(297,473,cs),
(297,76,ls),
(297,21,o),
(338,-20,o),
(392,-20,cs),
(446,-20,o),
(487,21,o),
(487,76,cs),
(487,523,ls),
(487,578,o),
(446,620,o),
(391,620,cs),
(365,620,l),
(365,580,l),
(391,580,ls),
(426,580,o),
(447,559,o),
(447,523,cs),
(447,76,ls),
(447,40,o),
(427,20,o),
(392,20,cs),
(357,20,o),
(337,40,o),
(337,76,cs),
(337,473,ls),
(337,563,o),
(274,620,o),
(184,620,cs),
(90,620,o),
(30,560,o),
(30,478,cs),
(30,122,ls),
(30,43,o),
(87,-20,o),
(163,-20,cs),
(170,-20,l)
);
},
{
closed = 1;
nodes = (
(134,20,o),
(115,45,o),
(115,82,cs),
(115,118,ls),
(115,157,o),
(136,180,o),
(170,180,cs),
(204,180,o),
(225,157,o),
(225,118,cs),
(225,82,ls),
(225,43,o),
(205,20,o),
(171,20,cs),
(165,20,ls)
);
}
);
width = 612;
}
);
metricLeft = "ca-tamil";
metricRight = "ca-tamil";
},
{
glyphname = "la_uuMatra-tamil";
layers = (
{
anchors = (
{
name = imatra;
pos = (521,600);
},
{
name = top;
pos = (282,600);
}
);
layerId = "E2153A70-07D4-4910-8E8C-7A6B98FF4FD7";
shapes = (
{
closed = 1;
nodes = (
(239,-321,ls),
(338,-321,o),
(412,-247,o),
(412,-148,cs),
(412,-80,l),
(582,-80,l),
(582,470,l),
(542,470,l),
(542,-40,l),
(412,-40,l),
(412,0,ls),
(412,11,o),
(403,20,o),
(392,20,cs),
(381,20,o),
(372,11,o),
(372,0,cs),
(372,-40,l),
(30,-40,l),
(30,-148,l),
(30,-247,o),
(104,-321,o),
(203,-321,cs)
);
},
{
closed = 1;
nodes = (
(124,-281,o),
(71,-228,o),
(71,-148,cs),
(71,-80,l),
(373,-80,l),
(373,-148,ls),
(373,-228,o),
(320,-281,o),
(240,-281,cs),
(204,-281,ls)
);
},
{
closed = 1;
nodes = (
(172,-20,ls),
(226,-20,o),
(265,26,o),
(265,82,cs),
(265,118,ls),
(265,175,o),
(224,220,o),
(170,220,cs),
(116,220,o),
(75,175,o),
(75,118,cs),
(75,86,l),
(72,97,o),
(70,109,o),
(70,122,cs),
(70,478,ls),
(70,541,o),
(109,580,o),
(184,580,cs),
(256,580,o),
(297,543,o),
(297,473,cs),
(297,76,ls),
(297,21,o),
(338,-20,o),
(392,-20,cs),
(446,-20,o),
(487,21,o),
(487,76,cs),
(487,523,ls),
(487,578,o),
(446,620,o),
(391,620,cs),
(365,620,l),
(365,580,l),
(391,580,ls),
(426,580,o),
(447,559,o),
(447,523,cs),
(447,76,ls),
(447,40,o),
(427,20,o),
(392,20,cs),
(357,20,o),
(337,40,o),
(337,76,cs),
(337,473,ls),
(337,563,o),
(274,620,o),
(184,620,cs),
(90,620,o),
(30,560,o),
(30,478,cs),
(30,122,ls),
(30,43,o),
(87,-20,o),
(163,-20,cs),
(170,-20,l)
);
},
{
closed = 1;
nodes = (
(134,20,o),
(115,45,o),
(115,82,cs),
(115,118,ls),
(115,157,o),
(136,180,o),
(170,180,cs),
(204,180,o),
(225,157,o),
(225,118,cs),
(225,82,ls),
(225,43,o),
(205,20,o),
(171,20,cs),
(165,20,ls)
);
},
{
closed = 1;
nodes = (
(582,-20,l),
(582,580,l),
(702,580,l),
(702,-20,l),
(742,-20,l),
(742,580,l),
(812,580,l),
(812,620,l),
(542,620,l),
(542,-20,l)
);
}
);
width = 842;
}
);
metricLeft = "ca-tamil";
metricRight = "ca-tamil";
},
{
glyphname = "lla_uMatra-tamil";
lastChange = "2023-04-29 09:46:56 +0000";
layers = (
{
anchors = (
{
name = imatra;
pos = (757,600);
},
{
name = top;
pos = (414,600);
}
);
layerId = "E2153A70-07D4-4910-8E8C-7A6B98FF4FD7";
shapes = (
{
closed = 1;
nodes = (
(573,-160,ls),
(701,-160,o),
(797,-77,o),
(797,37,cs),
(797,194,o),
(797,267,o),
(678,267,cs),
(604,267,o),
(577,214,o),
(577,162,c),
(617,162,l),
(617,202,o),
(630,227,o),
(678,227,cs),
(757,227,o),
(757,194,o),
(757,37,cs),
(757,-56,o),
(684,-120,o),
(573,-120,cs),
(254,-120,ls),
(144,-120,o),
(70,-46,o),
(70,64,cs),
(70,267,l),
(39,267,o),
(30,267,o),
(30,267,cs),
(30,64,ls),
(30,-65,o),
(125,-160,o),
(254,-160,cs)
);
},
{
closed = 1;
nodes = (
(283,-20,o),
(292,-11,o),
(292,0,cs),
(292,11,o),
(283,20,o),
(272,20,cs),
(210,20,o),
(170,59,o),
(170,122,cs),
(170,478,ls),
(170,541,o),
(209,580,o),
(272,580,cs),
(296,580,ls),
(356,580,o),
(397,543,o),
(397,473,cs),
(397,180,l),
(437,180,l),
(437,580,l),
(577,580,l),
(577,-20,ls),
(577,-20,o),
(617,-20,o),
(617,-20,cs),
(617,580,l),
(717,580,l),
(717,620,l),
(397,620,l),
(397,579,l),
(371,605,o),
(336,620,o),
(296,620,cs),
(272,620,ls),
(190,620,o),
(130,560,o),
(130,478,cs),
(130,122,ls),
(130,40,o),
(191,-20,o),
(272,-20,cs)
);
},
{
closed = 1;
nodes = (
(328,-20,o),
(367,25,o),
(367,82,cs),
(367,118,ls),
(367,175,o),
(326,220,o),
(272,220,cs),
(218,220,o),
(177,175,o),
(177,118,cs),
(177,82,ls),
(177,25,o),
(218,-20,o),
(272,-20,cs)
);
},
{
closed = 1;
nodes = (
(238,20,o),
(217,43,o),
(217,82,cs),
(217,118,ls),
(217,157,o),
(238,180,o),
(272,180,cs),
(306,180,o),
(327,157,o),
(327,118,cs),
(327,82,ls),
(327,43,o),
(307,20,o),
(272,20,cs)
);
}
);
width = 827;
}
);
metricLeft = "ca-tamil";
metricRight = "ca-tamil";
},
{
glyphname = "lla_uuMatra-tamil";
layers = (
{
anchors = (
{
name = imatra;
pos = (817,600);
},
{
name = top;
pos = (474,600);
}
);
layerId = "E2153A70-07D4-4910-8E8C-7A6B98FF4FD7";
shapes = (
{
closed = 1;
nodes = (
(633,-160,ls),
(761,-160,o),
(857,-77,o),
(857,37,cs),
(857,194,o),
(857,267,o),
(738,267,cs),
(664,267,o),
(637,214,o),
(637,162,c),
(677,162,l),
(677,202,o),
(690,227,o),
(738,227,cs),
(817,227,o),
(817,194,o),
(817,37,cs),
(817,-56,o),
(744,-120,o),
(633,-120,cs),
(254,-120,ls),
(144,-120,o),
(70,-46,o),
(70,64,cs),
(70,267,l),
(39,267,o),
(30,267,o),
(30,267,cs),
(30,64,ls),
(30,-65,o),
(125,-160,o),
(254,-160,cs)
);
},
{
closed = 1;
nodes = (
(343,-20,o),
(352,-11,o),
(352,0,cs),
(352,11,o),
(343,20,o),
(332,20,cs),
(270,20,o),
(230,59,o),
(230,122,cs),
(230,478,ls),
(230,541,o),
(269,580,o),
(332,580,cs),
(356,580,ls),
(416,580,o),
(457,543,o),
(457,473,cs),
(457,180,l),
(497,180,l),
(497,580,l),
(637,580,l),
(637,-20,ls),
(637,-20,o),
(677,-20,o),
(677,-20,cs),
(677,580,l),
(777,580,l),
(777,620,l),
(457,620,l),
(457,579,l),
(431,605,o),
(396,620,o),
(356,620,cs),
(332,620,ls),
(250,620,o),
(190,560,o),
(190,478,cs),
(190,122,ls),
(190,40,o),
(251,-20,o),
(332,-20,cs)
);
},
{
closed = 1;
nodes = (
(388,-20,o),
(427,25,o),
(427,82,cs),
(427,118,ls),
(427,175,o),
(386,220,o),
(332,220,cs),
(278,220,o),
(237,175,o),
(237,118,cs),
(237,82,ls),
(237,25,o),
(278,-20,o),
(332,-20,cs)
);
},
{
closed = 1;
nodes = (
(298,20,o),
(277,43,o),
(277,82,cs),
(277,118,ls),
(277,157,o),
(298,180,o),
(332,180,cs),
(366,180,o),
(387,157,o),
(387,118,cs),
(387,82,ls),
(387,43,o),
(367,20,o),
(332,20,cs)
);
},
{
closed = 1;
nodes = (
(138,197,o),
(170,229,o),
(170,267,cs),
(170,305,o),
(138,337,o),
(100,337,cs),
(62,337,o),
(30,305,o),
(30,267,cs),
(30,229,o),
(62,197,o),
(100,197,cs)
);
},
{
closed = 1;
nodes = (
(81,237,o),
(70,248,o),
(70,267,cs),
(70,286,o),
(81,297,o),
(100,297,cs),
(119,297,o),
(130,286,o),
(130,267,cs),
(130,248,o),
(119,237,o),
(100,237,cs)
);
}
);
width = 887;
}
);
metricLeft = "ca-tamil";
metricRight = "ca-tamil";
},
{
glyphname = "llla_uMatra-tamil";
layers = (
{
anchors = (
{
name = imatra;
pos = (480,600);
},
{
name = top;
pos = (275,600);
}
);
layerId = "E2153A70-07D4-4910-8E8C-7A6B98FF4FD7";
shapes = (
{
closed = 1;
nodes = (
(275,-290,ls),
(335,-290,o),
(381,-244,o),
(382,-183,cs),
(382,-140,o),
(408,-114,o),
(449,-114,cs),
(470,-114,l),
(470,-74,l),
(417,-74,ls),
(372,-74,o),
(345,-47,o),
(345,-2,c),
(305,-2,l),
(305,-50,o),
(332,-89,o),
(373,-105,c),
(354,-125,o),
(343,-151,o),
(342,-181,cs),
(342,-224,o),
(316,-250,o),
(275,-250,cs),
(172,-250,ls),
(109,-250,o),
(70,-211,o),
(70,-148,cs),
(70,470,l),
(30,470,l),
(30,-148,ls),
(30,-230,o),
(90,-290,o),
(172,-290,cs)
);
},
{
closed = 1;
nodes = (
(411,-20,ls),
(473,-20,o),
(520,27,o),
(520,89,cs),
(520,511,ls),
(520,573,o),
(474,620,o),
(413,620,cs),
(352,620,o),
(305,573,o),
(305,511,cs),
(305,20,l),
(170,20,l),
(170,620,l),
(130,620,l),
(130,-20,l)
);
},
{
closed = 1;
nodes = (
(345,511,ls),
(345,554,o),
(371,580,o),
(413,580,cs),
(454,580,o),
(480,554,o),
(480,511,cs),
(480,89,ls),
(480,46,o),
(454,20,o),
(411,20,cs),
(345,20,l)
);
}
);
width = 550;
}
);
metricLeft = "ca-tamil";
metricRight = "ca-tamil";
},
{
glyphname = "llla_uuMatra-tamil";
layers = (
{
anchors = (
{
name = imatra;
pos = (530,600);
},
{
name = top;
pos = (325,600);
}
);
layerId = "E2153A70-07D4-4910-8E8C-7A6B98FF4FD7";
shapes = (
{
closed = 1;
nodes = (
(325,-290,ls),
(385,-290,o),
(431,-244,o),
(432,-183,cs),
(432,-140,o),
(458,-114,o),
(499,-114,cs),
(520,-114,l),
(520,-74,l),
(467,-74,ls),
(422,-74,o),
(395,-47,o),
(395,-2,c),
(355,-2,l),
(355,-50,o),
(382,-89,o),
(423,-105,c),
(404,-125,o),
(393,-151,o),
(392,-181,cs),
(392,-224,o),
(366,-250,o),
(325,-250,cs),
(172,-250,ls),
(109,-250,o),
(70,-211,o),
(70,-148,cs),
(70,470,l),
(30,470,l),
(30,-148,ls),
(30,-230,o),
(90,-290,o),
(172,-290,cs)
);
},
{
closed = 1;
nodes = (
(461,-20,ls),
(523,-20,o),
(570,27,o),
(570,89,cs),
(570,511,ls),
(570,573,o),
(524,620,o),
(463,620,cs),
(402,620,o),
(355,573,o),
(355,511,cs),
(355,20,l),
(220,20,l),
(220,620,l),
(180,620,l),
(180,-20,l)
);
},
{
closed = 1;
nodes = (
(395,511,ls),
(395,554,o),
(421,580,o),
(463,580,cs),
(504,580,o),
(530,554,o),
(530,511,cs),
(530,89,ls),
(530,46,o),
(504,20,o),
(461,20,cs),
(395,20,l)
);
},
{
closed = 1;
nodes = (
(138,400,o),
(170,432,o),
(170,470,cs),
(170,508,o),
(138,540,o),
(100,540,cs),
(62,540,o),
(30,508,o),
(30,470,cs),
(30,432,o),
(62,400,o),
(100,400,cs)
);
},
{
closed = 1;
nodes = (
(81,440,o),
(70,451,o),
(70,470,cs),
(70,489,o),
(81,500,o),
(100,500,cs),
(119,500,o),
(130,489,o),
(130,470,cs),
(130,451,o),
(119,440,o),
(100,440,cs)
);
}
);
width = 600;
}
);
metricLeft = "ca-tamil";
metricRight = "ca-tamil";
},
{
glyphname = "va_iiMatra-tamil";
layers = (
{
anchors = (
{
name = imatra;
pos = (420,580);
},
{
name = top;
pos = (320,600);
}
);
layerId = "E2153A70-07D4-4910-8E8C-7A6B98FF4FD7";
shapes = (
{
closed = 1;
nodes = (
(470,-20,l),
(470,620,l),
(430,620,l),
(430,20,l),
(110,20,ls),
(89,20,o),
(79,30,o),
(79,50,cs),
(79,70,o),
(89,80,o),
(110,80,cs),
(198,80,ls),
(280,80,o),
(340,140,o),
(340,222,cs),
(340,478,ls),
(340,560,o),
(280,620,o),
(198,620,cs),
(172,620,ls),
(90,620,o),
(30,560,o),
(30,478,cs),
(30,278,ls),
(30,221,o),
(70,176,o),
(125,176,cs),
(181,176,o),
(220,221,o),
(220,278,cs),
(220,314,ls),
(220,371,o),
(179,416,o),
(125,416,cs),
(104,416,o),
(75,403,o),
(66,378,c),
(66,478,ls),
(66,541,o),
(109,580,o),
(172,580,cs),
(198,580,ls),
(261,580,o),
(300,541,o),
(300,478,cs),
(300,222,ls),
(300,159,o),
(261,120,o),
(198,120,cs),
(110,120,ls),
(70,120,o),
(39,90,o),
(39,50,cs),
(39,10,o),
(70,-20,o),
(110,-20,cs)
);
},
{
closed = 1;
nodes = (
(70,314,ls),
(70,353,o),
(91,376,o),
(125,376,cs),
(159,376,o),
(180,353,o),
(180,314,cs),
(180,278,ls),
(180,238,o),
(160,216,o),
(125,216,cs),
(91,216,o),
(70,239,o),
(70,278,cs)
);
},
{
closed = 1;
nodes = (
(458,500,l),
(458,540,l),
(430,540,ls),
(385,540,o),
(358,567,o),
(358,650,cs),
(358,723,o),
(385,780,o),
(448,780,cs),
(456,780,o),
(465,779,o),
(473,776,c),
(442,769,o),
(418,741,o),
(418,708,cs),
(418,670,o),
(450,638,o),
(488,638,cs),
(526,638,o),
(558,670,o),
(558,708,cs),
(558,772,o),
(510,820,o),
(448,820,cs),
(366,820,o),
(318,752,o),
(318,650,cs),
(318,548,o),
(366,500,o),
(430,500,cs)
);
},
{
closed = 1;
nodes = (
(469,678,o),
(458,689,o),
(458,708,cs),
(458,727,o),
(469,738,o),
(488,738,cs),
(507,738,o),
(518,727,o),
(518,708,cs),
(518,689,o),
(507,678,o),
(488,678,cs)
);
}
);
width = 588;
}
);
metricLeft = "ca-tamil";
metricRight = "ca-tamil";
},
{
glyphname = "va_uMatra-tamil";
layers = (
{
anchors = (
{
name = imatra;
pos = (420,500);
},
{
name = top;
pos = (320,600);
}
);
layerId = "E2153A70-07D4-4910-8E8C-7A6B98FF4FD7";
shapes = (
{
closed = 1;
nodes = (
(30,278,ls),
(30,221,o),
(70,176,o),
(125,176,cs),
(181,176,o),
(220,221,o),
(220,278,cs),
(220,314,ls),
(220,371,o),
(179,416,o),
(125,416,cs),
(104,416,o),
(75,403,o),
(66,378,c),
(66,478,ls),
(66,541,o),
(109,580,o),
(172,580,cs),
(198,580,ls),
(261,580,o),
(300,541,o),
(300,478,cs),
(300,222,ls),
(300,159,o),
(261,120,o),
(198,120,cs),
(110,120,ls),
(70,120,o),
(39,90,o),
(39,50,cs),
(39,10,o),
(70,-20,o),
(110,-20,cs),
(400,-20,l),
(400,-300,l),
(440,-300,l),
(440,500,l),
(400,500,l),
(400,20,l),
(110,20,ls),
(89,20,o),
(79,30,o),
(79,50,cs),
(79,70,o),
(89,80,o),
(110,80,cs),
(198,80,ls),
(280,80,o),
(340,140,o),
(340,222,cs),
(340,478,ls),
(340,560,o),
(280,620,o),
(198,620,cs),
(172,620,ls),
(90,620,o),
(30,560,o),
(30,478,cs)
);
},
{
closed = 1;
nodes = (
(70,314,ls),
(70,353,o),
(91,376,o),
(125,376,cs),
(159,376,o),
(180,353,o),
(180,314,cs),
(180,278,ls),
(180,238,o),
(160,216,o),
(125,216,cs),
(91,216,o),
(70,239,o),
(70,278,cs)
);
}
);
width = 470;
}
);
metricLeft = "ca-tamil";
metricRight = "ca-tamil";
},
{
glyphname = "va_uuMatra-tamil";
layers = (
{
anchors = (
{
name = imatra;
pos = (480,600);
},
{
name = top;
pos = (275,600);
}
);
layerId = "E2153A70-07D4-4910-8E8C-7A6B98FF4FD7";
shapes = (
{
closed = 1;
nodes = (
(30,278,ls),
(30,221,o),
(70,176,o),
(125,176,cs),
(181,176,o),
(220,221,o),
(220,278,cs),
(220,314,ls),
(220,371,o),
(179,416,o),
(125,416,cs),
(104,416,o),
(75,403,o),
(66,378,c),
(66,478,ls),
(66,541,o),
(109,580,o),
(172,580,cs),
(198,580,ls),
(261,580,o),
(300,541,o),
(300,478,cs),
(300,222,ls),
(300,159,o),
(261,120,o),
(198,120,cs),
(110,120,ls),
(70,120,o),
(39,90,o),
(39,50,cs),
(39,10,o),
(70,-20,o),
(110,-20,cs),
(400,-20,l),
(400,-70,l),
(440,-70,l),
(440,29,l),
(458,29,ls),
(504,31,o),
(530,6,o),
(530,-32,cs),
(530,-88,ls),
(530,-151,o),
(491,-190,o),
(428,-190,cs),
(398,-190,l),
(402,-181,o),
(405,-171,o),
(405,-160,cs),
(405,-122,o),
(373,-90,o),
(335,-90,cs),
(297,-90,o),
(265,-122,o),
(265,-160,cs),
(265,-198,o),
(297,-230,o),
(335,-230,cs),
(428,-230,ls),
(510,-230,o),
(570,-170,o),
(570,-88,cs),
(570,-32,ls),
(570,26,o),
(522,69,o),
(460,69,cs),
(440,69,l),
(440,500,l),
(400,500,l),
(400,20,l),
(110,20,ls),
(89,20,o),
(79,30,o),
(79,50,cs),
(79,70,o),
(89,80,o),
(110,80,cs),
(198,80,ls),
(280,80,o),
(340,140,o),
(340,222,cs),
(340,478,ls),
(340,560,o),
(280,620,o),
(198,620,cs),
(172,620,ls),
(90,620,o),
(30,560,o),
(30,478,cs)
);
},
{
closed = 1;
nodes = (
(70,314,ls),
(70,353,o),
(91,376,o),
(125,376,cs),
(159,376,o),
(180,353,o),
(180,314,cs),
(180,278,ls),
(180,238,o),
(160,216,o),
(125,216,cs),
(91,216,o),
(70,239,o),
(70,278,cs)
);
},
{
closed = 1;
nodes = (
(305,-141,o),
(316,-130,o),
(335,-130,cs),
(354,-130,o),
(365,-141,o),
(365,-160,cs),
(365,-179,o),
(354,-190,o),
(335,-190,cs),
(316,-190,o),
(305,-179,o),
(305,-160,cs)
);
}
);
width = 600;
}
);
metricLeft = "ca-tamil";
metricRight = "ca-tamil";
},
{
glyphname = "ssa_iMatra-tamil";
layers = (
{
layerId = "E2153A70-07D4-4910-8E8C-7A6B98FF4FD7";
shapes = (
{
closed = 1;
nodes = (
(30,278,ls),
(30,221,o),
(70,176,o),
(125,176,cs),
(181,176,o),
(220,221,o),
(220,278,cs),
(220,314,ls),
(220,371,o),
(179,416,o),
(125,416,cs),
(104,416,o),
(75,403,o),
(66,378,c),
(66,478,ls),
(66,541,o),
(109,580,o),
(172,580,cs),
(198,580,ls),
(261,580,o),
(300,541,o),
(300,478,cs),
(300,222,ls),
(300,159,o),
(261,120,o),
(198,120,cs),
(110,120,ls),
(70,120,o),
(39,90,o),
(39,50,cs),
(39,10,o),
(70,-20,o),
(110,-20,cs),
(530,-20,l),
(530,-300,l),
(570,-300,l),
(570,-20,l),
(610,-20,l),
(610,20,l),
(570,20,l),
(570,198,ls),
(570,250,o),
(537,289,o),
(490,298,c),
(490,418,ls),
(490,487,o),
(532,510,o),
(570,510,cs),
(608,510,o),
(650,487,o),
(650,418,cs),
(650,-20,l),
(690,-20,l),
(690,418,ls),
(690,517,o),
(617,550,o),
(570,550,cs),
(523,550,o),
(450,517,o),
(450,418,cs),
(450,298,l),
(403,289,o),
(370,250,o),
(370,198,cs),
(370,82,ls),
(370,58,o),
(375,20,o),
(409,20,cs),
(110,20,ls),
(89,20,o),
(79,30,o),
(79,50,cs),
(79,70,o),
(89,80,o),
(110,80,cs),
(198,80,ls),
(280,80,o),
(340,140,o),
(340,222,cs),
(340,478,ls),
(340,560,o),
(280,620,o),
(198,620,cs),
(172,620,ls),
(90,620,o),
(30,560,o),
(30,478,cs)
);
},
{
closed = 1;
nodes = (
(70,314,ls),
(70,353,o),
(91,376,o),
(125,376,cs),
(159,376,o),
(180,353,o),
(180,314,cs),
(180,278,ls),
(180,238,o),
(160,216,o),
(125,216,cs),
(91,216,o),
(70,239,o),
(70,278,cs)
);
},
{
closed = 1;
nodes = (
(410,198,ls),
(410,238,o),
(432,260,o),
(470,260,cs),
(508,260,o),
(530,238,o),
(530,198,cs),
(530,20,l),
(464,20,ls),
(432,20,o),
(410,42,o),
(410,82,cs)
);
}
);
width = 720;
}
);
metricLeft = "ca-tamil";
metricRight = "ca-tamil";
},
{
glyphname = "ssa_iiMatra-tamil";
layers = (
{
anchors = (
{
name = imatra;
pos = (450,280);
},
{
name = top;
pos = (330,600);
}
);
layerId = "E2153A70-07D4-4910-8E8C-7A6B98FF4FD7";
shapes = (
{
closed = 1;
nodes = (
(30,278,ls),
(30,221,o),
(70,176,o),
(125,176,cs),
(181,176,o),
(220,221,o),
(220,278,cs),
(220,314,ls),
(220,371,o),
(179,416,o),
(125,416,cs),
(104,416,o),
(75,403,o),
(66,378,c),
(66,478,ls),
(66,541,o),
(109,580,o),
(172,580,cs),
(198,580,ls),
(261,580,o),
(300,541,o),
(300,478,cs),
(300,222,ls),
(300,159,o),
(261,120,o),
(198,120,cs),
(110,120,ls),
(70,120,o),
(39,90,o),
(39,50,cs),
(39,10,o),
(70,-20,o),
(110,-20,cs),
(560,-20,l),
(560,-300,l),
(600,-300,l),
(600,-20,l),
(680,-20,l),
(680,20,l),
(600,20,l),
(600,198,ls),
(600,257,o),
(557,300,o),
(500,300,cs),
(447,300,o),
(410,336,o),
(410,398,cs),
(410,454,o),
(447,490,o),
(500,490,cs),
(502,490,l),
(477,476,o),
(460,449,o),
(460,420,cs),
(460,377,o),
(497,340,o),
(540,340,cs),
(582,340,o),
(619,376,o),
(620,418,cs),
(620,419,l),
(620,420,l),
(620,427,ls),
(620,486,o),
(569,530,o),
(500,530,cs),
(428,530,o),
(370,474,o),
(370,398,cs),
(370,337,o),
(404,297,o),
(443,283,c),
(410,265,o),
(400,231,o),
(400,198,cs),
(400,82,ls),
(400,48,o),
(415,20,o),
(439,20,cs),
(110,20,ls),
(89,20,o),
(79,30,o),
(79,50,cs),
(79,70,o),
(89,80,o),
(110,80,cs),
(198,80,ls),
(280,80,o),
(340,140,o),
(340,222,cs),
(340,478,ls),
(340,560,o),
(280,620,o),
(198,620,cs),
(172,620,ls),
(90,620,o),
(30,560,o),
(30,478,cs)
);
},
{
closed = 1;
nodes = (
(70,314,ls),
(70,353,o),
(91,376,o),
(125,376,cs),
(159,376,o),
(180,353,o),
(180,314,cs),
(180,278,ls),
(180,238,o),
(160,216,o),
(125,216,cs),
(91,216,o),
(70,239,o),
(70,278,cs)
);
},
{
closed = 1;
nodes = (
(440,198,ls),
(440,238,o),
(462,260,o),
(500,260,cs),
(538,260,o),
(560,238,o),
(560,198,cs),
(560,20,l),
(494,20,ls),
(462,20,o),
(440,42,o),
(440,82,cs)
);
},
{
closed = 1;
nodes = (
(500,444,o),
(516,460,o),
(540,460,cs),
(562,460,o),
(580,446,o),
(580,425,cs),
(580,419,ls),
(580,396,o),
(564,380,o),
(540,380,cs),
(516,380,o),
(500,396,o),
(500,420,cs)
);
}
);
width = 710;
}
);
metricLeft = "ca-tamil";
metricRight = "ca-tamil";
},
{
glyphname = "sa_iMatra-tamil";
layers = (
{
anchors = (
{
name = imatra;
pos = (667,600);
},
{
name = top;
pos = (369,600);
}
);
layerId = "E2153A70-07D4-4910-8E8C-7A6B98FF4FD7";
shapes = (
{
closed = 1;
nodes = (
(134,20,o),
(115,45,o),
(115,82,cs),
(115,118,ls),
(115,157,o),
(136,180,o),
(170,180,cs),
(204,180,o),
(225,157,o),
(225,118,cs),
(225,82,ls),
(225,43,o),
(205,20,o),
(171,20,cs),
(165,20,ls)
);
},
{
closed = 1;
nodes = (
(719,-20,l),
(719,648,ls),
(719,772,o),
(671,820,o),
(599,820,cs),
(527,820,o),
(469,772,o),
(469,650,cs),
(469,528,o),
(527,480,o),
(591,480,cs),
(619,480,l),
(619,520,l),
(591,520,ls),
(546,520,o),
(509,547,o),
(509,650,cs),
(509,753,o),
(546,780,o),
(599,780,cs),
(652,780,o),
(679,753,o),
(679,648,cs),
(679,-20,l)
);
},
{
closed = 1;
nodes = (
(589,620,l),
(589,76,ls),
(589,40,o),
(569,20,o),
(534,20,cs),
(499,20,o),
(479,40,o),
(479,76,cs),
(479,524,ls),
(479,579,o),
(438,620,o),
(384,620,cs),
(348,620,o),
(318,602,o),
(302,574,c),
(276,604,o),
(238,620,o),
(196,620,cs),
(172,620,ls),
(90,620,o),
(30,560,o),
(30,478,cs),
(30,122,ls),
(30,43,o),
(87,-20,o),
(163,-20,cs),
(170,-20,l),
(172,-20,ls),
(226,-20,o),
(265,26,o),
(265,82,cs),
(265,118,ls),
(265,175,o),
(224,220,o),
(170,220,cs),
(116,220,o),
(75,175,o),
(75,118,cs),
(75,86,l),
(72,97,o),
(70,109,o),
(70,122,cs),
(70,478,ls),
(70,541,o),
(109,580,o),
(172,580,cs),
(196,580,ls),
(256,580,o),
(297,543,o),
(297,473,cs),
(297,106,l),
(337,106,l),
(337,473,ls),
(337,492,o),
(334,510,o),
(329,526,c),
(330,560,o),
(350,580,o),
(384,580,cs),
(419,580,o),
(439,560,o),
(439,524,cs),
(439,76,ls),
(439,21,o),
(480,-20,o),
(534,-20,cs),
(588,-20,o),
(629,21,o),
(629,76,cs),
(629,620,l)
);
}
);
width = 749;
}
);
metricRight = "ca-tamil";
},
{
glyphname = "sa_iiMatra-tamil";
layers = (
{
anchors = (
{
name = imatra;
pos = (802,600);
},
{
name = top;
pos = (503,600);
}
);
layerId = "E2153A70-07D4-4910-8E8C-7A6B98FF4FD7";
shapes = (
{
closed = 1;
nodes = (
(134,20,o),
(115,45,o),
(115,82,cs),
(115,118,ls),
(115,157,o),
(136,180,o),
(170,180,cs),
(204,180,o),
(225,157,o),
(225,118,cs),
(225,82,ls),
(225,43,o),
(205,20,o),
(171,20,cs),
(165,20,ls)
);
},
{
closed = 1;
nodes = (
(610,500,l),
(610,540,l),
(582,540,ls),
(537,540,o),
(510,567,o),
(510,650,cs),
(510,723,o),
(537,780,o),
(600,780,cs),
(608,780,o),
(617,779,o),
(625,776,c),
(594,769,o),
(570,741,o),
(570,708,cs),
(570,670,o),
(602,638,o),
(640,638,cs),
(678,638,o),
(710,670,o),
(710,708,cs),
(710,772,o),
(662,820,o),
(600,820,cs),
(518,820,o),
(470,752,o),
(470,650,cs),
(470,548,o),
(518,500,o),
(582,500,cs)
);
},
{
closed = 1;
nodes = (
(621,678,o),
(610,689,o),
(610,708,cs),
(610,727,o),
(621,738,o),
(640,738,cs),
(659,738,o),
(670,727,o),
(670,708,cs),
(670,689,o),
(659,678,o),
(640,678,cs)
);
},
{
closed = 1;
nodes = (
(589,620,l),
(589,76,ls),
(589,40,o),
(569,20,o),
(534,20,cs),
(499,20,o),
(479,40,o),
(479,76,cs),
(479,524,ls),
(479,579,o),
(438,620,o),
(384,620,cs),
(348,620,o),
(318,602,o),
(302,574,c),
(276,604,o),
(238,620,o),
(196,620,cs),
(172,620,ls),
(90,620,o),
(30,560,o),
(30,478,cs),
(30,122,ls),
(30,43,o),
(87,-20,o),
(163,-20,cs),
(172,-20,ls),
(226,-20,o),
(265,26,o),
(265,82,cs),
(265,118,ls),
(265,175,o),
(224,220,o),
(170,220,cs),
(116,220,o),
(75,175,o),
(75,118,cs),
(75,86,l),
(72,97,o),
(70,109,o),
(70,122,cs),
(70,478,ls),
(70,541,o),
(109,580,o),
(172,580,cs),
(196,580,ls),
(256,580,o),
(297,543,o),
(297,473,cs),
(297,106,l),
(337,106,l),
(337,473,ls),
(337,492,o),
(334,510,o),
(329,526,c),
(330,560,o),
(350,580,o),
(384,580,cs),
(419,580,o),
(439,560,o),
(439,524,cs),
(439,76,ls),
(439,21,o),
(480,-20,o),
(534,-20,cs),
(588,-20,o),
(629,21,o),
(629,76,cs),
(629,620,l)
);
}
);
width = 740;
}
);
metricLeft = "ca-tamil";
metricRight = "ca-tamil";
},
{
glyphname = "k_ssa-tamil";
lastChange = "2023-04-29 09:46:56 +0000";
layers = (
{
anchors = (
{
name = imatra;
pos = (251,600);
},
{
name = top;
pos = (475,600);
}
);
layerId = "E2153A70-07D4-4910-8E8C-7A6B98FF4FD7";
shapes = (
{
closed = 1;
nodes = (
(840,-317,l),
(840,198,ls),
(840,257,o),
(797,300,o),
(740,300,cs),
(683,300,o),
(640,257,o),
(640,198,cs),
(640,82,ls),
(640,23,o),
(683,-20,o),
(734,-20,cs),
(800,-20,l),
(800,-317,l)
);
},
{
closed = 1;
nodes = (
(702,20,o),
(680,42,o),
(680,82,cs),
(680,198,ls),
(680,238,o),
(702,260,o),
(740,260,cs),
(778,260,o),
(800,238,o),
(800,198,cs),
(800,20,l),
(734,20,ls)
);
},
{
closed = 1;
nodes = (
(219,-20,o),
(270,32,o),
(270,102,cs),
(270,330,l),
(313,330,l),
(301,313,o),
(294,292,o),
(294,268,cs),
(294,242,ls),
(294,185,o),
(334,140,o),
(389,140,cs),
(445,140,o),
(484,185,o),
(484,242,cs),
(484,268,ls),
(484,292,o),
(477,313,o),
(465,330,c),
(478,330,ls),
(541,330,o),
(580,290,o),
(580,227,cs),
(580,222,ls),
(580,159,o),
(541,120,o),
(478,120,cs),
(380,120,ls),
(340,120,o),
(309,90,o),
(309,50,cs),
(309,10,o),
(340,-20,o),
(380,-20,cs),
(890,-20,l),
(890,20,l),
(380,20,ls),
(359,20,o),
(349,30,o),
(349,50,cs),
(349,70,o),
(359,80,o),
(380,80,cs),
(478,80,ls),
(560,80,o),
(620,140,o),
(620,222,cs),
(620,227,ls),
(620,309,o),
(560,370,o),
(478,370,cs),
(270,370,l),
(270,580,l),
(380,580,l),
(380,620,l),
(110,620,l),
(110,365,l),
(65,350,o),
(30,305,o),
(30,248,cs),
(30,102,ls),
(30,32,o),
(81,-20,o),
(150,-20,cs)
);
},
{
closed = 1;
nodes = (
(100,20,o),
(70,51,o),
(70,102,cs),
(70,248,ls),
(70,299,o),
(101,330,o),
(142,330,cs),
(230,330,l),
(230,102,ls),
(230,51,o),
(200,20,o),
(150,20,cs)
);
},
{
closed = 1;
nodes = (
(355,180,o),
(334,203,o),
(334,242,cs),
(334,268,ls),
(334,307,o),
(355,330,o),
(389,330,cs),
(423,330,o),
(444,307,o),
(444,268,cs),
(444,242,ls),
(444,202,o),
(424,180,o),
(389,180,cs)
);
},
{
closed = 1;
nodes = (
(150,580,l),
(230,580,l),
(230,370,l),
(150,370,l)
);
}
);
width = 920;
}
);
metricLeft = "ca-tamil";
metricRight = "ca-tamil";
},
{
glyphname = "k_ssa_iMatra-tamil";
lastChange = "2023-04-29 09:46:56 +0000";
layers = (
{
anchors = (
{
name = imatra;
pos = (251,600);
},
{
name = top;
pos = (475,600);
}
);
layerId = "E2153A70-07D4-4910-8E8C-7A6B98FF4FD7";
shapes = (
{
closed = 1;
nodes = (
(840,-317,l),
(840,198,ls),
(840,257,o),
(797,300,o),
(740,300,cs),
(683,300,o),
(640,257,o),
(640,198,cs),
(640,82,ls),
(640,23,o),
(683,-20,o),
(734,-20,cs),
(800,-20,l),
(800,-317,l)
);
},
{
closed = 1;
nodes = (
(702,20,o),
(680,42,o),
(680,82,cs),
(680,198,ls),
(680,238,o),
(702,260,o),
(740,260,cs),
(778,260,o),
(800,238,o),
(800,198,cs),
(800,20,l),
(734,20,ls)
);
},
{
closed = 1;
nodes = (
(219,-20,o),
(270,32,o),
(270,102,cs),
(270,330,l),
(313,330,l),
(301,313,o),
(294,292,o),
(294,268,cs),
(294,242,ls),
(294,185,o),
(334,140,o),
(389,140,cs),
(445,140,o),
(484,185,o),
(484,242,cs),
(484,268,ls),
(484,292,o),
(477,313,o),
(465,330,c),
(478,330,ls),
(541,330,o),
(580,290,o),
(580,227,cs),
(580,222,ls),
(580,159,o),
(541,120,o),
(478,120,cs),
(380,120,ls),
(340,120,o),
(309,90,o),
(309,50,cs),
(309,10,o),
(340,-20,o),
(380,-20,cs),
(890,-20,l),
(890,20,l),
(380,20,ls),
(359,20,o),
(349,30,o),
(349,50,cs),
(349,70,o),
(359,80,o),
(380,80,cs),
(478,80,ls),
(560,80,o),
(620,140,o),
(620,222,cs),
(620,227,ls),
(620,309,o),
(560,370,o),
(478,370,cs),
(270,370,l),
(270,580,l),
(380,580,l),
(380,620,l),
(110,620,l),
(110,365,l),
(65,350,o),
(30,305,o),
(30,248,cs),
(30,102,ls),
(30,32,o),
(81,-20,o),
(150,-20,cs)
);
},
{
closed = 1;
nodes = (
(100,20,o),
(70,51,o),
(70,102,cs),
(70,248,ls),
(70,299,o),
(101,330,o),
(142,330,cs),
(230,330,l),
(230,102,ls),
(230,51,o),
(200,20,o),
(150,20,cs)
);
},
{
closed = 1;
nodes = (
(355,180,o),
(334,203,o),
(334,242,cs),
(334,268,ls),
(334,307,o),
(355,330,o),
(389,330,cs),
(423,330,o),
(444,307,o),
(444,268,cs),
(444,242,ls),
(444,202,o),
(424,180,o),
(389,180,cs)
);
},
{
closed = 1;
nodes = (
(150,580,l),
(230,580,l),
(230,370,l),
(150,370,l)
);
},
{
closed = 1;
nodes = (
(920,-20,o),
(960,-20,o),
(960,-20,cs),
(960,418,ls),
(960,517,o),
(887,550,o),
(840,550,cs),
(793,550,o),
(720,517,o),
(720,418,cs),
(720,290,l),
(760,290,l),
(760,418,ls),
(760,487,o),
(802,510,o),
(840,510,cs),
(878,510,o),
(920,487,o),
(920,418,cs),
(920,-20,ls)
);
}
);
width = 990;
}
);
metricLeft = "ca-tamil";
metricRight = "ca-tamil";
},
{
glyphname = "k_ssa_iiMatra-tamil";
lastChange = "2023-04-29 09:46:56 +0000";
layers = (
{
anchors = (
{
name = imatra;
pos = (251,600);
},
{
name = top;
pos = (475,600);
}
);
layerId = "E2153A70-07D4-4910-8E8C-7A6B98FF4FD7";
shapes = (
{
closed = 1;
nodes = (
(840,-317,l),
(840,198,ls),
(840,257,o),
(797,300,o),
(740,300,cs),
(683,300,o),
(640,257,o),
(640,198,cs),
(640,82,ls),
(640,23,o),
(683,-20,o),
(734,-20,cs),
(800,-20,l),
(800,-317,l)
);
},
{
closed = 1;
nodes = (
(702,20,o),
(680,42,o),
(680,82,cs),
(680,198,ls),
(680,238,o),
(702,260,o),
(740,260,cs),
(778,260,o),
(800,238,o),
(800,198,cs),
(800,20,l),
(734,20,ls)
);
},
{
closed = 1;
nodes = (
(219,-20,o),
(270,32,o),
(270,102,cs),
(270,330,l),
(313,330,l),
(301,313,o),
(294,292,o),
(294,268,cs),
(294,242,ls),
(294,185,o),
(334,140,o),
(389,140,cs),
(445,140,o),
(484,185,o),
(484,242,cs),
(484,268,ls),
(484,292,o),
(477,313,o),
(465,330,c),
(478,330,ls),
(541,330,o),
(580,290,o),
(580,227,cs),
(580,222,ls),
(580,159,o),
(541,120,o),
(478,120,cs),
(380,120,ls),
(340,120,o),
(309,90,o),
(309,50,cs),
(309,10,o),
(340,-20,o),
(380,-20,cs),
(890,-20,l),
(890,20,l),
(380,20,ls),
(359,20,o),
(349,30,o),
(349,50,cs),
(349,70,o),
(359,80,o),
(380,80,cs),
(478,80,ls),
(560,80,o),
(620,140,o),
(620,222,cs),
(620,227,ls),
(620,309,o),
(560,370,o),
(478,370,cs),
(270,370,l),
(270,580,l),
(380,580,l),
(380,620,l),
(110,620,l),
(110,365,l),
(65,350,o),
(30,305,o),
(30,248,cs),
(30,102,ls),
(30,32,o),
(81,-20,o),
(150,-20,cs)
);
},
{
closed = 1;
nodes = (
(100,20,o),
(70,51,o),
(70,102,cs),
(70,248,ls),
(70,299,o),
(101,330,o),
(142,330,cs),
(230,330,l),
(230,102,ls),
(230,51,o),
(200,20,o),
(150,20,cs)
);
},
{
closed = 1;
nodes = (
(355,180,o),
(334,203,o),
(334,242,cs),
(334,268,ls),
(334,307,o),
(355,330,o),
(389,330,cs),
(423,330,o),
(444,307,o),
(444,268,cs),
(444,242,ls),
(444,202,o),
(424,180,o),
(389,180,cs)
);
},
{
closed = 1;
nodes = (
(150,580,l),
(230,580,l),
(230,370,l),
(150,370,l)
);
},
{
closed = 1;
nodes = (
(740,260,o),
(740,300,o),
(740,300,cs),
(687,300,o),
(650,336,o),
(650,398,cs),
(650,454,o),
(687,490,o),
(740,490,cs),
(793,490,o),
(820,463,o),
(820,418,c),
(860,418,l),
(860,482,o),
(812,530,o),
(740,530,cs),
(668,530,o),
(610,474,o),
(610,398,cs),
(610,317,o),
(668,260,o),
(740,260,cs)
);
},
{
closed = 1;
nodes = (
(823,340,o),
(860,377,o),
(860,420,cs),
(860,463,o),
(823,500,o),
(780,500,cs),
(737,500,o),
(700,463,o),
(700,420,cs),
(700,377,o),
(737,340,o),
(780,340,cs)
);
},
{
closed = 1;
nodes = (
(756,380,o),
(740,396,o),
(740,420,cs),
(740,444,o),
(756,460,o),
(780,460,cs),
(804,460,o),
(820,444,o),
(820,420,cs),
(820,396,o),
(804,380,o),
(780,380,cs)
);
}
);
width = 920;
}
);
metricLeft = "ca-tamil";
metricRight = "ca-tamil";
},
{
glyphname = "sh_ra_iiMatra-tamil";
layers = (
{
anchors = (
{
name = imatra;
pos = (829,600);
},
{
name = top;
pos = (450,600);
}
);
layerId = "E2153A70-07D4-4910-8E8C-7A6B98FF4FD7";
shapes = (
{
closed = 1;
nodes = (
(602,-160,ls),
(690,-160,o),
(850,-98,o),
(850,147,cs),
(850,264,o),
(830,337,o),
(731,337,cs),
(705,337,o),
(685,330,o),
(670,310,c),
(670,580,l),
(760,580,l),
(760,620,l),
(669,620,l),
(669,708,ls),
(669,753,o),
(696,780,o),
(741,780,cs),
(757,780,ls),
(802,780,o),
(829,771,o),
(829,688,c),
(869,688,l),
(869,795,o),
(821,820,o),
(757,820,cs),
(741,820,ls),
(677,820,o),
(629,772,o),
(629,708,cs),
(629,620,l),
(572,620,ls),
(536,620,o),
(504,606,o),
(482,582,c),
(470,605,o),
(447,620,o),
(415,620,cs),
(371,620,o),
(340,589,o),
(340,549,cs),
(340,20,l),
(180,20,l),
(180,620,l),
(140,620,l),
(140,-20,l),
(380,-20,l),
(380,539,ls),
(380,560,o),
(390,580,o),
(415,580,cs),
(440,580,o),
(450,560,o),
(450,539,cs),
(450,-20,l),
(490,-20,l),
(490,498,ls),
(490,549,o),
(521,580,o),
(572,580,cs),
(630,580,l),
(630,140,l),
(670,140,l),
(670,232,ls),
(670,272,o),
(683,297,o),
(731,297,cs),
(790,297,o),
(810,264,o),
(810,147,cs),
(810,-79,o),
(670,-120,o),
(602,-120,cs),
(203,-120,ls),
(123,-120,o),
(70,-67,o),
(70,13,cs),
(70,470,l),
(30,470,l),
(30,13,ls),
(30,-86,o),
(104,-160,o),
(203,-160,cs)
);
},
{
closed = 1;
nodes = (
(837,618,o),
(869,650,o),
(869,688,cs),
(869,726,o),
(837,758,o),
(799,758,cs),
(761,758,o),
(729,726,o),
(729,688,cs),
(729,650,o),
(761,618,o),
(799,618,cs)
);
},
{
closed = 1;
nodes = (
(780,658,o),
(769,669,o),
(769,688,cs),
(769,707,o),
(780,718,o),
(799,718,cs),
(818,718,o),
(829,707,o),
(829,688,cs),
(829,669,o),
(818,658,o),
(799,658,cs)
);
}
);
width = 899;
}
);
metricLeft = "ca-tamil";
metricRight = "ca-tamil";
},
{
glyphname = "a-tamil";
layers = (
{
layerId = "E2153A70-07D4-4910-8E8C-7A6B98FF4FD7";
shapes = (
{
closed = 1;
nodes = (
(290,-20,o),
(350,40,o),
(350,122,cs),
(350,230,l),
(390,230,l),
(390,-20,l),
(430,-20,l),
(430,450,l),
(390,450,l),
(390,270,l),
(350,270,l),
(350,478,ls),
(350,560,o),
(290,620,o),
(190,620,cs),
(90,620,o),
(30,560,o),
(30,478,cs),
(30,386,ls),
(30,329,o),
(71,284,o),
(125,284,cs),
(181,284,o),
(220,329,o),
(220,386,cs),
(220,422,ls),
(220,479,o),
(179,524,o),
(125,524,cs),
(101,524,o),
(75,511,o),
(66,486,c),
(66,537,o),
(123,580,o),
(190,580,cs),
(271,580,o),
(310,541,o),
(310,478,cs),
(310,270,l),
(30,270,l),
(30,122,ls),
(30,40,o),
(90,-20,o),
(190,-20,cs)
);
},
{
closed = 1;
nodes = (
(70,230,l),
(310,230,l),
(310,122,ls),
(310,59,o),
(271,20,o),
(190,20,cs),
(109,20,o),
(70,59,o),
(70,122,cs)
);
},
{
closed = 1;
nodes = (
(70,422,ls),
(70,461,o),
(91,484,o),
(125,484,cs),
(159,484,o),
(180,461,o),
(180,422,cs),
(180,386,ls),
(180,347,o),
(160,324,o),
(125,324,cs),
(91,324,o),
(70,347,o),
(70,386,cs)
);
}
);
width = 460;
}
);
metricLeft = "ca-tamil";
metricRight = "ca-tamil";
unicode = 2949;
},
{
glyphname = "aa-tamil";
layers = (
{
layerId = "E2153A70-07D4-4910-8E8C-7A6B98FF4FD7";
shapes = (
{
closed = 1;
nodes = (
(363,-230,o),
(395,-198,o),
(395,-160,cs),
(395,-122,o),
(363,-90,o),
(325,-90,cs),
(287,-90,o),
(255,-122,o),
(255,-160,cs),
(255,-198,o),
(287,-230,o),
(325,-230,cs)
);
},
{
closed = 1;
nodes = (
(306,-190,o),
(295,-179,o),
(295,-160,cs),
(295,-141,o),
(306,-130,o),
(325,-130,cs),
(344,-130,o),
(355,-141,o),
(355,-160,cs),
(355,-179,o),
(344,-190,o),
(325,-190,cs)
);
},
{
closed = 1;
nodes = (
(418,-230,ls),
(500,-230,o),
(560,-170,o),
(560,-88,cs),
(560,-32,ls),
(560,26,o),
(512,69,o),
(450,69,cs),
(420,69,l),
(420,29,l),
(448,29,ls),
(494,31,o),
(520,6,o),
(520,-32,cs),
(520,-88,ls),
(520,-151,o),
(481,-190,o),
(418,-190,cs),
(345,-190,ls),
(332,-190,o),
(325,-197,o),
(325,-210,cs),
(325,-223,o),
(332,-230,o),
(345,-230,cs)
);
},
{
closed = 1;
nodes = (
(290,-20,o),
(350,40,o),
(350,122,cs),
(350,230,l),
(390,230,l),
(390,-20,l),
(430,-20,l),
(430,450,l),
(390,450,l),
(390,270,l),
(350,270,l),
(350,478,ls),
(350,560,o),
(290,620,o),
(190,620,cs),
(90,620,o),
(30,560,o),
(30,478,cs),
(30,386,ls),
(30,329,o),
(71,284,o),
(125,284,cs),
(181,284,o),
(220,329,o),
(220,386,cs),
(220,422,ls),
(220,479,o),
(179,524,o),
(125,524,cs),
(101,524,o),
(75,511,o),
(66,486,c),
(66,537,o),
(123,580,o),
(190,580,cs),
(271,580,o),
(310,541,o),
(310,478,cs),
(310,270,l),
(30,270,l),
(30,122,ls),
(30,40,o),
(90,-20,o),
(190,-20,cs)
);
},
{
closed = 1;
nodes = (
(70,230,l),
(310,230,l),
(310,122,ls),
(310,59,o),
(271,20,o),
(190,20,cs),
(109,20,o),
(70,59,o),
(70,122,cs)
);
},
{
closed = 1;
nodes = (
(70,422,ls),
(70,461,o),
(91,484,o),
(125,484,cs),
(159,484,o),
(180,461,o),
(180,422,cs),
(180,386,ls),
(180,347,o),
(160,324,o),
(125,324,cs),
(91,324,o),
(70,347,o),
(70,386,cs)
);
}
);
width = 590;
}
);
metricLeft = "ca-tamil";
unicode = 2950;
},
{
glyphname = "i-tamil";
lastChange = "2023-04-29 09:46:56 +0000";
layers = (
{
layerId = "E2153A70-07D4-4910-8E8C-7A6B98FF4FD7";
shapes = (
{
closed = 1;
nodes = (
(568,-20,ls),
(650,-20,o),
(710,40,o),
(710,152,c),
(710,270,l),
(600,270,l),
(600,448,ls),
(600,562,o),
(517,620,o),
(410,620,cs),
(300,620,o),
(230,560,o),
(230,458,cs),
(230,386,ls),
(230,329,o),
(270,284,o),
(325,284,cs),
(381,284,o),
(420,329,o),
(420,386,cs),
(420,422,ls),
(420,479,o),
(380,524,o),
(325,524,cs),
(307,524,o),
(271,516,o),
(264,486,c),
(271,552,o),
(343,580,o),
(410,580,cs),
(493,580,o),
(560,538,o),
(560,448,cs),
(560,270,l),
(180,270,l),
(180,444,ls),
(180,629,o),
(294,690,o),
(420,690,cs),
(536,690,o),
(660,628,o),
(660,444,cs),
(660,360,l),
(700,360,l),
(700,444,ls),
(700,656,o),
(548,730,o),
(420,730,cs),
(282,730,o),
(140,655,o),
(140,444,cs),
(140,270,l),
(30,270,l),
(30,152,l),
(30,40,o),
(90,-20,o),
(172,-20,cs)
);
},
{
closed = 1;
nodes = (
(109,20,o),
(70,59,o),
(70,152,cs),
(70,230,l),
(140,230,l),
(140,172,ls),
(140,105,o),
(155,53,o),
(186,20,c),
(172,20,ls)
);
},
{
closed = 1;
nodes = (
(212,20,o),
(180,67,o),
(180,172,cs),
(180,230,l),
(560,230,l),
(560,172,ls),
(560,67,o),
(528,20,o),
(458,20,cs),
(292,20,ls)
);
},
{
closed = 1;
nodes = (
(291,324,o),
(270,347,o),
(270,386,cs),
(270,422,ls),
(270,461,o),
(291,484,o),
(325,484,cs),
(359,484,o),
(380,461,o),
(380,422,cs),
(380,386,ls),
(380,346,o),
(360,324,o),
(325,324,cs)
);
},
{
closed = 1;
nodes = (
(585,53,o),
(600,105,o),
(600,172,cs),
(600,230,l),
(670,230,l),
(670,152,ls),
(670,59,o),
(631,20,o),
(568,20,cs),
(556,20,l)
);
}
);
width = 740;
}
);
metricLeft = "ca-tamil";
metricRight = "ca-tamil";
unicode = 2951;
},
{
glyphname = "ii-tamil";
layers = (
{
layerId = "E2153A70-07D4-4910-8E8C-7A6B98FF4FD7";
shapes = (
{
closed = 1;
nodes = (
(30,0,o),
(70,0,o),
(70,0,cs),
(70,580,l),
(300,580,l),
(300,0,ls),
(300,0,o),
(340,0,o),
(340,0,cs),
(340,600,ls),
(340,613,o),
(333,620,o),
(320,620,cs),
(30,620,l),
(30,0,l)
);
},
{
closed = 1;
nodes = (
(223,230,o),
(255,262,o),
(255,300,cs),
(255,338,o),
(223,370,o),
(185,370,cs),
(147,370,o),
(115,338,o),
(115,300,cs),
(115,262,o),
(147,230,o),
(185,230,cs)
);
},
{
closed = 1;
nodes = (
(166,270,o),
(155,281,o),
(155,300,cs),
(155,319,o),
(166,330,o),
(185,330,cs),
(204,330,o),
(215,319,o),
(215,300,cs),
(215,281,o),
(204,270,o),
(185,270,cs)
);
},
{
closed = 1;
nodes = (
(468,230,o),
(500,262,o),
(500,300,cs),
(500,338,o),
(468,370,o),
(430,370,cs),
(392,370,o),
(360,338,o),
(360,300,cs),
(360,262,o),
(392,230,o),
(430,230,cs)
);
},
{
closed = 1;
nodes = (
(411,270,o),
(400,281,o),
(400,300,cs),
(400,319,o),
(411,330,o),
(430,330,cs),
(449,330,o),
(460,319,o),
(460,300,cs),
(460,281,o),
(449,270,o),
(430,270,cs)
);
},
{
closed = 1;
nodes = (
(440,580,ls),
(440,580,o),
(440,587,o),
(440,600,cs),
(440,613,o),
(440,620,o),
(440,620,cs),
(320,620,l),
(320,580,l)
);
}
);
width = 530;
}
);
metricLeft = "ca-tamil";
metricRight = "ca-tamil";
unicode = 2952;
},
{
glyphname = "u-tamil";
layers = (
{
layerId = "E2153A70-07D4-4910-8E8C-7A6B98FF4FD7";
shapes = (
{
closed = 1;
nodes = (
(470,-20,l),
(470,20,l),
(110,20,ls),
(89,20,o),
(79,30,o),
(79,50,cs),
(79,70,o),
(89,80,o),
(110,80,cs),
(198,80,ls),
(280,80,o),
(340,140,o),
(340,222,cs),
(340,478,ls),
(340,560,o),
(280,620,o),
(198,620,cs),
(172,620,ls),
(90,620,o),
(30,560,o),
(30,478,cs),
(30,238,ls),
(30,181,o),
(71,136,o),
(125,136,cs),
(181,136,o),
(220,181,o),
(220,238,cs),
(220,274,ls),
(220,331,o),
(179,375,o),
(125,375,cs),
(101,375,o),
(75,362,o),
(66,337,c),
(66,478,ls),
(66,541,o),
(109,580,o),
(172,580,cs),
(198,580,ls),
(261,580,o),
(300,541,o),
(300,478,cs),
(300,222,ls),
(300,159,o),
(261,120,o),
(198,120,cs),
(110,120,ls),
(70,120,o),
(39,90,o),
(39,50,cs),
(39,10,o),
(70,-20,o),
(110,-20,cs)
);
},
{
closed = 1;
nodes = (
(70,274,ls),
(70,313,o),
(91,336,o),
(125,336,cs),
(159,336,o),
(180,313,o),
(180,274,cs),
(180,238,ls),
(180,199,o),
(160,176,o),
(125,176,cs),
(91,176,o),
(70,199,o),
(70,238,cs)
);
}
);
width = 500;
}
);
metricLeft = "ca-tamil";
metricRight = "ca-tamil";
unicode = 2953;
},
{
glyphname = "uu-tamil";
layers = (
{
layerId = "E2153A70-07D4-4910-8E8C-7A6B98FF4FD7";
shapes = (
{
closed = 1;
nodes = (
(380,79,o),
(432,40,o),
(485,40,cs),
(529,40,o),
(562,76,o),
(562,122,cs),
(562,149,ls),
(562,194,o),
(529,230,o),
(485,230,cs),
(462,230,o),
(420,222,o),
(420,151,c),
(420,419,ls),
(420,464,o),
(446,490,o),
(492,490,cs),
(510,490,ls),
(553,490,o),
(581,465,o),
(580,415,cs),
(575,230,l),
(620,230,l),
(620,490,l),
(715,490,l),
(715,40,l),
(755,40,l),
(755,490,l),
(785,490,l),
(785,530,l),
(580,530,l),
(580,506,l),
(561,522,o),
(537,530,o),
(510,530,cs),
(492,530,ls),
(427,530,o),
(380,483,o),
(380,419,cs),
(380,152,ls)
);
},
{
closed = 1;
nodes = (
(30,181,o),
(71,136,o),
(125,136,cs),
(181,136,o),
(220,181,o),
(220,238,cs),
(220,274,ls),
(220,331,o),
(179,375,o),
(125,375,cs),
(101,375,o),
(75,362,o),
(66,337,c),
(66,478,ls),
(66,541,o),
(109,580,o),
(172,580,cs),
(198,580,ls),
(261,580,o),
(300,541,o),
(300,478,cs),
(300,222,ls),
(300,159,o),
(261,120,o),
(198,120,cs),
(110,120,ls),
(70,120,o),
(39,90,o),
(39,50,cs),
(39,10,o),
(70,-20,o),
(110,-20,cs),
(785,-20,l),
(785,20,l),
(110,20,ls),
(89,20,o),
(79,30,o),
(79,50,cs),
(79,70,o),
(89,80,o),
(110,80,cs),
(198,80,ls),
(280,80,o),
(340,140,o),
(340,222,cs),
(340,478,ls),
(340,560,o),
(280,620,o),
(198,620,cs),
(172,620,ls),
(90,620,o),
(30,560,o),
(30,478,cs),
(30,238,ls)
);
},
{
closed = 1;
nodes = (
(70,274,ls),
(70,313,o),
(91,336,o),
(125,336,cs),
(159,336,o),
(180,313,o),
(180,274,cs),
(180,238,ls),
(180,199,o),
(160,176,o),
(125,176,cs),
(91,176,o),
(70,199,o),
(70,238,cs)
);
},
{
closed = 1;
nodes = (
(449,149,ls),
(449,176,o),
(462,190,o),
(485,190,cs),
(509,190,o),
(522,176,o),
(522,149,cs),
(522,122,ls),
(522,94,o),
(509,80,o),
(485,80,cs),
(462,80,o),
(449,94,o),
(449,122,cs)
);
}
);
width = 815;
}
);
metricLeft = "ca-tamil";
metricRight = "ca-tamil";
unicode = 2954;
},
{
glyphname = "e-tamil";
layers = (
{
layerId = "E2153A70-07D4-4910-8E8C-7A6B98FF4FD7";
shapes = (
{
closed = 1;
nodes = (
(390,0,l),
(390,580,l),
(490,580,l),
(490,620,l),
(254,620,ls),
(125,620,o),
(30,525,o),
(30,396,cs),
(30,195,l),
(30,195,o),
(30,194,o),
(30,194,c),
(30,192,l),
(30,148,ls),
(30,82,o),
(77,30,o),
(140,30,cs),
(205,30,o),
(250,82,o),
(250,148,cs),
(250,192,ls),
(250,258,o),
(203,310,o),
(139,310,cs),
(105,310,o),
(79,297,o),
(70,272,c),
(70,396,ls),
(70,506,o),
(144,580,o),
(254,580,cs),
(350,580,l),
(350,0,l)
);
},
{
closed = 1;
nodes = (
(70,192,ls),
(70,240,o),
(97,270,o),
(140,270,cs),
(183,270,o),
(210,240,o),
(210,192,cs),
(210,148,ls),
(210,100,o),
(184,70,o),
(140,70,cs),
(97,70,o),
(70,100,o),
(70,148,cs)
);
}
);
width = 530;
}
);
metricLeft = "ca-tamil";
unicode = 2958;
},
{
glyphname = "ee-tamil";
layers = (
{
layerId = "E2153A70-07D4-4910-8E8C-7A6B98FF4FD7";
shapes = (
{
closed = 1;
nodes = (
(177,-300,l),
(217,-300,l),
(390,0,l),
(350,0,l)
);
},
{
closed = 1;
nodes = (
(390,0,l),
(390,580,l),
(490,580,l),
(490,620,l),
(254,620,ls),
(125,620,o),
(30,525,o),
(30,396,cs),
(30,195,l),
(30,195,o),
(30,194,o),
(30,194,c),
(30,192,l),
(30,148,ls),
(30,82,o),
(77,30,o),
(140,30,cs),
(205,30,o),
(250,82,o),
(250,148,cs),
(250,192,ls),
(250,258,o),
(203,310,o),
(139,310,cs),
(105,310,o),
(79,297,o),
(70,272,c),
(70,396,ls),
(70,506,o),
(144,580,o),
(254,580,cs),
(350,580,l),
(350,0,l)
);
},
{
closed = 1;
nodes = (
(70,192,ls),
(70,240,o),
(97,270,o),
(140,270,cs),
(183,270,o),
(210,240,o),
(210,192,cs),
(210,148,ls),
(210,100,o),
(184,70,o),
(140,70,cs),
(97,70,o),
(70,100,o),
(70,148,cs)
);
}
);
width = 520;
}
);
metricLeft = "ca-tamil";
metricRight = "ca-tamil";
unicode = 2959;
},
{
glyphname = "ai-tamil";
layers = (
{
layerId = "E2153A70-07D4-4910-8E8C-7A6B98FF4FD7";
shapes = (
{
closed = 1;
nodes = (
(174,-20,ls),
(220,-20,o),
(258,4,o),
(280,42,c),
(302,4,o),
(339,-20,o),
(384,-20,cs),
(405,-20,ls),
(476,-20,o),
(529,37,o),
(529,127,cs),
(529,154,ls),
(529,208,o),
(495,251,o),
(444,251,cs),
(422,251,l),
(422,211,l),
(444,211,ls),
(473,211,o),
(489,191,o),
(489,154,cs),
(489,127,ls),
(489,56,o),
(455,20,o),
(405,20,cs),
(384,20,ls),
(339,20,o),
(307,51,o),
(301,102,cs),
(301,105,o),
(300,107,o),
(300,109,cs),
(300,121,l),
(300,172,l),
(260,172,l),
(260,121,ls),
(260,58,o),
(226,20,o),
(174,20,cs),
(153,20,ls),
(104,20,o),
(70,55,o),
(70,126,cs),
(70,174,o),
(88,184,o),
(133,199,cs),
(424,294,ls),
(486,314,o),
(529,375,o),
(529,450,cs),
(529,473,ls),
(529,563,o),
(476,620,o),
(405,620,cs),
(384,620,ls),
(339,620,o),
(301,596,o),
(280,558,c),
(258,597,o),
(220,620,o),
(176,620,cs),
(154,620,ls),
(82,620,o),
(30,559,o),
(30,478,cs),
(30,417,ls),
(30,339,o),
(85,273,o),
(149,275,cs),
(202,276,o),
(241,321,o),
(241,378,cs),
(241,414,ls),
(241,471,o),
(200,516,o),
(146,516,cs),
(70,516,o),
(67,446,o),
(67,402,c),
(67,478,ls),
(67,542,o),
(100,580,o),
(151,580,cs),
(176,580,ls),
(226,580,o),
(260,544,o),
(260,473,cs),
(260,371,l),
(300,371,l),
(300,478,ls),
(300,542,o),
(333,580,o),
(384,580,cs),
(405,580,ls),
(455,580,o),
(489,544,o),
(489,473,cs),
(489,450,ls),
(489,389,o),
(460,348,o),
(412,332,cs),
(121,237,ls),
(70,220,o),
(30,198,o),
(30,126,cs),
(30,36,o),
(84,-20,o),
(153,-20,cs)
);
},
{
closed = 1;
nodes = (
(91,414,ls),
(91,453,o),
(112,476,o),
(146,476,cs),
(180,476,o),
(201,453,o),
(201,414,cs),
(201,378,ls),
(201,339,o),
(181,316,o),
(146,316,cs),
(112,316,o),
(91,339,o),
(91,378,cs)
);
}
);
width = 559;
}
);
metricLeft = "ca-tamil";
metricRight = "ca-tamil";
unicode = 2960;
},
{
glyphname = "o-tamil";
layers = (
{
layerId = "E2153A70-07D4-4910-8E8C-7A6B98FF4FD7";
shapes = (
{
closed = 1;
nodes = (
(460,117,l),
(460,416,ls),
(460,533,o),
(373,620,o),
(256,620,cs),
(234,620,ls),
(117,620,o),
(30,533,o),
(30,416,cs),
(30,294,l),
(30,294,o),
(30,294,o),
(30,293,cs),
(30,292,l),
(30,256,ls),
(30,199,o),
(71,154,o),
(125,154,cs),
(181,154,o),
(220,199,o),
(220,256,cs),
(220,292,ls),
(220,349,o),
(179,394,o),
(125,394,cs),
(101,394,o),
(75,381,o),
(66,356,c),
(66,416,ls),
(66,514,o),
(136,580,o),
(234,580,cs),
(256,580,ls),
(354,580,o),
(420,514,o),
(420,416,cs),
(420,157,l),
(340,157,l),
(340,227,l),
(300,227,l),
(300,92,ls),
(300,44,o),
(328,4,o),
(369,-12,c),
(344,-35,o),
(329,-68,o),
(329,-106,cs),
(329,-159,o),
(296,-193,o),
(244,-193,cs),
(199,-193,o),
(159,-167,o),
(159,-86,c),
(119,-86,l),
(119,-188,o),
(180,-233,o),
(244,-233,cs),
(315,-233,o),
(369,-178,o),
(369,-106,cs),
(369,-60,o),
(393,-21,o),
(434,-21,cs),
(453,-21,l),
(453,19,l),
(422,19,ls),
(368,19,o),
(340,48,o),
(340,92,cs),
(340,117,l)
);
},
{
closed = 1;
nodes = (
(70,292,ls),
(70,331,o),
(91,354,o),
(125,354,cs),
(159,354,o),
(180,331,o),
(180,292,cs),
(180,256,ls),
(180,217,o),
(160,194,o),
(125,194,cs),
(91,194,o),
(70,217,o),
(70,256,cs)
);
}
);
width = 490;
}
);
metricLeft = "ca-tamil";
metricRight = "ca-tamil";
unicode = 2962;
},
{
glyphname = "oo-tamil";
layers = (
{
layerId = "E2153A70-07D4-4910-8E8C-7A6B98FF4FD7";
shapes = (
{
closed = 1;
nodes = (
(460,117,l),
(460,416,ls),
(460,533,o),
(373,620,o),
(256,620,cs),
(234,620,ls),
(117,620,o),
(30,533,o),
(30,416,c),
(30,256,l),
(30,199,o),
(71,154,o),
(125,154,cs),
(181,154,o),
(220,199,o),
(220,256,cs),
(220,292,ls),
(220,349,o),
(179,394,o),
(125,394,cs),
(101,394,o),
(75,381,o),
(66,356,c),
(66,416,ls),
(66,514,o),
(136,580,o),
(234,580,cs),
(256,580,ls),
(354,580,o),
(420,514,o),
(420,416,cs),
(420,157,l),
(340,157,l),
(340,227,l),
(300,227,l),
(300,92,ls),
(300,44,o),
(328,4,o),
(369,-12,c),
(344,-35,o),
(329,-68,o),
(329,-106,cs),
(329,-159,o),
(296,-193,o),
(244,-193,cs),
(215,-193,o),
(189,-183,o),
(173,-154,c),
(178,-155,o),
(184,-156,o),
(189,-156,cs),
(227,-156,o),
(259,-124,o),
(259,-86,cs),
(259,-48,o),
(227,-16,o),
(189,-16,cs),
(151,-16,o),
(119,-48,o),
(119,-86,cs),
(119,-188,o),
(180,-233,o),
(244,-233,cs),
(315,-233,o),
(369,-178,o),
(369,-106,cs),
(369,-60,o),
(393,-21,o),
(434,-21,cs),
(453,-21,l),
(453,19,l),
(422,19,ls),
(368,19,o),
(340,48,o),
(340,92,cs),
(340,117,l)
);
},
{
closed = 1;
nodes = (
(70,292,ls),
(70,331,o),
(91,354,o),
(125,354,cs),
(159,354,o),
(180,331,o),
(180,292,cs),
(180,256,ls),
(180,217,o),
(160,194,o),
(125,194,cs),
(91,194,o),
(70,217,o),
(70,256,cs)
);
},
{
closed = 1;
nodes = (
(159,-67,o),
(170,-56,o),
(189,-56,cs),
(208,-56,o),
(219,-67,o),
(219,-86,cs),
(219,-105,o),
(208,-116,o),
(189,-116,cs),
(170,-116,o),
(159,-105,o),
(159,-86,cs)
);
}
);
width = 490;
}
);
metricLeft = "ca-tamil";
metricRight = "ca-tamil";
unicode = 2963;
},
{
glyphname = "au-tamil";
layers = (
{
layerId = "E2153A70-07D4-4910-8E8C-7A6B98FF4FD7";
shapes = (
{
closed = 1;
nodes = (
(728,-20,o),
(767,25,o),
(767,82,cs),
(767,118,ls),
(767,175,o),
(726,220,o),
(672,220,cs),
(618,220,o),
(577,175,o),
(577,118,cs),
(577,82,l),
(577,80,l),
(572,92,o),
(570,106,o),
(570,122,cs),
(570,478,ls),
(570,541,o),
(609,580,o),
(672,580,cs),
(696,580,ls),
(756,580,o),
(797,543,o),
(797,473,cs),
(797,180,l),
(837,180,l),
(837,580,l),
(977,580,l),
(977,-20,l),
(1017,-20,l),
(1017,580,l),
(1117,580,l),
(1117,620,l),
(797,620,l),
(797,579,l),
(771,605,o),
(736,620,o),
(696,620,cs),
(672,620,ls),
(590,620,o),
(530,560,o),
(530,478,cs),
(530,122,ls),
(530,40,o),
(591,-20,o),
(672,-20,cs)
);
},
{
closed = 1;
nodes = (
(30,199,o),
(71,154,o),
(125,154,cs),
(181,154,o),
(220,199,o),
(220,256,cs),
(220,292,ls),
(220,349,o),
(179,394,o),
(125,394,cs),
(101,394,o),
(75,381,o),
(66,356,c),
(66,416,ls),
(66,514,o),
(136,580,o),
(234,580,cs),
(256,580,ls),
(354,580,o),
(420,514,o),
(420,416,cs),
(420,157,l),
(340,157,l),
(340,227,l),
(300,227,l),
(300,92,ls),
(300,44,o),
(328,4,o),
(369,-12,c),
(344,-35,o),
(329,-68,o),
(329,-106,cs),
(329,-159,o),
(296,-193,o),
(244,-193,cs),
(199,-193,o),
(159,-167,o),
(159,-86,c),
(119,-86,l),
(119,-188,o),
(180,-233,o),
(244,-233,cs),
(315,-233,o),
(369,-178,o),
(369,-106,cs),
(369,-60,o),
(393,-21,o),
(434,-21,cs),
(453,-21,l),
(453,19,l),
(422,19,ls),
(368,19,o),
(340,48,o),
(340,92,cs),
(340,117,l),
(460,117,l),
(460,416,ls),
(460,533,o),
(373,620,o),
(256,620,cs),
(234,620,ls),
(117,620,o),
(30,533,o),
(30,416,cs),
(30,294,l),
(30,294,o),
(30,294,o),
(30,293,cs),
(30,292,l),
(30,256,ls)
);
},
{
closed = 1;
nodes = (
(70,292,ls),
(70,331,o),
(91,354,o),
(125,354,cs),
(159,354,o),
(180,331,o),
(180,292,cs),
(180,256,ls),
(180,217,o),
(160,194,o),
(125,194,cs),
(91,194,o),
(70,217,o),
(70,256,cs)
);
},
{
closed = 1;
nodes = (
(617,118,ls),
(617,157,o),
(638,180,o),
(672,180,cs),
(706,180,o),
(727,157,o),
(727,118,cs),
(727,82,ls),
(727,43,o),
(707,20,o),
(672,20,cs),
(638,20,o),
(617,43,o),
(617,82,cs)
);
}
);
width = 1147;
}
);
metricLeft = "ca-tamil";
metricRight = "ca-tamil";
unicode = 2964;
},
{
glyphname = "ka-tamil";
layers = (
{
anchors = (
{
name = imatra;
pos = (270,600);
},
{
name = top;
pos = (250,600);
}
);
layerId = "E2153A70-07D4-4910-8E8C-7A6B98FF4FD7";
shapes = (
{
closed = 1;
nodes = (
(177,-20,o),
(202,-12,o),
(221,2,c),
(249,-15,o),
(276,-20,o),
(300,-20,cs),
(400,-20,o),
(430,72,o),
(430,175,cs),
(430,279,o),
(400,370,o),
(290,370,cs),
(270,370,l),
(270,580,l),
(380,580,l),
(380,620,l),
(110,620,l),
(110,365,l),
(65,350,o),
(30,305,o),
(30,248,cs),
(30,102,ls),
(30,32,o),
(81,-20,o),
(150,-20,cs)
);
},
{
closed = 1;
nodes = (
(100,20,o),
(70,51,o),
(70,102,cs),
(70,248,ls),
(70,299,o),
(101,330,o),
(142,330,cs),
(230,330,l),
(230,102,ls),
(230,51,o),
(200,20,o),
(150,20,cs)
);
},
{
closed = 1;
nodes = (
(283,20,o),
(267,23,o),
(250,32,c),
(263,51,o),
(270,75,o),
(270,102,cs),
(270,330,l),
(290,330,ls),
(370,330,o),
(390,270,o),
(390,175,cs),
(390,80,o),
(370,20,o),
(300,20,cs)
);
},
{
closed = 1;
nodes = (
(150,580,l),
(230,580,l),
(230,370,l),
(150,370,l)
);
}
);
width = 460;
}
);
metricLeft = "ca-tamil";
metricRight = "ca-tamil";
unicode = 2965;
},
{
glyphname = "nga-tamil";
layers = (
{
anchors = (
{
name = imatra;
pos = (230,600);
},
{
name = top;
pos = (230,600);
}
);
layerId = "E2153A70-07D4-4910-8E8C-7A6B98FF4FD7";
shapes = (
{
closed = 1;
nodes = (
(259,-22,l),
(530,-20,l),
(530,450,l),
(530,450,o),
(490,450,o),
(490,450,cs),
(490,20,l),
(369,19,l),
(415,46,o),
(430,88,o),
(430,185,cs),
(430,310,o),
(397,365,o),
(321,365,cs),
(284,365,o),
(255,346,o),
(250,318,c),
(250,580,l),
(380,580,l),
(380,620,l),
(30,620,l),
(30,-20,l),
(30,-20,o),
(70,-20,o),
(70,-20,cs),
(70,580,l),
(210,580,l),
(210,130,ls),
(210,130,o),
(250,130,o),
(250,130,cs),
(250,260,ls),
(250,302,o),
(272,325,o),
(311,325,cs),
(370,325,o),
(390,290,o),
(390,185,cs),
(390,69,o),
(368,20,o),
(252,18,c),
(252,-22,l)
);
}
);
width = 560;
}
);
metricLeft = "ca-tamil";
metricRight = "ca-tamil";
unicode = 2969;
},
{
glyphname = "ca-tamil";
lastChange = "2023-04-29 09:46:56 +0000";
layers = (
{
anchors = (
{
name = imatra;
pos = (270,600);
},
{
name = top;
pos = (249,600);
}
);
layerId = "E2153A70-07D4-4910-8E8C-7A6B98FF4FD7";
shapes = (
{
closed = 1;
nodes = (
(219,-20,o),
(270,32,o),
(270,102,cs),
(270,330,l),
(380,330,l),
(380,370,l),
(270,370,l),
(270,580,l),
(380,580,l),
(380,620,l),
(110,620,l),
(110,365,l),
(65,350,o),
(30,305,o),
(30,248,cs),
(30,102,ls),
(30,32,o),
(81,-20,o),
(150,-20,cs)
);
},
{
closed = 1;
nodes = (
(100,20,o),
(70,51,o),
(70,102,cs),
(70,248,ls),
(70,299,o),
(101,330,o),
(142,330,cs),
(230,330,l),
(230,102,ls),
(230,51,o),
(200,20,o),
(150,20,cs)
);
},
{
closed = 1;
nodes = (
(150,580,l),
(230,580,l),
(230,370,l),
(150,370,l)
);
}
);
width = 410;
}
);
unicode = 2970;
},
{
glyphname = "ja-tamil";
layers = (
{
anchors = (
{
name = imatra;
pos = (397,600);
},
{
name = top;
pos = (280,600);
}
);
layerId = "E2153A70-07D4-4910-8E8C-7A6B98FF4FD7";
shapes = (
{
closed = 1;
nodes = (
(265,-21,o),
(291,60,o),
(308,108,cs),
(329,165,o),
(348,218,o),
(420,218,cs),
(469,218,o),
(490,180,o),
(490,123,cs),
(490,52,o),
(457,20,o),
(409,20,cs),
(374,20,o),
(347,41,o),
(347,85,c),
(307,85,l),
(307,24,o),
(353,-20,o),
(409,-20,cs),
(476,-20,o),
(530,33,o),
(530,123,cs),
(530,193,o),
(495,258,o),
(420,258,cs),
(322,258,o),
(295,188,o),
(271,122,cs),
(244,51,o),
(232,19,o),
(165,19,cs),
(105,19,o),
(70,55,o),
(70,106,cs),
(70,167,o),
(89,196,o),
(153,214,cs),
(432,291,ls),
(498,309,o),
(530,376,o),
(530,450,cs),
(530,473,ls),
(530,563,o),
(475,620,o),
(396,620,cs),
(339,620,o),
(301,596,o),
(280,558,c),
(258,597,o),
(220,620,o),
(166,620,cs),
(82,620,o),
(30,559,o),
(30,478,cs),
(30,417,ls),
(30,336,o),
(83,275,o),
(155,275,cs),
(211,275,o),
(250,320,o),
(250,377,cs),
(250,413,ls),
(250,470,o),
(209,515,o),
(155,515,cs),
(113,515,o),
(65,496,o),
(65,396,c),
(65,478,ls),
(65,542,o),
(103,580,o),
(166,580,cs),
(225,580,o),
(260,544,o),
(260,473,cs),
(260,351,l),
(300,351,l),
(300,478,ls),
(300,542,o),
(333,580,o),
(396,580,cs),
(455,580,o),
(490,544,o),
(490,473,cs),
(490,450,ls),
(490,388,o),
(468,342,o),
(422,329,cs),
(143,252,ls),
(65,231,o),
(30,185,o),
(30,106,cs),
(30,36,o),
(85,-21,o),
(165,-21,cs)
);
},
{
closed = 1;
nodes = (
(100,413,ls),
(100,452,o),
(121,475,o),
(155,475,cs),
(189,475,o),
(210,452,o),
(210,413,cs),
(210,377,ls),
(210,338,o),
(190,315,o),
(155,315,cs),
(121,315,o),
(100,338,o),
(100,377,cs)
);
}
);
width = 560;
}
);
metricLeft = "ca-tamil";
metricRight = "ca-tamil";
unicode = 2972;
},
{
glyphname = "nya-tamil";
layers = (
{
anchors = (
{
name = imatra;
pos = (550,600);
},
{
name = top;
pos = (430,600);
}
);
layerId = "E2153A70-07D4-4910-8E8C-7A6B98FF4FD7";
shapes = (
{
closed = 1;
nodes = (
(490,260,ls),
(490,302,o),
(512,325,o),
(551,325,cs),
(610,325,o),
(630,288,o),
(630,186,cs),
(630,144,ls),
(629,-12,o),
(519,-120,o),
(364,-120,cs),
(336,-120,ls),
(179,-120,o),
(70,-11,o),
(70,146,cs),
(70,266,l),
(30,266,l),
(30,146,ls),
(30,-30,o),
(160,-160,o),
(336,-160,cs),
(364,-160,ls),
(537,-160,o),
(670,-34,o),
(670,137,cs),
(670,187,ls),
(670,310,o),
(637,365,o),
(561,365,cs),
(524,365,o),
(495,346,o),
(490,318,c),
(490,580,l),
(590,580,l),
(590,620,l),
(354,620,ls),
(225,620,o),
(130,525,o),
(130,396,cs),
(130,148,ls),
(130,82,o),
(177,30,o),
(240,30,cs),
(305,30,o),
(350,82,o),
(350,148,cs),
(350,192,ls),
(350,258,o),
(303,310,o),
(240,310,cs),
(213,310,o),
(182,302,o),
(170,264,c),
(170,396,ls),
(170,506,o),
(244,580,o),
(354,580,cs),
(450,580,l),
(450,30,l),
(490,30,l)
);
},
{
closed = 1;
nodes = (
(170,192,ls),
(170,240,o),
(197,270,o),
(240,270,cs),
(283,270,o),
(310,240,o),
(310,192,cs),
(310,148,ls),
(310,100,o),
(284,70,o),
(240,70,cs),
(197,70,o),
(170,100,o),
(170,148,cs)
);
}
);
width = 700;
}
);
metricLeft = "ca-tamil";
metricRight = "ca-tamil";
unicode = 2974;
},
{
glyphname = "tta-tamil";
layers = (
{
anchors = (
{
name = imatra;
pos = (200,0);
},
{
name = top;
pos = (200,600);
}
);
layerId = "E2153A70-07D4-4910-8E8C-7A6B98FF4FD7";
shapes = (
{
closed = 1;
nodes = (
(370,-20,l),
(370,20,l),
(70,20,l),
(70,620,l),
(30,620,l),
(30,-20,l)
);
}
);
width = 400;
}
);
metricLeft = "ca-tamil";
metricRight = "ca-tamil";
unicode = 2975;
},
{
glyphname = "nna-tamil";
layers = (
{
anchors = (
{
name = imatra;
pos = (810,600);
},
{
name = top;
pos = (458,600);
}
);
layerId = "E2153A70-07D4-4910-8E8C-7A6B98FF4FD7";
shapes = (
{
closed = 1;
nodes = (
(172,-20,o),
(172,20,o),
(172,20,cs),
(110,20,o),
(70,59,o),
(70,122,cs),
(70,416,ls),
(70,514,o),
(136,580,o),
(234,580,cs),
(316,580,l),
(301,561,o),
(292,538,o),
(292,511,cs),
(292,89,ls),
(292,27,o),
(338,-20,o),
(399,-20,cs),
(460,-20,o),
(507,27,o),
(507,89,cs),
(507,511,ls),
(507,538,o),
(499,561,o),
(484,580,c),
(556,580,l),
(541,561,o),
(532,538,o),
(532,511,cs),
(532,89,ls),
(532,27,o),
(578,-20,o),
(639,-20,cs),
(700,-20,o),
(747,27,o),
(747,89,cs),
(747,511,ls),
(747,538,o),
(739,561,o),
(724,580,c),
(790,580,l),
(790,-20,l),
(830,-20,l),
(830,580,l),
(930,580,l),
(930,620,l),
(234,620,ls),
(117,620,o),
(30,533,o),
(30,416,cs),
(30,122,ls),
(30,40,o),
(91,-20,o),
(172,-20,cs)
);
},
{
closed = 1;
nodes = (
(357,20,o),
(332,46,o),
(332,89,cs),
(332,511,ls),
(332,554,o),
(358,580,o),
(401,580,cs),
(442,580,o),
(467,554,o),
(467,511,cs),
(467,89,ls),
(467,46,o),
(441,20,o),
(399,20,cs)
);
},
{
closed = 1;
nodes = (
(597,20,o),
(572,46,o),
(572,89,cs),
(572,511,ls),
(572,554,o),
(598,580,o),
(641,580,cs),
(682,580,o),
(707,554,o),
(707,511,cs),
(707,89,ls),
(707,46,o),
(681,20,o),
(639,20,cs)
);
},
{
closed = 1;
nodes = (
(237,-20,o),
(282,32,o),
(282,98,cs),
(282,142,ls),
(282,208,o),
(235,260,o),
(172,260,cs),
(109,260,o),
(72,208,o),
(72,142,cs),
(72,98,ls),
(72,32,o),
(109,-20,o),
(172,-20,cs)
);
},
{
closed = 1;
nodes = (
(129,20,o),
(102,50,o),
(102,98,cs),
(102,142,ls),
(102,190,o),
(129,220,o),
(172,220,cs),
(215,220,o),
(242,190,o),
(242,142,cs),
(242,98,ls),
(242,50,o),
(216,20,o),
(172,20,cs)
);
}
);
width = 960;
}
);
metricLeft = "ca-tamil";
metricRight = "ca-tamil";
unicode = 2979;
},
{
glyphname = "ta-tamil";
lastChange = "2023-04-29 09:46:56 +0000";
layers = (
{
anchors = (
{
name = imatra;
pos = (251,600);
},
{
name = top;
pos = (250,600);
}
);
layerId = "E2153A70-07D4-4910-8E8C-7A6B98FF4FD7";
shapes = (
{
closed = 1;
nodes = (
(70,-300,o),
(70,-300,cs),
(70,-213,ls),
(70,-133,o),
(123,-80,o),
(203,-80,cs),
(251,-80,ls),
(374,-80,o),
(430,8,o),
(430,145,cs),
(430,288,o),
(382,370,o),
(271,370,c),
(271,580,l),
(381,580,l),
(381,620,l),
(111,620,l),
(111,365,l),
(66,350,o),
(31,305,o),
(31,248,cs),
(31,102,ls),
(31,32,o),
(82,-20,o),
(151,-20,cs),
(220,-20,o),
(271,32,o),
(271,102,cs),
(271,330,l),
(357,330,o),
(390,274,o),
(390,145,cs),
(390,22,o),
(350,-40,o),
(251,-40,cs),
(203,-40,ls),
(104,-40,o),
(30,-114,o),
(30,-213,cs),
(30,-300,ls),
(30,-300,o)
);
},
{
closed = 1;
nodes = (
(102,20,o),
(71,51,o),
(71,102,cs),
(71,248,ls),
(71,299,o),
(102,330,o),
(143,330,cs),
(231,330,l),
(231,102,ls),
(231,51,o),
(200,20,o),
(151,20,cs)
);
},
{
closed = 1;
nodes = (
(151,580,l),
(231,580,l),
(231,370,l),
(151,370,l)
);
}
);
width = 460;
}
);
metricLeft = "ca-tamil";
metricRight = "ca-tamil";
unicode = 2980;
},
{
glyphname = "na-tamil";
layers = (
{
anchors = (
{
name = bottom;
pos = (230,-300);
},
{
name = bottomright;
pos = (460,-300);
},
{
name = imatra;
pos = (230,600);
},
{
name = top;
pos = (230,600);
}
);
layerId = "E2153A70-07D4-4910-8E8C-7A6B98FF4FD7";
shapes = (
{
closed = 1;
nodes = (
(430,310,o),
(397,365,o),
(321,365,cs),
(284,365,o),
(255,346,o),
(250,318,c),
(250,580,l),
(380,580,l),
(380,620,l),
(30,620,l),
(30,-20,l),
(70,-20,l),
(70,580,l),
(210,580,l),
(210,130,l),
(250,130,l),
(250,260,ls),
(250,302,o),
(272,325,o),
(311,325,cs),
(370,325,o),
(390,288,o),
(390,185,cs),
(390,36,o),
(368,-32,o),
(252,-32,cs),
(203,-32,ls),
(104,-32,o),
(30,-106,o),
(30,-214,cs),
(30,-301,l),
(70,-301,l),
(70,-214,ls),
(70,-125,o),
(123,-72,o),
(203,-72,cs),
(252,-72,ls),
(393,-72,o),
(430,22,o),
(430,185,cs),
(430,186,ls)
);
}
);
width = 460;
}
);
metricLeft = "ca-tamil";
metricRight = "ca-tamil";
unicode = 2984;
},
{
glyphname = "nnna-tamil";
layers = (
{
anchors = (
{
name = imatra;
pos = (580,600);
},
{
name = top;
pos = (411,600);
}
);
layerId = "E2153A70-07D4-4910-8E8C-7A6B98FF4FD7";
shapes = (
{
closed = 1;
nodes = (
(172,-20,o),
(172,20,o),
(172,20,cs),
(110,20,o),
(70,59,o),
(70,122,cs),
(70,416,ls),
(70,514,o),
(136,580,o),
(234,580,cs),
(326,580,l),
(311,561,o),
(302,538,o),
(302,511,cs),
(302,89,ls),
(302,27,o),
(348,-20,o),
(409,-20,cs),
(470,-20,o),
(517,27,o),
(517,89,cs),
(517,511,ls),
(517,538,o),
(509,561,o),
(494,580,c),
(560,580,l),
(560,-20,l),
(600,-20,l),
(600,580,l),
(700,580,l),
(700,620,l),
(234,620,ls),
(117,620,o),
(30,533,o),
(30,416,cs),
(30,122,ls),
(30,40,o),
(91,-20,o),
(172,-20,cs)
);
},
{
closed = 1;
nodes = (
(367,20,o),
(342,46,o),
(342,89,cs),
(342,511,ls),
(342,554,o),
(368,580,o),
(411,580,cs),
(452,580,o),
(477,554,o),
(477,511,cs),
(477,89,ls),
(477,46,o),
(451,20,o),
(409,20,cs)
);
},
{
closed = 1;
nodes = (
(237,-20,o),
(282,32,o),
(282,98,cs),
(282,142,ls),
(282,208,o),
(235,260,o),
(172,260,cs),
(109,260,o),
(72,208,o),
(72,142,cs),
(72,98,ls),
(72,32,o),
(109,-20,o),
(172,-20,cs)
);
},
{
closed = 1;
nodes = (
(129,20,o),
(102,50,o),
(102,98,cs),
(102,142,ls),
(102,190,o),
(129,220,o),
(172,220,cs),
(215,220,o),
(242,190,o),
(242,142,cs),
(242,98,ls),
(242,50,o),
(216,20,o),
(172,20,cs)
);
}
);
width = 730;
}
);
metricLeft = "ca-tamil";
metricRight = "ca-tamil";
unicode = 2985;
},
{
glyphname = "pa-tamil";
layers = (
{
anchors = (
{
name = imatra;
pos = (350,600);
},
{
name = top;
pos = (200,600);
}
);
layerId = "E2153A70-07D4-4910-8E8C-7A6B98FF4FD7";
shapes = (
{
closed = 1;
nodes = (
(370,-20,l),
(370,620,l),
(330,620,l),
(330,20,l),
(70,20,l),
(70,620,l),
(30,620,l),
(30,173,o),
(30,-29,o),
(30,-20,cs)
);
}
);
width = 400;
}
);
metricLeft = "ca-tamil";
metricRight = "ca-tamil";
unicode = 2986;
},
{
glyphname = "ma-tamil";
lastChange = "2023-04-29 09:46:56 +0000";
layers = (
{
anchors = (
{
name = imatra;
pos = (313,600);
},
{
name = top;
pos = (225,600);
}
);
layerId = "E2153A70-07D4-4910-8E8C-7A6B98FF4FD7";
shapes = (
{
closed = 1;
nodes = (
(311,-20,ls),
(373,-20,o),
(420,27,o),
(420,89,cs),
(420,511,ls),
(420,573,o),
(374,620,o),
(313,620,cs),
(252,620,o),
(205,573,o),
(205,511,cs),
(205,20,l),
(70,20,l),
(70,620,l),
(30,620,l),
(30,-20,l)
);
},
{
closed = 1;
nodes = (
(245,511,ls),
(245,554,o),
(271,580,o),
(313,580,cs),
(354,580,o),
(380,554,o),
(380,511,cs),
(380,89,ls),
(380,46,o),
(354,20,o),
(311,20,cs),
(245,20,l)
);
}
);
width = 450;
}
);
metricLeft = "ca-tamil";
metricRight = "ca-tamil";
unicode = 2990;
},
{
glyphname = "ya-tamil";
lastChange = "2023-04-29 09:46:56 +0000";
layers = (
{
anchors = (
{
name = imatra;
pos = (410,600);
},
{
name = top;
pos = (230,600);
}
);
layerId = "E2153A70-07D4-4910-8E8C-7A6B98FF4FD7";
shapes = (
{
closed = 1;
nodes = (
(167,-20,o),
(191,-11,o),
(210,4,c),
(210,-20,l),
(430,-20,l),
(430,620,l),
(390,620,l),
(390,20,l),
(250,20,l),
(250,600,l),
(210,600,l),
(210,92,ls),
(210,47,o),
(184,20,o),
(140,20,cs),
(96,20,o),
(70,47,o),
(70,92,cs),
(70,620,l),
(30,620,l),
(30,92,ls),
(30,28,o),
(77,-20,o),
(140,-20,cs)
);
}
);
width = 460;
}
);
metricLeft = "ca-tamil";
metricRight = "ca-tamil";
unicode = 2991;
},
{
glyphname = "ra-tamil";
layers = (
{
anchors = (
{
name = imatra;
pos = (250,600);
},
{
name = top;
pos = (195,600);
}
);
layerId = "E2153A70-07D4-4910-8E8C-7A6B98FF4FD7";
shapes = (
{
closed = 1;
nodes = (
(230,0,o),
(270,0,o),
(270,0,cs),
(270,580,l),
(370,580,l),
(370,620,l),
(30,620,l),
(30,80,l),
(70,80,l),
(70,580,l),
(230,580,l),
(230,0,ls)
);
},
{
closed = 1;
nodes = (
(57,-300,l),
(97,-300,l),
(270,0,l),
(230,0,l)
);
}
);
width = 400;
}
);
metricLeft = "ca-tamil";
unicode = 2992;
},
{
glyphname = "rra-tamil";
lastChange = "2023-04-29 09:46:56 +0000";
layers = (
{
anchors = (
{
name = imatra;
pos = (311,601);
},
{
name = top;
pos = (230,600);
}
);
layerId = "E2153A70-07D4-4910-8E8C-7A6B98FF4FD7";
shapes = (
{
closed = 1;
nodes = (
(70,-301,l),
(70,-214,ls),
(70,-125,o),
(123,-72,o),
(203,-72,cs),
(252,-72,ls),
(393,-72,o),
(430,-8,o),
(430,225,cs),
(430,369,ls),
(430,507,o),
(424,621,o),
(311,621,cs),
(272,621,o),
(238,604,o),
(230,571,c),
(221,604,o),
(186,620,o),
(155,620,cs),
(101,620,o),
(60,579,o),
(60,524,cs),
(60,60,l),
(100,60,l),
(100,524,ls),
(100,560,o),
(120,580,o),
(155,580,cs),
(190,580,o),
(210,560,o),
(210,524,cs),
(210,100,l),
(250,100,l),
(250,516,ls),
(250,556,o),
(263,581,o),
(311,581,cs),
(386,581,o),
(390,506,o),
(390,369,cs),
(390,225,ls),
(390,6,o),
(368,-32,o),
(252,-32,cs),
(203,-32,ls),
(104,-32,o),
(30,-106,o),
(30,-214,cs),
(30,-301,l)
);
}
);
width = 460;
}
);
metricLeft = "ca-tamil";
metricRight = "ca-tamil";
unicode = 2993;
},
{
glyphname = "la-tamil";
layers = (
{
anchors = (
{
name = imatra;
pos = (365,600);
},
{
name = top;
pos = (288,600);
}
);
layerId = "E2153A70-07D4-4910-8E8C-7A6B98FF4FD7";
shapes = (
{
closed = 1;
nodes = (
(172,-20,ls),
(226,-19,o),
(265,26,o),
(265,82,cs),
(265,118,ls),
(265,175,o),
(224,220,o),
(170,220,cs),
(116,220,o),
(75,175,o),
(75,118,cs),
(75,86,l),
(72,97,o),
(70,109,o),
(70,122,cs),
(70,478,ls),
(70,541,o),
(109,580,o),
(184,580,cs),
(256,580,o),
(297,543,o),
(297,473,cs),
(297,76,ls),
(297,21,o),
(338,-20,o),
(392,-20,cs),
(446,-20,o),
(487,21,o),
(487,76,cs),
(487,523,ls),
(487,578,o),
(446,620,o),
(391,620,cs),
(365,620,l),
(365,580,l),
(391,580,ls),
(426,580,o),
(447,559,o),
(447,523,cs),
(447,76,ls),
(447,40,o),
(427,20,o),
(392,20,cs),
(357,20,o),
(337,40,o),
(337,76,cs),
(337,473,ls),
(337,563,o),
(274,620,o),
(184,620,cs),
(90,620,o),
(30,560,o),
(30,478,cs),
(30,122,ls),
(30,43,o),
(87,-16,o),
(163,-20,cs),
(170,-20,l)
);
},
{
closed = 1;
nodes = (
(134,22,o),
(115,45,o),
(115,82,cs),
(115,118,ls),
(115,157,o),
(136,180,o),
(170,180,cs),
(204,180,o),
(225,157,o),
(225,118,cs),
(225,82,ls),
(225,43,o),
(205,20,o),
(171,20,cs),
(165,20,ls)
);
}
);
width = 517;
}
);
metricLeft = "ca-tamil";
metricRight = "ca-tamil";
unicode = 2994;
},
{
glyphname = "lla-tamil";
layers = (
{
anchors = (
{
name = imatra;
pos = (497,600);
},
{
name = top;
pos = (314,600);
}
);
layerId = "E2153A70-07D4-4910-8E8C-7A6B98FF4FD7";
shapes = (
{
closed = 1;
nodes = (
(183,-20,o),
(192,-11,o),
(192,0,cs),
(192,11,o),
(183,20,o),
(172,20,cs),
(110,20,o),
(70,59,o),
(70,122,cs),
(70,478,ls),
(70,541,o),
(109,580,o),
(172,580,cs),
(196,580,ls),
(256,580,o),
(297,543,o),
(297,473,cs),
(297,180,l),
(337,180,l),
(337,580,l),
(477,580,l),
(477,-20,ls),
(477,-20,o),
(517,-20,o),
(517,-20,cs),
(517,580,l),
(617,580,l),
(617,620,l),
(297,620,l),
(297,579,l),
(271,605,o),
(236,620,o),
(196,620,cs),
(172,620,ls),
(90,620,o),
(30,560,o),
(30,478,cs),
(30,122,ls),
(30,40,o),
(91,-20,o),
(172,-20,cs)
);
},
{
closed = 1;
nodes = (
(228,-20,o),
(267,25,o),
(267,82,cs),
(267,118,ls),
(267,175,o),
(226,220,o),
(172,220,cs),
(118,220,o),
(77,175,o),
(77,118,cs),
(77,82,ls),
(77,25,o),
(118,-20,o),
(172,-20,cs)
);
},
{
closed = 1;
nodes = (
(138,20,o),
(117,43,o),
(117,82,cs),
(117,118,ls),
(117,157,o),
(138,180,o),
(172,180,cs),
(206,180,o),
(227,157,o),
(227,118,cs),
(227,82,ls),
(227,43,o),
(207,20,o),
(172,20,cs)
);
}
);
width = 647;
}
);
metricLeft = "ca-tamil";
metricRight = "ca-tamil";
unicode = 2995;
},
{
glyphname = "llla-tamil";
lastChange = "2023-04-29 09:46:56 +0000";
layers = (
{
anchors = (
{
name = imatra;
pos = (313,600);
},
{
name = top;
pos = (225,600);
}
);
layerId = "E2153A70-07D4-4910-8E8C-7A6B98FF4FD7";
shapes = (
{
closed = 1;
nodes = (
(235,-319,o),
(281,-273,o),
(282,-212,cs),
(282,-169,o),
(308,-143,o),
(349,-143,cs),
(370,-143,l),
(370,-103,l),
(317,-103,ls),
(272,-103,o),
(245,-76,o),
(245,-31,cs),
(245,-20,l),
(311,-20,ls),
(373,-20,o),
(420,27,o),
(420,89,cs),
(420,511,ls),
(420,573,o),
(374,620,o),
(313,620,cs),
(252,620,o),
(205,573,o),
(205,511,cs),
(205,20,l),
(70,20,l),
(70,620,l),
(30,620,l),
(30,-20,l),
(205,-20,l),
(205,-31,ls),
(205,-79,o),
(232,-118,o),
(272,-134,c),
(254,-154,o),
(242,-180,o),
(242,-210,cs),
(242,-253,o),
(216,-279,o),
(175,-279,cs),
(133,-279,o),
(107,-253,o),
(107,-210,cs),
(107,-210,o),
(98,-210,o),
(87,-210,cs),
(82,-210,o),
(67,-210,o),
(67,-210,cs),
(67,-272,o),
(114,-319,o),
(175,-319,cs)
);
},
{
closed = 1;
nodes = (
(245,511,ls),
(245,554,o),
(271,580,o),
(313,580,cs),
(354,580,o),
(380,554,o),
(380,511,cs),
(380,89,ls),
(380,46,o),
(354,20,o),
(311,20,cs),
(245,20,l)
);
}
);
width = 450;
}
);
metricLeft = "ca-tamil";
metricRight = "ca-tamil";
unicode = 2996;
},
{
glyphname = "va-tamil";
layers = (
{
anchors = (
{
name = imatra;
pos = (420,580);
},
{
name = top;
pos = (320,600);
}
);
layerId = "E2153A70-07D4-4910-8E8C-7A6B98FF4FD7";
shapes = (
{
closed = 1;
nodes = (
(440,-20,l),
(440,620,l),
(400,620,l),
(400,20,l),
(110,20,ls),
(89,20,o),
(79,30,o),
(79,50,cs),
(79,70,o),
(89,80,o),
(110,80,cs),
(198,80,ls),
(280,80,o),
(340,140,o),
(340,222,cs),
(340,478,ls),
(340,560,o),
(280,620,o),
(198,620,cs),
(172,620,ls),
(90,620,o),
(30,560,o),
(30,478,cs),
(30,278,ls),
(30,221,o),
(70,176,o),
(125,176,cs),
(181,176,o),
(220,221,o),
(220,278,cs),
(220,314,ls),
(220,371,o),
(179,416,o),
(125,416,cs),
(104,416,o),
(75,403,o),
(66,378,c),
(66,478,ls),
(66,541,o),
(109,580,o),
(172,580,cs),
(198,580,ls),
(261,580,o),
(300,541,o),
(300,478,cs),
(300,222,ls),
(300,159,o),
(261,120,o),
(198,120,cs),
(110,120,ls),
(70,120,o),
(39,90,o),
(39,50,cs),
(39,10,o),
(70,-20,o),
(110,-20,cs)
);
},
{
closed = 1;
nodes = (
(70,314,ls),
(70,353,o),
(91,376,o),
(125,376,cs),
(159,376,o),
(180,353,o),
(180,314,cs),
(180,278,ls),
(180,238,o),
(160,216,o),
(125,216,cs),
(91,216,o),
(70,239,o),
(70,278,cs)
);
}
);
width = 470;
}
);
metricLeft = "ca-tamil";
metricRight = "ca-tamil";
unicode = 2997;
},
{
glyphname = "sha-tamil";
lastChange = "2023-04-29 09:46:56 +0000";
layers = (
{
anchors = (
{
name = imatra;
pos = (510,600);
},
{
name = top;
pos = (285,600);
}
);
layerId = "E2153A70-07D4-4910-8E8C-7A6B98FF4FD7";
shapes = (
{
closed = 1;
nodes = (
(203,-20,o),
(250,28,o),
(250,92,cs),
(250,580,l),
(310,580,l),
(310,92,ls),
(310,28,o),
(357,-20,o),
(420,-20,cs),
(483,-20,o),
(530,28,o),
(530,92,c),
(530,620,l),
(210,620,l),
(210,92,l),
(210,47,o),
(184,20,o),
(140,20,cs),
(96,20,o),
(70,47,o),
(70,92,cs),
(70,620,l),
(30,620,l),
(30,92,ls),
(30,28,o),
(77,-20,o),
(140,-20,cs)
);
},
{
closed = 1;
nodes = (
(376,20,o),
(350,47,o),
(350,92,cs),
(350,580,l),
(490,580,l),
(490,92,ls),
(490,47,o),
(464,20,o),
(420,20,cs)
);
}
);
width = 560;
}
);
metricLeft = "ca-tamil";
metricRight = "ca-tamil";
unicode = 2998;
},
{
glyphname = "ssa-tamil";
layers = (
{
anchors = (
{
name = imatra;
pos = (450,280);
},
{
name = top;
pos = (330,600);
}
);
layerId = "E2153A70-07D4-4910-8E8C-7A6B98FF4FD7";
shapes = (
{
closed = 1;
nodes = (
(30,278,ls),
(30,221,o),
(70,176,o),
(125,176,cs),
(181,176,o),
(220,221,o),
(220,278,cs),
(220,314,ls),
(220,371,o),
(179,416,o),
(125,416,cs),
(104,416,o),
(75,403,o),
(66,378,c),
(66,478,ls),
(66,541,o),
(109,580,o),
(172,580,cs),
(198,580,ls),
(261,580,o),
(300,541,o),
(300,478,cs),
(300,222,ls),
(300,159,o),
(261,120,o),
(198,120,cs),
(110,120,ls),
(70,120,o),
(39,90,o),
(39,50,cs),
(39,10,o),
(70,-20,o),
(110,-20,cs),
(510,-20,l),
(510,-300,l),
(550,-300,l),
(550,-20,l),
(630,-20,l),
(630,20,l),
(550,20,l),
(550,198,ls),
(550,257,o),
(507,300,o),
(450,300,cs),
(393,300,o),
(350,257,o),
(350,198,cs),
(350,82,ls),
(350,58,o),
(357,37,o),
(369,20,c),
(110,20,ls),
(89,20,o),
(79,30,o),
(79,50,cs),
(79,70,o),
(89,80,o),
(110,80,cs),
(198,80,ls),
(280,80,o),
(340,140,o),
(340,222,cs),
(340,478,ls),
(340,560,o),
(280,620,o),
(198,620,cs),
(172,620,ls),
(90,620,o),
(30,560,o),
(30,478,cs)
);
},
{
closed = 1;
nodes = (
(70,314,ls),
(70,353,o),
(91,376,o),
(125,376,cs),
(159,376,o),
(180,353,o),
(180,314,cs),
(180,278,ls),
(180,238,o),
(160,216,o),
(125,216,cs),
(91,216,o),
(70,239,o),
(70,278,cs)
);
},
{
closed = 1;
nodes = (
(390,198,ls),
(390,238,o),
(412,260,o),
(450,260,cs),
(488,260,o),
(510,238,o),
(510,198,cs),
(510,20,l),
(444,20,ls),
(412,20,o),
(390,42,o),
(390,82,cs)
);
}
);
width = 660;
}
);
metricLeft = "ca-tamil";
metricRight = "ca-tamil";
unicode = 2999;
},
{
glyphname = "sa-tamil";
lastChange = "2023-04-29 09:46:56 +0000";
layers = (
{
anchors = (
{
name = imatra;
pos = (507,600);
},
{
name = top;
pos = (314,600);
}
);
layerId = "E2153A70-07D4-4910-8E8C-7A6B98FF4FD7";
shapes = (
{
closed = 1;
nodes = (
(172,-20,ls),
(226,-20,o),
(265,26,o),
(265,82,cs),
(265,118,ls),
(265,175,o),
(224,220,o),
(170,220,cs),
(116,220,o),
(75,175,o),
(75,118,cs),
(75,86,l),
(72,97,o),
(70,109,o),
(70,122,cs),
(70,478,ls),
(70,541,o),
(109,580,o),
(172,580,cs),
(196,580,ls),
(256,580,o),
(297,543,o),
(297,473,cs),
(297,106,l),
(337,106,l),
(337,473,ls),
(337,492,o),
(334,510,o),
(329,526,c),
(330,560,o),
(350,580,o),
(384,580,cs),
(419,580,o),
(439,560,o),
(439,524,cs),
(439,76,ls),
(439,21,o),
(480,-20,o),
(534,-20,cs),
(588,-20,o),
(629,21,o),
(629,76,cs),
(629,523,ls),
(629,578,o),
(588,620,o),
(533,620,cs),
(507,620,l),
(507,580,l),
(533,580,ls),
(568,580,o),
(589,559,o),
(589,523,cs),
(589,76,ls),
(589,40,o),
(569,20,o),
(534,20,cs),
(499,20,o),
(479,40,o),
(479,76,cs),
(479,524,ls),
(479,579,o),
(438,620,o),
(384,620,cs),
(348,620,o),
(318,602,o),
(302,574,c),
(276,604,o),
(238,620,o),
(196,620,cs),
(172,620,ls),
(90,620,o),
(30,560,o),
(30,478,cs),
(30,122,ls),
(30,43,o),
(87,-16,o),
(163,-20,cs),
(165,-20,o),
(168,-20,o),
(170,-20,cs)
);
},
{
closed = 1;
nodes = (
(134,20,o),
(115,45,o),
(115,82,cs),
(115,118,ls),
(115,157,o),
(136,180,o),
(170,180,cs),
(204,180,o),
(225,157,o),
(225,118,cs),
(225,82,ls),
(225,43,o),
(205,20,o),
(171,20,cs),
(165,20,ls)
);
}
);
width = 659;
}
);
metricLeft = "ca-tamil";
metricRight = "ca-tamil";
unicode = 3000;
},
{
glyphname = "ha-tamil";
layers = (
{
anchors = (
{
name = imatra;
pos = (631,601);
},
{
name = top;
pos = (400,600);
}
);
layerId = "E2153A70-07D4-4910-8E8C-7A6B98FF4FD7";
shapes = (
{
closed = 1;
nodes = (
(30,278,ls),
(30,221,o),
(70,176,o),
(125,176,cs),
(181,176,o),
(220,221,o),
(220,278,cs),
(220,314,ls),
(220,371,o),
(179,416,o),
(125,416,cs),
(104,416,o),
(75,403,o),
(66,378,c),
(66,478,ls),
(66,541,o),
(105,580,o),
(168,580,cs),
(198,580,ls),
(261,580,o),
(300,541,o),
(300,478,cs),
(300,222,ls),
(300,159,o),
(261,120,o),
(198,120,cs),
(110,120,ls),
(70,120,o),
(39,90,o),
(39,50,cs),
(39,10,o),
(70,-20,o),
(110,-20,cs),
(420,-20,l),
(420,524,ls),
(420,560,o),
(440,580,o),
(475,580,cs),
(510,580,o),
(530,560,o),
(530,524,cs),
(530,100,l),
(570,100,l),
(570,516,ls),
(570,556,o),
(583,581,o),
(631,581,cs),
(706,581,o),
(710,506,o),
(710,369,cs),
(710,225,ls),
(710,6,o),
(688,-32,o),
(572,-32,cs),
(523,-32,ls),
(424,-32,o),
(350,-106,o),
(350,-214,cs),
(350,-301,l),
(390,-301,l),
(390,-214,ls),
(390,-125,o),
(443,-72,o),
(523,-72,cs),
(572,-72,ls),
(713,-72,o),
(750,-8,o),
(750,225,cs),
(750,369,ls),
(750,507,o),
(744,621,o),
(631,621,cs),
(592,621,o),
(566,606,o),
(550,584,c),
(533,606,o),
(506,620,o),
(475,620,cs),
(421,620,o),
(380,579,o),
(380,524,cs),
(380,20,l),
(110,20,ls),
(89,20,o),
(79,30,o),
(79,50,cs),
(79,70,o),
(89,80,o),
(110,80,cs),
(198,80,ls),
(280,80,o),
(340,140,o),
(340,222,cs),
(340,478,ls),
(340,560,o),
(280,620,o),
(198,620,cs),
(172,620,ls),
(90,620,o),
(30,560,o),
(30,478,cs)
);
},
{
closed = 1;
nodes = (
(70,314,ls),
(70,353,o),
(91,376,o),
(125,376,cs),
(159,376,o),
(180,353,o),
(180,314,cs),
(180,278,ls),
(180,238,o),
(160,216,o),
(125,216,cs),
(91,216,o),
(70,239,o),
(70,278,cs)
);
}
);
width = 780;
}
);
metricLeft = "ca-tamil";
metricRight = "ca-tamil";
unicode = 3001;
},
{
glyphname = "aytham-tamil";
lastChange = "2023-04-29 09:46:56 +0000";
layers = (
{
layerId = "E2153A70-07D4-4910-8E8C-7A6B98FF4FD7";
shapes = (
{
closed = 1;
nodes = (
(343,380,o),
(380,417,o),
(380,460,cs),
(380,503,o),
(343,540,o),
(300,540,cs),
(257,540,o),
(220,503,o),
(220,460,cs),
(220,417,o),
(257,380,o),
(300,380,cs)
);
},
{
closed = 1;
nodes = (
(153,-20,o),
(190,17,o),
(190,60,cs),
(190,103,o),
(153,140,o),
(110,140,cs),
(67,140,o),
(30,103,o),
(30,60,cs),
(30,17,o),
(67,-20,o),
(110,-20,cs)
);
},
{
closed = 1;
nodes = (
(86,20,o),
(70,36,o),
(70,60,cs),
(70,84,o),
(86,100,o),
(110,100,cs),
(134,100,o),
(150,84,o),
(150,60,cs),
(150,36,o),
(134,20,o),
(110,20,cs)
);
},
{
closed = 1;
nodes = (
(533,-20,o),
(570,17,o),
(570,60,cs),
(570,103,o),
(533,140,o),
(490,140,cs),
(447,140,o),
(410,103,o),
(410,60,cs),
(410,17,o),
(447,-20,o),
(490,-20,cs)
);
},
{
closed = 1;
nodes = (
(466,20,o),
(450,36,o),
(450,60,cs),
(450,84,o),
(466,100,o),
(490,100,cs),
(514,100,o),
(530,84,o),
(530,60,cs),
(530,36,o),
(514,20,o),
(490,20,cs)
);
},
{
closed = 1;
nodes = (
(276,420,o),
(260,436,o),
(260,460,cs),
(260,484,o),
(276,500,o),
(300,500,cs),
(324,500,o),
(340,484,o),
(340,460,cs),
(340,436,o),
(324,420,o),
(300,420,cs)
);
}
);
width = 600;
}
);
metricLeft = "ca-tamil";
metricRight = "ca-tamil";
unicode = 2947;
},
{
glyphname = "nga-tamil.001";
layers = (
{
anchors = (
{
name = imatra;
pos = (230,600);
},
{
name = top;
pos = (280,600);
}
);
layerId = "E2153A70-07D4-4910-8E8C-7A6B98FF4FD7";
shapes = (
{
closed = 1;
nodes = (
(259,-22,l),
(530,-20,l),
(530,620,l),
(530,620,o),
(490,620,o),
(490,620,cs),
(490,20,l),
(369,19,l),
(415,46,o),
(430,88,o),
(430,185,cs),
(430,310,o),
(397,365,o),
(321,365,cs),
(284,365,o),
(255,346,o),
(250,318,c),
(250,580,l),
(380,580,l),
(380,620,l),
(30,620,l),
(30,-20,l),
(30,-20,o),
(70,-20,o),
(70,-20,cs),
(70,580,l),
(210,580,l),
(210,130,ls),
(210,130,o),
(250,130,o),
(250,130,cs),
(250,260,ls),
(250,302,o),
(272,325,o),
(311,325,cs),
(370,325,o),
(390,290,o),
(390,185,cs),
(390,69,o),
(368,20,o),
(252,18,c),
(252,-22,l)
);
}
);
width = 560;
}
);
metricLeft = "ca-tamil";
metricRight = "ca-tamil";
},
{
glyphname = "ten-tamil";
layers = (
{
layerId = "E2153A70-07D4-4910-8E8C-7A6B98FF4FD7";
shapes = (
{
closed = 1;
nodes = (
(178,-20,o),
(210,-2,o),
(230,26,c),
(250,-2,o),
(282,-20,o),
(320,-20,cs),
(383,-20,o),
(430,28,o),
(430,92,cs),
(430,538,ls),
(430,652,o),
(382,720,o),
(285,720,cs),
(188,720,o),
(140,642,o),
(140,578,c),
(180,578,l),
(180,623,o),
(207,680,o),
(285,680,cs),
(363,680,o),
(390,633,o),
(390,538,cs),
(390,92,ls),
(390,47,o),
(364,20,o),
(320,20,cs),
(276,20,o),
(250,47,o),
(250,92,cs),
(250,510,l),
(210,510,l),
(210,92,ls),
(210,47,o),
(184,20,o),
(140,20,cs),
(96,20,o),
(70,47,o),
(70,92,cs),
(70,510,l),
(30,510,l),
(30,92,ls),
(30,28,o),
(77,-20,o),
(140,-20,cs)
);
}
);
width = 460;
}
);
metricLeft = "ca-tamil";
metricRight = "ca-tamil";
unicode = 3056;
},
{
glyphname = "onehundred-tamil";
lastChange = "2023-04-29 09:46:56 +0000";
layers = (
{
layerId = "E2153A70-07D4-4910-8E8C-7A6B98FF4FD7";
shapes = (
{
closed = 1;
nodes = (
(70,-20,o),
(70,-20,cs),
(70,478,ls),
(70,541,o),
(109,580,o),
(172,580,cs),
(196,580,ls),
(256,580,o),
(297,543,o),
(297,473,cs),
(297,-20,ls),
(297,-20,o),
(337,-20,o),
(337,-20,cs),
(337,580,l),
(477,580,l),
(477,-20,ls),
(477,-20,o),
(517,-20,o),
(517,-20,cs),
(517,580,l),
(597,580,ls),
(597,580,o),
(597,620,o),
(597,620,cs),
(297,620,l),
(297,579,l),
(272,606,o),
(236,620,o),
(196,620,cs),
(172,620,ls),
(90,620,o),
(30,560,o),
(30,478,cs),
(30,-20,ls),
(30,-20,o)
);
}
);
width = 627;
}
);
metricLeft = "ca-tamil";
metricRight = "ca-tamil";
unicode = 3057;
},
{
glyphname = "onethousand-tamil";
layers = (
{
layerId = "E2153A70-07D4-4910-8E8C-7A6B98FF4FD7";
shapes = (
{
closed = 1;
nodes = (
(314,-190,l),
(314,-138,ls),
(314,-93,o),
(341,-66,o),
(386,-66,cs),
(415,-66,ls),
(495,-66,o),
(530,2,o),
(530,87,cs),
(530,176,o),
(499,230,o),
(427,230,cs),
(356,230,ls),
(310,230,o),
(275,195,o),
(275,149,cs),
(275,61,ls),
(275,15,o),
(310,-20,o),
(355,-20,cs),
(400,-20,o),
(435,15,o),
(435,61,cs),
(435,330,ls),
(435,343,o),
(428,350,o),
(415,350,cs),
(402,350,o),
(395,343,o),
(395,330,cs),
(395,61,ls),
(395,34,o),
(381,20,o),
(355,20,cs),
(329,20,o),
(315,34,o),
(315,61,cs),
(315,149,ls),
(315,176,o),
(329,190,o),
(356,190,cs),
(427,190,ls),
(474,190,o),
(490,162,o),
(490,87,cs),
(490,16,o),
(470,-24,o),
(415,-24,cs),
(386,-24,ls),
(322,-24,o),
(274,-74,o),
(274,-138,cs),
(274,-190,l)
);
},
{
closed = 1;
nodes = (
(219,-20,o),
(270,32,o),
(270,102,cs),
(270,350,ls),
(270,363,o),
(263,370,o),
(250,370,cs),
(142,370,ls),
(82,370,o),
(30,318,o),
(30,248,cs),
(30,102,ls),
(30,32,o),
(81,-20,o),
(150,-20,cs)
);
},
{
closed = 1;
nodes = (
(100,20,o),
(70,51,o),
(70,102,cs),
(70,248,ls),
(70,299,o),
(101,330,o),
(142,330,cs),
(230,330,l),
(230,102,ls),
(230,51,o),
(200,20,o),
(150,20,cs)
);
},
{
closed = 1;
nodes = (
(249,330,ls),
(262,330,o),
(269,337,o),
(269,350,cs),
(269,600,ls),
(269,613,o),
(262,620,o),
(249,620,cs),
(109,620,l),
(109,350,l),
(109,337,o),
(116,330,o),
(129,330,cs)
);
},
{
closed = 1;
nodes = (
(149,580,l),
(229,580,l),
(229,370,l),
(149,370,l)
);
},
{
closed = 1;
nodes = (
(469,330,ls),
(469,330,o),
(469,370,o),
(469,370,cs),
(269,370,ls),
(256,370,o),
(249,363,o),
(249,350,cs),
(249,337,o),
(256,330,o),
(269,330,cs)
);
},
{
closed = 1;
nodes = (
(359,580,ls),
(359,580,o),
(359,620,o),
(359,620,cs),
(239,620,ls),
(226,620,o),
(219,613,o),
(219,600,cs),
(219,587,o),
(226,580,o),
(239,580,cs)
);
}
);
width = 560;
}
);
metricLeft = "ca-tamil";
metricRight = "ca-tamil";
unicode = 3058;
},
{
glyphname = "zero-tamil";
lastChange = "2023-04-29 09:46:56 +0000";
layers = (
{
layerId = "E2153A70-07D4-4910-8E8C-7A6B98FF4FD7";
shapes = (
{
closed = 1;
nodes = (
(227,-20,ls),
(326,-20,o),
(400,54,o),
(400,153,cs),
(400,447,ls),
(400,546,o),
(326,620,o),
(227,620,cs),
(203,620,ls),
(104,620,o),
(30,546,o),
(30,447,cs),
(30,153,ls),
(30,54,o),
(104,-20,o),
(203,-20,cs)
);
},
{
closed = 1;
nodes = (
(123,20,o),
(70,73,o),
(70,153,cs),
(70,447,ls),
(70,527,o),
(123,580,o),
(203,580,cs),
(227,580,ls),
(307,580,o),
(360,527,o),
(360,447,cs),
(360,153,ls),
(360,73,o),
(307,20,o),
(227,20,cs),
(203,20,ls)
);
}
);
width = 430;
}
);
metricLeft = "ca-tamil";
metricRight = "ca-tamil";
unicode = 3046;
},
{
glyphname = "one-tamil";
layers = (
{
layerId = "E2153A70-07D4-4910-8E8C-7A6B98FF4FD7";
shapes = (
{
closed = 1;
nodes = (
(177,-20,o),
(202,-12,o),
(221,2,c),
(249,-15,o),
(276,-20,o),
(300,-20,cs),
(400,-20,o),
(430,72,o),
(430,175,cs),
(430,279,o),
(400,370,o),
(290,370,cs),
(270,370,l),
(270,580,l),
(380,580,l),
(380,620,l),
(110,620,l),
(110,365,l),
(65,350,o),
(30,305,o),
(30,248,cs),
(30,102,ls),
(30,32,o),
(81,-20,o),
(150,-20,cs)
);
},
{
closed = 1;
nodes = (
(100,20,o),
(70,51,o),
(70,102,cs),
(70,248,ls),
(70,299,o),
(101,330,o),
(142,330,cs),
(230,330,l),
(230,102,ls),
(230,51,o),
(200,20,o),
(150,20,cs)
);
},
{
closed = 1;
nodes = (
(283,20,o),
(267,23,o),
(250,32,c),
(263,51,o),
(270,75,o),
(270,102,cs),
(270,330,l),
(290,330,ls),
(370,330,o),
(390,270,o),
(390,175,cs),
(390,80,o),
(370,20,o),
(300,20,cs)
);
},
{
closed = 1;
nodes = (
(150,580,l),
(230,580,l),
(230,370,l),
(150,370,l)
);
}
);
width = 460;
}
);
metricLeft = "ca-tamil";
metricRight = "ca-tamil";
unicode = 3047;
},
{
glyphname = "two-tamil";
lastChange = "2023-04-29 09:46:56 +0000";
layers = (
{
layerId = "E2153A70-07D4-4910-8E8C-7A6B98FF4FD7";
shapes = (
{
closed = 1;
nodes = (
(440,-20,l),
(440,20,l),
(110,20,ls),
(89,20,o),
(79,30,o),
(79,50,cs),
(79,70,o),
(89,80,o),
(110,80,cs),
(198,80,ls),
(280,80,o),
(340,140,o),
(340,222,cs),
(340,478,ls),
(340,560,o),
(280,620,o),
(198,620,cs),
(172,620,ls),
(90,620,o),
(30,560,o),
(30,478,cs),
(30,278,ls),
(30,221,o),
(70,176,o),
(125,176,cs),
(181,176,o),
(220,221,o),
(220,278,cs),
(220,314,ls),
(220,371,o),
(180,416,o),
(125,416,cs),
(104,416,o),
(85,410,o),
(70,398,c),
(70,478,ls),
(70,541,o),
(109,580,o),
(172,580,cs),
(198,580,ls),
(261,580,o),
(300,541,o),
(300,478,cs),
(300,222,ls),
(300,159,o),
(261,120,o),
(198,120,cs),
(110,120,ls),
(70,120,o),
(39,90,o),
(39,50,cs),
(39,10,o),
(70,-20,o),
(110,-20,cs)
);
},
{
closed = 1;
nodes = (
(91,216,o),
(70,239,o),
(70,278,cs),
(70,314,ls),
(70,353,o),
(91,376,o),
(125,376,cs),
(159,376,o),
(180,353,o),
(180,314,cs),
(180,278,ls),
(180,238,o),
(160,216,o),
(125,216,cs)
);
}
);
width = 470;
}
);
metricLeft = "ca-tamil";
metricRight = "ca-tamil";
unicode = 3048;
},
{
glyphname = "three-tamil";
layers = (
{
layerId = "E2153A70-07D4-4910-8E8C-7A6B98FF4FD7";
shapes = (
{
closed = 1;
nodes = (
(259,-22,l),
(510,-20,l),
(510,20,l),
(369,19,l),
(415,46,o),
(430,88,o),
(430,185,cs),
(430,310,o),
(397,365,o),
(321,365,cs),
(284,365,o),
(255,346,o),
(250,318,c),
(250,580,l),
(380,580,l),
(380,620,l),
(30,620,l),
(30,-20,l),
(30,-20,o),
(70,-20,o),
(70,-20,cs),
(70,580,l),
(210,580,l),
(210,130,ls),
(210,130,o),
(250,130,o),
(250,130,cs),
(250,260,ls),
(250,302,o),
(272,325,o),
(311,325,cs),
(370,325,o),
(390,290,o),
(390,185,cs),
(390,69,o),
(368,20,o),
(252,18,c),
(252,-22,l)
);
}
);
width = 540;
}
);
metricLeft = "ca-tamil";
metricRight = "ca-tamil";
unicode = 3049;
},
{
glyphname = "four-tamil";
lastChange = "2023-04-29 09:46:56 +0000";
layers = (
{
anchors = (
{
name = imatra;
pos = (205,600);
},
{
name = top;
pos = (205,600);
}
);
layerId = "E2153A70-07D4-4910-8E8C-7A6B98FF4FD7";
shapes = (
{
closed = 1;
nodes = (
(219,-20,o),
(270,32,o),
(270,102,cs),
(270,330,l),
(380,330,l),
(380,370,l),
(270,370,l),
(270,580,l),
(380,580,l),
(380,620,l),
(110,620,l),
(110,365,l),
(65,350,o),
(30,305,o),
(30,248,cs),
(30,102,ls),
(30,32,o),
(81,-20,o),
(150,-20,cs)
);
},
{
closed = 1;
nodes = (
(100,20,o),
(70,51,o),
(70,102,cs),
(70,248,ls),
(70,299,o),
(101,330,o),
(142,330,cs),
(230,330,l),
(230,102,ls),
(230,51,o),
(200,20,o),
(150,20,cs)
);
},
{
closed = 1;
nodes = (
(150,580,l),
(230,580,l),
(230,370,l),
(150,370,l)
);
},
{
closed = 1;
nodes = (
(340,350,l),
(380,350,l),
(380,510,l),
(340,510,l)
);
}
);
width = 410;
}
);
metricLeft = "ca-tamil";
metricRight = "ca-tamil";
unicode = 3050;
},
{
glyphname = "five-tamil";
layers = (
{
layerId = "E2153A70-07D4-4910-8E8C-7A6B98FF4FD7";
shapes = (
{
closed = 1;
nodes = (
(490,103,l),
(490,-44,o),
(404,-120,o),
(280,-120,cs),
(156,-120,o),
(70,-44,o),
(70,74,cs),
(70,576,ls),
(70,694,o),
(156,760,o),
(280,760,cs),
(404,760,o),
(490,694,o),
(490,576,cs),
(490,530,l),
(530,530,l),
(530,576,ls),
(530,713,o),
(423,800,o),
(280,800,cs),
(137,800,o),
(30,713,o),
(30,576,cs),
(30,74,ls),
(30,-63,o),
(137,-160,o),
(280,-160,cs),
(423,-160,o),
(530,-63,o),
(530,103,c)
);
},
{
closed = 1;
nodes = (
(530,186,l),
(530,310,o),
(497,365,o),
(421,365,cs),
(384,365,o),
(355,346,o),
(350,318,c),
(350,580,l),
(440,580,l),
(440,620,l),
(130,620,l),
(130,80,l),
(170,80,l),
(170,580,l),
(310,580,l),
(310,130,l),
(350,130,l),
(350,260,ls),
(350,302,o),
(372,325,o),
(411,325,cs),
(470,325,o),
(490,288,o),
(490,186,c)
);
},
{
closed = 1;
nodes = (
(490,103,l),
(530,103,l),
(530,186,l),
(490,186,l)
);
}
);
width = 560;
}
);
metricLeft = "ca-tamil";
metricRight = "ca-tamil";
unicode = 3051;
},
{
glyphname = "six-tamil";
layers = (
{
layerId = "E2153A70-07D4-4910-8E8C-7A6B98FF4FD7";
shapes = (
{
closed = 1;
nodes = (
(219,-20,o),
(270,32,o),
(270,102,cs),
(270,330,l),
(314,329,o),
(340,302,o),
(340,258,cs),
(340,-20,l),
(380,-20,l),
(380,330,l),
(490,330,l),
(490,-20,l),
(530,-20,l),
(530,330,l),
(610,330,ls),
(610,330,o),
(610,370,o),
(610,370,cs),
(340,370,l),
(340,345,l),
(321,360,o),
(297,370,o),
(270,370,c),
(270,580,l),
(380,580,l),
(380,620,l),
(110,620,l),
(110,365,l),
(65,350,o),
(30,305,o),
(30,248,cs),
(30,102,ls),
(30,32,o),
(81,-20,o),
(150,-20,cs)
);
},
{
closed = 1;
nodes = (
(100,20,o),
(70,51,o),
(70,102,cs),
(70,248,ls),
(70,299,o),
(101,330,o),
(142,330,cs),
(230,330,l),
(230,102,ls),
(230,51,o),
(200,20,o),
(150,20,cs)
);
},
{
closed = 1;
nodes = (
(150,580,l),
(230,580,l),
(230,370,l),
(150,370,l)
);
}
);
width = 640;
}
);
metricLeft = "ca-tamil";
metricRight = "ca-tamil";
unicode = 3052;
},
{
glyphname = "seven-tamil";
layers = (
{
layerId = "E2153A70-07D4-4910-8E8C-7A6B98FF4FD7";
shapes = (
{
closed = 1;
nodes = (
(390,0,l),
(390,600,ls),
(390,613,o),
(383,620,o),
(370,620,cs),
(254,620,ls),
(125,620,o),
(30,525,o),
(30,396,cs),
(30,195,ls),
(30,182,o),
(37,175,o),
(50,175,cs),
(63,175,o),
(70,182,o),
(70,195,cs),
(70,396,ls),
(70,506,o),
(144,580,o),
(254,580,cs),
(350,580,l),
(350,0,l)
);
},
{
closed = 1;
nodes = (
(205,30,o),
(250,82,o),
(250,148,cs),
(250,192,ls),
(250,258,o),
(203,310,o),
(140,310,cs),
(77,310,o),
(30,258,o),
(30,192,cs),
(30,148,ls),
(30,82,o),
(77,30,o),
(140,30,cs)
);
},
{
closed = 1;
nodes = (
(97,70,o),
(70,100,o),
(70,148,cs),
(70,192,ls),
(70,240,o),
(97,270,o),
(140,270,cs),
(183,270,o),
(210,240,o),
(210,192,cs),
(210,148,ls),
(210,100,o),
(184,70,o),
(140,70,cs)
);
},
{
closed = 1;
nodes = (
(490,580,ls),
(490,580,o),
(490,620,o),
(490,620,cs),
(290,620,ls),
(277,620,o),
(270,613,o),
(270,600,cs),
(270,587,o),
(277,580,o),
(290,580,cs)
);
}
);
width = 520;
}
);
metricLeft = "ca-tamil";
metricRight = "ca-tamil";
unicode = 3053;
},
{
glyphname = "eight-tamil";
layers = (
{
layerId = "E2153A70-07D4-4910-8E8C-7A6B98FF4FD7";
shapes = (
{
closed = 1;
nodes = (
(228,-20,ls),
(310,-20,o),
(370,40,o),
(370,122,cs),
(370,230,l),
(410,230,l),
(410,-20,l),
(450,-20,l),
(450,470,l),
(410,470,l),
(410,270,l),
(370,270,l),
(370,478,ls),
(370,560,o),
(310,620,o),
(210,620,cs),
(110,620,o),
(50,560,o),
(50,478,cs),
(50,403,ls),
(50,348,o),
(73,301,o),
(110,270,c),
(30,270,l),
(30,122,ls),
(30,40,o),
(80,-20,o),
(172,-20,cs)
);
},
{
closed = 1;
nodes = (
(99,20,o),
(70,59,o),
(70,122,cs),
(70,230,l),
(330,230,l),
(330,122,ls),
(330,59,o),
(291,20,o),
(228,20,cs),
(172,20,ls)
);
},
{
closed = 1;
nodes = (
(143,270,o),
(90,323,o),
(90,403,cs),
(90,478,ls),
(90,541,o),
(129,580,o),
(210,580,cs),
(291,580,o),
(330,541,o),
(330,478,cs),
(330,270,l),
(223,270,ls)
);
}
);
width = 480;
}
);
metricLeft = "ca-tamil";
metricRight = "ca-tamil";
unicode = 3054;
},
{
glyphname = "nine-tamil";
lastChange = "2023-04-29 09:46:56 +0000";
layers = (
{
layerId = "E2153A70-07D4-4910-8E8C-7A6B98FF4FD7";
shapes = (
{
closed = 1;
nodes = (
(219,-20,o),
(270,32,o),
(270,102,cs),
(270,330,l),
(313,330,l),
(301,313,o),
(294,292,o),
(294,268,cs),
(294,242,ls),
(294,185,o),
(334,140,o),
(389,140,cs),
(445,140,o),
(484,185,o),
(484,242,cs),
(484,268,ls),
(484,291,o),
(478,312,o),
(466,329,c),
(535,321,o),
(580,270,o),
(580,197,cs),
(580,153,ls),
(580,73,o),
(527,20,o),
(447,20,cs),
(294,20,l),
(294,-20,l),
(447,-20,ls),
(546,-20,o),
(620,54,o),
(620,153,cs),
(620,197,ls),
(620,296,o),
(546,370,o),
(447,370,cs),
(270,370,l),
(270,580,l),
(380,580,l),
(380,620,l),
(110,620,l),
(110,365,l),
(65,350,o),
(30,305,o),
(30,248,cs),
(30,102,ls),
(30,32,o),
(81,-20,o),
(150,-20,cs)
);
},
{
closed = 1;
nodes = (
(100,20,o),
(70,51,o),
(70,102,cs),
(70,248,ls),
(70,299,o),
(101,330,o),
(142,330,cs),
(230,330,l),
(230,102,ls),
(230,51,o),
(200,20,o),
(150,20,cs)
);
},
{
closed = 1;
nodes = (
(355,180,o),
(334,203,o),
(334,242,cs),
(334,268,ls),
(334,307,o),
(355,330,o),
(389,330,cs),
(423,330,o),
(444,307,o),
(444,268,cs),
(444,242,ls),
(444,202,o),
(424,180,o),
(389,180,cs)
);
},
{
closed = 1;
nodes = (
(150,580,l),
(230,580,l),
(230,370,l),
(150,370,l)
);
}
);
width = 650;
}
);
metricLeft = "ca-tamil";
metricRight = "ca-tamil";
unicode = 3055;
},
{
glyphname = zero;
lastChange = "2023-04-29 09:46:56 +0000";
layers = (
{
layerId = "E2153A70-07D4-4910-8E8C-7A6B98FF4FD7";
shapes = (
{
closed = 1;
nodes = (
(286,-20,o),
(360,54,o),
(360,153,cs),
(360,447,ls),
(360,546,o),
(286,620,o),
(195,620,cs),
(104,620,o),
(30,546,o),
(30,447,cs),
(30,153,ls),
(30,54,o),
(104,-20,o),
(195,-20,cs)
);
},
{
closed = 1;
nodes = (
(123,20,o),
(70,73,o),
(70,153,cs),
(70,447,ls),
(70,527,o),
(123,580,o),
(195,580,cs),
(267,580,o),
(320,527,o),
(320,447,cs),
(320,153,ls),
(320,73,o),
(267,20,o),
(195,20,cs)
);
}
);
width = 390;
}
);
metricLeft = "ca-tamil";
metricRight = "ca-tamil";
unicode = 48;
},
{
glyphname = one;
layers = (
{
layerId = "E2153A70-07D4-4910-8E8C-7A6B98FF4FD7";
shapes = (
{
closed = 1;
nodes = (
(152,-20,o),
(192,-20,o),
(192,-20,cs),
(192,609,l),
(146,609,l),
(30,401,l),
(64,380,l),
(152,547,l),
(152,-20,ls)
);
}
);
width = 222;
}
);
metricLeft = "ca-tamil";
metricRight = "ca-tamil";
unicode = 49;
},
{
glyphname = two;
lastChange = "2023-04-29 09:46:56 +0000";
layers = (
{
layerId = "E2153A70-07D4-4910-8E8C-7A6B98FF4FD7";
shapes = (
{
closed = 1;
nodes = (
(340,-20,l),
(340,80,l),
(300,80,l),
(300,20,l),
(110,20,ls),
(89,20,o),
(79,30,o),
(79,50,cs),
(79,70,o),
(89,80,o),
(110,80,cs),
(198,80,ls),
(280,80,o),
(340,140,o),
(340,222,cs),
(340,478,ls),
(340,560,o),
(280,620,o),
(198,620,cs),
(172,620,ls),
(90,620,o),
(30,560,o),
(30,478,cs),
(30,325,l),
(70,325,l),
(70,478,ls),
(70,541,o),
(109,580,o),
(172,580,cs),
(198,580,ls),
(261,580,o),
(300,541,o),
(300,478,cs),
(300,222,ls),
(300,159,o),
(261,120,o),
(198,120,cs),
(110,120,ls),
(70,120,o),
(39,90,o),
(39,50,cs),
(39,10,o),
(70,-20,o),
(110,-20,cs)
);
}
);
width = 370;
}
);
metricLeft = "ca-tamil";
metricRight = "ca-tamil";
unicode = 50;
},
{
glyphname = three;
lastChange = "2023-04-29 09:46:56 +0000";
layers = (
{
layerId = "E2153A70-07D4-4910-8E8C-7A6B98FF4FD7";
shapes = (
{
closed = 1;
nodes = (
(198,-20,ls),
(280,-20,o),
(340,40,o),
(340,122,cs),
(340,178,ls),
(340,232,o),
(314,276,o),
(274,300,c),
(314,324,o),
(340,368,o),
(340,422,cs),
(340,478,ls),
(340,560,o),
(280,620,o),
(198,620,cs),
(172,620,ls),
(90,620,o),
(30,560,o),
(30,478,cs),
(30,415,l),
(70,415,l),
(70,478,ls),
(70,541,o),
(109,580,o),
(172,580,cs),
(198,580,ls),
(261,580,o),
(300,541,o),
(300,478,cs),
(300,422,ls),
(300,359,o),
(261,320,o),
(198,320,cs),
(130,320,l),
(130,280,l),
(198,280,ls),
(261,280,o),
(300,241,o),
(300,178,cs),
(300,122,ls),
(300,59,o),
(261,20,o),
(198,20,cs),
(172,20,ls),
(109,20,o),
(70,59,o),
(70,122,cs),
(70,185,l),
(30,185,l),
(30,122,ls),
(30,40,o),
(90,-20,o),
(172,-20,cs)
);
}
);
width = 370;
}
);
metricLeft = "ca-tamil";
metricRight = "ca-tamil";
unicode = 51;
},
{
glyphname = four;
layers = (
{
layerId = "E2153A70-07D4-4910-8E8C-7A6B98FF4FD7";
shapes = (
{
closed = 1;
nodes = (
(321,-20,o),
(330,-20,o),
(330,-20,cs),
(330,160,l),
(380,160,l),
(380,200,l),
(330,200,l),
(330,620,l),
(284,620,l),
(30,160,l),
(290,160,l),
(290,-20,ls),
(290,-20,o),
(299,-20,o),
(310,-20,cs)
);
},
{
closed = 1;
nodes = (
(290,565,l),
(290,200,l),
(91,200,l)
);
}
);
width = 410;
}
);
metricLeft = "ca-tamil";
metricRight = "ca-tamil";
unicode = 52;
},
{
glyphname = five;
layers = (
{
layerId = "E2153A70-07D4-4910-8E8C-7A6B98FF4FD7";
shapes = (
{
closed = 1;
nodes = (
(280,-20,o),
(340,40,o),
(340,122,cs),
(340,258,ls),
(340,340,o),
(280,400,o),
(185,400,cs),
(135,400,o),
(89,380,o),
(74,345,c),
(89,580,l),
(300,580,l),
(300,520,l),
(340,520,l),
(340,620,l),
(55,620,l),
(31,281,l),
(30,281,l),
(71,281,l),
(78,336,o),
(115,360,o),
(185,360,cs),
(261,360,o),
(300,321,o),
(300,258,cs),
(300,122,ls),
(300,59,o),
(261,20,o),
(185,20,cs),
(109,20,o),
(70,59,o),
(70,122,cs),
(70,155,l),
(30,155,l),
(30,122,ls),
(30,40,o),
(90,-20,o),
(185,-20,cs)
);
}
);
width = 370;
}
);
metricLeft = "ca-tamil";
metricRight = "ca-tamil";
unicode = 53;
},
{
glyphname = six;
lastChange = "2023-04-29 09:46:56 +0000";
layers = (
{
layerId = "E2153A70-07D4-4910-8E8C-7A6B98FF4FD7";
shapes = (
{
closed = 1;
nodes = (
(286,-20,o),
(360,54,o),
(360,153,cs),
(360,197,ls),
(360,296,o),
(286,370,o),
(195,370,cs),
(145,370,o),
(100,348,o),
(70,311,c),
(70,447,ls),
(70,527,o),
(123,580,o),
(195,580,cs),
(267,580,o),
(320,527,o),
(320,447,c),
(360,447,l),
(360,546,o),
(286,620,o),
(195,620,cs),
(104,620,o),
(30,546,o),
(30,447,cs),
(30,153,ls),
(30,54,o),
(104,-20,o),
(195,-20,cs)
);
},
{
closed = 1;
nodes = (
(123,20,o),
(70,73,o),
(70,153,cs),
(70,197,ls),
(70,277,o),
(123,330,o),
(195,330,cs),
(267,330,o),
(320,277,o),
(320,197,cs),
(320,153,ls),
(320,73,o),
(267,20,o),
(195,20,cs)
);
}
);
width = 390;
}
);
metricLeft = "ca-tamil";
metricRight = "ca-tamil";
unicode = 54;
},
{
glyphname = seven;
layers = (
{
layerId = "E2153A70-07D4-4910-8E8C-7A6B98FF4FD7";
shapes = (
{
closed = 1;
nodes = (
(68,-20,l),
(420,620,l),
(30,620,l),
(30,470,l),
(70,470,l),
(70,580,l),
(351,580,l),
(33,0,l),
(32,0,l)
);
}
);
width = 440;
}
);
metricLeft = "ca-tamil";
unicode = 55;
},
{
glyphname = eight;
layers = (
{
layerId = "E2153A70-07D4-4910-8E8C-7A6B98FF4FD7";
shapes = (
{
closed = 1;
nodes = (
(304,-20,o),
(370,44,o),
(370,145,cs),
(370,218,o),
(334,275,o),
(290,300,c),
(334,325,o),
(370,372,o),
(370,435,cs),
(370,556,o),
(304,620,o),
(200,620,cs),
(96,620,o),
(30,556,o),
(30,435,cs),
(30,372,o),
(66,325,o),
(110,300,c),
(66,275,o),
(30,218,o),
(30,145,cs),
(30,44,o),
(96,-20,o),
(200,-20,cs)
);
},
{
closed = 1;
nodes = (
(120,20,o),
(70,68,o),
(70,145,cs),
(70,231,o),
(109,280,o),
(200,280,cs),
(291,280,o),
(330,231,o),
(330,145,cs),
(330,68,o),
(280,20,o),
(200,20,cs)
);
},
{
closed = 1;
nodes = (
(109,320,o),
(70,359,o),
(70,445,cs),
(70,532,o),
(120,580,o),
(200,580,cs),
(280,580,o),
(330,532,o),
(330,445,cs),
(330,359,o),
(291,320,o),
(200,320,cs)
);
}
);
width = 400;
}
);
metricLeft = "ca-tamil";
metricRight = "ca-tamil";
unicode = 56;
},
{
glyphname = nine;
layers = (
{
layerId = "E2153A70-07D4-4910-8E8C-7A6B98FF4FD7";
shapes = (
{
closed = 1;
nodes = (
(104,620,o),
(30,546,o),
(30,447,cs),
(30,403,ls),
(30,304,o),
(104,230,o),
(195,230,cs),
(245,230,o),
(290,252,o),
(320,289,c),
(320,153,ls),
(320,73,o),
(267,20,o),
(195,20,cs),
(123,20,o),
(70,73,o),
(70,153,c),
(30,153,l),
(30,54,o),
(104,-20,o),
(195,-20,cs),
(286,-20,o),
(360,54,o),
(360,153,cs),
(360,447,ls),
(360,546,o),
(286,620,o),
(195,620,cs)
);
},
{
closed = 1;
nodes = (
(267,580,o),
(320,527,o),
(320,447,cs),
(320,403,ls),
(320,323,o),
(267,270,o),
(195,270,cs),
(123,270,o),
(70,323,o),
(70,403,cs),
(70,447,ls),
(70,527,o),
(123,580,o),
(195,580,cs)
);
}
);
width = 390;
}
);
metricLeft = "ca-tamil";
metricRight = "ca-tamil";
unicode = 57;
},
{
glyphname = period;
layers = (
{
layerId = "E2153A70-07D4-4910-8E8C-7A6B98FF4FD7";
shapes = (
{
closed = 1;
nodes = (
(123,-12,o),
(170,10,o),
(185,51,cs),
(200,91,o),
(178,138,o),
(137,153,cs),
(97,168,o),
(50,146,o),
(35,105,cs),
(20,65,o),
(42,17,o),
(83,3,cs)
);
},
{
closed = 1;
nodes = (
(74,49,o),
(64,69,o),
(72,92,cs),
(81,114,o),
(101,124,o),
(124,115,cs),
(146,107,o),
(156,87,o),
(148,64,cs),
(139,42,o),
(119,32,o),
(96,40,cs)
);
}
);
width = 220;
}
);
metricLeft = "ca-tamil";
metricRight = "ca-tamil";
unicode = 46;
},
{
glyphname = comma;
layers = (
{
layerId = "E2153A70-07D4-4910-8E8C-7A6B98FF4FD7";
shapes = (
{
closed = 1;
nodes = (
(123,-12,o),
(170,10,o),
(185,51,cs),
(200,91,o),
(178,138,o),
(137,153,cs),
(97,168,o),
(50,146,o),
(35,105,cs),
(20,65,o),
(42,17,o),
(83,3,cs)
);
},
{
closed = 1;
nodes = (
(74,49,o),
(64,69,o),
(72,92,cs),
(81,114,o),
(101,124,o),
(124,115,cs),
(146,107,o),
(156,87,o),
(148,64,cs),
(139,42,o),
(119,32,o),
(96,40,cs)
);
},
{
closed = 1;
nodes = (
(96,-77,l),
(134,-90,l),
(185,51,l),
(148,64,l)
);
}
);
width = 220;
}
);
metricLeft = "ca-tamil";
metricRight = "ca-tamil";
unicode = 44;
},
{
glyphname = colon;
layers = (
{
layerId = "E2153A70-07D4-4910-8E8C-7A6B98FF4FD7";
shapes = (
{
closed = 1;
nodes = (
(123,320,o),
(170,342,o),
(185,383,cs),
(200,423,o),
(178,470,o),
(137,485,cs),
(97,500,o),
(50,478,o),
(35,437,cs),
(20,397,o),
(42,349,o),
(83,335,cs)
);
},
{
closed = 1;
nodes = (
(74,381,o),
(64,401,o),
(72,424,cs),
(81,446,o),
(101,456,o),
(124,447,cs),
(146,439,o),
(156,419,o),
(148,396,cs),
(139,374,o),
(119,364,o),
(96,372,cs)
);
},
{
closed = 1;
nodes = (
(123,-12,o),
(170,10,o),
(185,51,cs),
(200,91,o),
(178,138,o),
(137,153,cs),
(97,168,o),
(50,146,o),
(35,105,cs),
(20,65,o),
(42,17,o),
(83,3,cs)
);
},
{
closed = 1;
nodes = (
(74,49,o),
(64,69,o),
(72,92,cs),
(81,114,o),
(101,124,o),
(124,115,cs),
(146,107,o),
(156,87,o),
(148,64,cs),
(139,42,o),
(119,32,o),
(96,40,cs)
);
}
);
width = 220;
}
);
metricLeft = "ca-tamil";
metricRight = "ca-tamil";
unicode = 58;
},
{
glyphname = semicolon;
layers = (
{
layerId = "E2153A70-07D4-4910-8E8C-7A6B98FF4FD7";
shapes = (
{
closed = 1;
nodes = (
(123,320,o),
(170,342,o),
(185,383,cs),
(200,423,o),
(178,470,o),
(137,485,cs),
(97,500,o),
(50,478,o),
(35,437,cs),
(20,397,o),
(42,349,o),
(83,335,cs)
);
},
{
closed = 1;
nodes = (
(74,381,o),
(64,401,o),
(72,424,cs),
(81,446,o),
(101,456,o),
(124,447,cs),
(146,439,o),
(156,419,o),
(148,396,cs),
(139,374,o),
(119,364,o),
(96,372,cs)
);
},
{
closed = 1;
nodes = (
(123,-12,o),
(170,10,o),
(185,51,cs),
(200,91,o),
(178,138,o),
(137,153,cs),
(97,168,o),
(50,146,o),
(35,105,cs),
(20,65,o),
(42,17,o),
(83,3,cs)
);
},
{
closed = 1;
nodes = (
(74,49,o),
(64,69,o),
(72,92,cs),
(81,114,o),
(101,124,o),
(124,115,cs),
(146,107,o),
(156,87,o),
(148,64,cs),
(139,42,o),
(119,32,o),
(96,40,cs)
);
},
{
closed = 1;
nodes = (
(96,-77,l),
(134,-90,l),
(185,51,l),
(148,64,l)
);
}
);
width = 220;
}
);
metricLeft = "ca-tamil";
metricRight = "ca-tamil";
unicode = 59;
},
{
glyphname = exclam;
layers = (
{
layerId = "E2153A70-07D4-4910-8E8C-7A6B98FF4FD7";
shapes = (
{
closed = 1;
nodes = (
(100,150,l),
(100,620,l),
(60,620,l),
(60,150,l)
);
},
{
closed = 1;
nodes = (
(107,-20,o),
(130,3,o),
(130,30,cs),
(130,57,o),
(107,80,o),
(80,80,cs),
(53,80,o),
(30,57,o),
(30,30,cs),
(30,3,o),
(53,-20,o),
(80,-20,cs)
);
},
{
closed = 1;
nodes = (
(68,10,o),
(60,18,o),
(60,30,cs),
(60,42,o),
(68,50,o),
(80,50,cs),
(92,50,o),
(100,42,o),
(100,30,cs),
(100,18,o),
(92,10,o),
(80,10,cs)
);
}
);
width = 160;
}
);
metricLeft = "ca-tamil";
metricRight = "ca-tamil";
unicode = 33;
},
{
glyphname = question;
layers = (
{
layerId = "E2153A70-07D4-4910-8E8C-7A6B98FF4FD7";
shapes = (
{
closed = 1;
nodes = (
(200,220,l),
(200,240,o),
(210,250,o),
(241,250,cs),
(310,250,o),
(340,300,o),
(340,382,cs),
(340,478,ls),
(340,560,o),
(280,620,o),
(185,620,cs),
(90,620,o),
(30,560,o),
(30,478,cs),
(30,375,l),
(70,375,l),
(70,478,ls),
(70,541,o),
(109,580,o),
(185,580,cs),
(261,580,o),
(300,541,o),
(300,478,cs),
(300,382,ls),
(300,319,o),
(291,290,o),
(231,290,cs),
(191,290,o),
(160,260,o),
(160,220,c)
);
},
{
closed = 1;
nodes = (
(160,150,l),
(200,150,l),
(200,220,l),
(160,220,l)
);
},
{
closed = 1;
nodes = (
(207,-20,o),
(230,3,o),
(230,30,cs),
(230,57,o),
(207,80,o),
(180,80,cs),
(153,80,o),
(130,57,o),
(130,30,cs),
(130,3,o),
(153,-20,o),
(180,-20,cs)
);
},
{
closed = 1;
nodes = (
(168,10,o),
(160,18,o),
(160,30,cs),
(160,42,o),
(168,50,o),
(180,50,cs),
(192,50,o),
(200,42,o),
(200,30,cs),
(200,18,o),
(192,10,o),
(180,10,cs)
);
}
);
width = 370;
}
);
metricLeft = "ca-tamil";
metricRight = "ca-tamil";
unicode = 63;
},
{
glyphname = hyphen;
layers = (
{
layerId = "E2153A70-07D4-4910-8E8C-7A6B98FF4FD7";
shapes = (
{
closed = 1;
nodes = (
(220,280,l),
(220,320,l),
(30,320,l),
(30,280,l)
);
}
);
width = 250;
}
);
metricLeft = "ca-tamil";
metricRight = "ca-tamil";
unicode = 45;
},
{
glyphname = quotesinglbase;
layers = (
{
layerId = "E2153A70-07D4-4910-8E8C-7A6B98FF4FD7";
shapes = (
{
closed = 1;
nodes = (
(153,0,o),
(190,37,o),
(190,80,cs),
(190,123,o),
(153,160,o),
(110,160,cs),
(67,160,o),
(30,123,o),
(30,80,cs),
(30,37,o),
(67,0,o),
(110,0,cs)
);
},
{
closed = 1;
nodes = (
(86,40,o),
(70,56,o),
(70,80,cs),
(70,104,o),
(86,120,o),
(110,120,cs),
(134,120,o),
(150,104,o),
(150,80,cs),
(150,56,o),
(134,40,o),
(110,40,cs)
);
},
{
closed = 1;
nodes = (
(150,-70,l),
(190,-70,l),
(190,80,l),
(150,80,l)
);
}
);
width = 220;
}
);
metricLeft = "ca-tamil";
metricRight = "ca-tamil";
unicode = 8218;
},
{
glyphname = quotedblbase;
layers = (
{
layerId = "E2153A70-07D4-4910-8E8C-7A6B98FF4FD7";
shapes = (
{
closed = 1;
nodes = (
(153,0,o),
(190,37,o),
(190,80,cs),
(190,123,o),
(153,160,o),
(110,160,cs),
(67,160,o),
(30,123,o),
(30,80,cs),
(30,37,o),
(67,0,o),
(110,0,cs)
);
},
{
closed = 1;
nodes = (
(86,40,o),
(70,56,o),
(70,80,cs),
(70,104,o),
(86,120,o),
(110,120,cs),
(134,120,o),
(150,104,o),
(150,80,cs),
(150,56,o),
(134,40,o),
(110,40,cs)
);
},
{
closed = 1;
nodes = (
(150,-70,l),
(190,-70,l),
(190,80,l),
(150,80,l)
);
},
{
closed = 1;
nodes = (
(333,0,o),
(370,37,o),
(370,80,cs),
(370,123,o),
(333,160,o),
(290,160,cs),
(247,160,o),
(210,123,o),
(210,80,cs),
(210,37,o),
(247,0,o),
(290,0,cs)
);
},
{
closed = 1;
nodes = (
(266,40,o),
(250,56,o),
(250,80,cs),
(250,104,o),
(266,120,o),
(290,120,cs),
(314,120,o),
(330,104,o),
(330,80,cs),
(330,56,o),
(314,40,o),
(290,40,cs)
);
},
{
closed = 1;
nodes = (
(330,-70,l),
(370,-70,l),
(370,80,l),
(330,80,l)
);
}
);
width = 400;
}
);
metricLeft = "ca-tamil";
metricRight = "ca-tamil";
unicode = 8222;
},
{
glyphname = quotedblleft;
layers = (
{
layerId = "E2153A70-07D4-4910-8E8C-7A6B98FF4FD7";
shapes = (
{
closed = 1;
nodes = (
(247,750,o),
(210,713,o),
(210,670,cs),
(210,627,o),
(247,590,o),
(290,590,cs),
(333,590,o),
(370,627,o),
(370,670,cs),
(370,713,o),
(333,750,o),
(290,750,cs)
);
},
{
closed = 1;
nodes = (
(314,710,o),
(330,694,o),
(330,670,cs),
(330,646,o),
(314,630,o),
(290,630,cs),
(266,630,o),
(250,646,o),
(250,670,cs),
(250,694,o),
(266,710,o),
(290,710,cs)
);
},
{
closed = 1;
nodes = (
(250,820,l),
(210,820,l),
(210,670,l),
(250,670,l)
);
},
{
closed = 1;
nodes = (
(67,750,o),
(30,713,o),
(30,670,cs),
(30,627,o),
(67,590,o),
(110,590,cs),
(153,590,o),
(190,627,o),
(190,670,cs),
(190,713,o),
(153,750,o),
(110,750,cs)
);
},
{
closed = 1;
nodes = (
(134,710,o),
(150,694,o),
(150,670,cs),
(150,646,o),
(134,630,o),
(110,630,cs),
(86,630,o),
(70,646,o),
(70,670,cs),
(70,694,o),
(86,710,o),
(110,710,cs)
);
},
{
closed = 1;
nodes = (
(70,820,l),
(30,820,l),
(30,670,l),
(70,670,l)
);
}
);
width = 400;
}
);
metricLeft = "ca-tamil";
metricRight = "ca-tamil";
unicode = 8220;
},
{
glyphname = quotedblright;
layers = (
{
layerId = "E2153A70-07D4-4910-8E8C-7A6B98FF4FD7";
shapes = (
{
closed = 1;
nodes = (
(153,660,o),
(190,697,o),
(190,740,cs),
(190,783,o),
(153,820,o),
(110,820,cs),
(67,820,o),
(30,783,o),
(30,740,cs),
(30,697,o),
(67,660,o),
(110,660,cs)
);
},
{
closed = 1;
nodes = (
(86,700,o),
(70,716,o),
(70,740,cs),
(70,764,o),
(86,780,o),
(110,780,cs),
(134,780,o),
(150,764,o),
(150,740,cs),
(150,716,o),
(134,700,o),
(110,700,cs)
);
},
{
closed = 1;
nodes = (
(150,590,l),
(190,590,l),
(190,740,l),
(150,740,l)
);
},
{
closed = 1;
nodes = (
(333,660,o),
(370,697,o),
(370,740,cs),
(370,783,o),
(333,820,o),
(290,820,cs),
(247,820,o),
(210,783,o),
(210,740,cs),
(210,697,o),
(247,660,o),
(290,660,cs)
);
},
{
closed = 1;
nodes = (
(266,700,o),
(250,716,o),
(250,740,cs),
(250,764,o),
(266,780,o),
(290,780,cs),
(314,780,o),
(330,764,o),
(330,740,cs),
(330,716,o),
(314,700,o),
(290,700,cs)
);
},
{
closed = 1;
nodes = (
(330,590,l),
(370,590,l),
(370,740,l),
(330,740,l)
);
}
);
width = 400;
}
);
metricLeft = "ca-tamil";
metricRight = "ca-tamil";
unicode = 8221;
},
{
glyphname = quoteleft;
layers = (
{
layerId = "E2153A70-07D4-4910-8E8C-7A6B98FF4FD7";
shapes = (
{
closed = 1;
nodes = (
(67,750,o),
(30,713,o),
(30,670,cs),
(30,627,o),
(67,590,o),
(110,590,cs),
(153,590,o),
(190,627,o),
(190,670,cs),
(190,713,o),
(153,750,o),
(110,750,cs)
);
},
{
closed = 1;
nodes = (
(134,710,o),
(150,694,o),
(150,670,cs),
(150,646,o),
(134,630,o),
(110,630,cs),
(86,630,o),
(70,646,o),
(70,670,cs),
(70,694,o),
(86,710,o),
(110,710,cs)
);
},
{
closed = 1;
nodes = (
(70,820,l),
(30,820,l),
(30,670,l),
(70,670,l)
);
}
);
width = 220;
}
);
metricLeft = "ca-tamil";
metricRight = "ca-tamil";
unicode = 8216;
},
{
glyphname = quoteright;
layers = (
{
layerId = "E2153A70-07D4-4910-8E8C-7A6B98FF4FD7";
shapes = (
{
closed = 1;
nodes = (
(153,660,o),
(190,697,o),
(190,740,cs),
(190,783,o),
(153,820,o),
(110,820,cs),
(67,820,o),
(30,783,o),
(30,740,cs),
(30,697,o),
(67,660,o),
(110,660,cs)
);
},
{
closed = 1;
nodes = (
(86,700,o),
(70,716,o),
(70,740,cs),
(70,764,o),
(86,780,o),
(110,780,cs),
(134,780,o),
(150,764,o),
(150,740,cs),
(150,716,o),
(134,700,o),
(110,700,cs)
);
},
{
closed = 1;
nodes = (
(150,590,l),
(190,590,l),
(190,740,l),
(150,740,l)
);
}
);
width = 220;
}
);
metricLeft = "ca-tamil";
metricRight = "ca-tamil";
unicode = 8217;
},
{
glyphname = quotedbl;
layers = (
{
layerId = "E2153A70-07D4-4910-8E8C-7A6B98FF4FD7";
shapes = (
{
closed = 1;
nodes = (
(153,660,o),
(190,697,o),
(190,740,cs),
(190,783,o),
(153,820,o),
(110,820,cs),
(67,820,o),
(30,783,o),
(30,740,cs),
(30,697,o),
(67,660,o),
(110,660,cs)
);
},
{
closed = 1;
nodes = (
(86,700,o),
(70,716,o),
(70,740,cs),
(70,764,o),
(86,780,o),
(110,780,cs),
(134,780,o),
(150,764,o),
(150,740,cs),
(150,716,o),
(134,700,o),
(110,700,cs)
);
},
{
closed = 1;
nodes = (
(150,590,l),
(190,590,l),
(190,740,l),
(150,740,l)
);
},
{
closed = 1;
nodes = (
(333,660,o),
(370,697,o),
(370,740,cs),
(370,783,o),
(333,820,o),
(290,820,cs),
(247,820,o),
(210,783,o),
(210,740,cs),
(210,697,o),
(247,660,o),
(290,660,cs)
);
},
{
closed = 1;
nodes = (
(266,700,o),
(250,716,o),
(250,740,cs),
(250,764,o),
(266,780,o),
(290,780,cs),
(314,780,o),
(330,764,o),
(330,740,cs),
(330,716,o),
(314,700,o),
(290,700,cs)
);
},
{
closed = 1;
nodes = (
(330,590,l),
(370,590,l),
(370,740,l),
(330,740,l)
);
}
);
width = 400;
}
);
metricLeft = "ca-tamil";
metricRight = "ca-tamil";
unicode = 34;
},
{
glyphname = quotesingle;
layers = (
{
layerId = "E2153A70-07D4-4910-8E8C-7A6B98FF4FD7";
shapes = (
{
closed = 1;
nodes = (
(153,660,o),
(190,697,o),
(190,740,cs),
(190,783,o),
(153,820,o),
(110,820,cs),
(67,820,o),
(30,783,o),
(30,740,cs),
(30,697,o),
(67,660,o),
(110,660,cs)
);
},
{
closed = 1;
nodes = (
(86,700,o),
(70,716,o),
(70,740,cs),
(70,764,o),
(86,780,o),
(110,780,cs),
(134,780,o),
(150,764,o),
(150,740,cs),
(150,716,o),
(134,700,o),
(110,700,cs)
);
},
{
closed = 1;
nodes = (
(150,590,l),
(190,590,l),
(190,740,l),
(150,740,l)
);
}
);
width = 220;
}
);
metricLeft = "ca-tamil";
metricRight = "ca-tamil";
unicode = 39;
},
{
glyphname = "iiMatra-tamil";
layers = (
{
anchors = (
{
name = _imatra;
pos = (140,570);
},
{
name = top;
pos = (140,800);
}
);
layerId = "E2153A70-07D4-4910-8E8C-7A6B98FF4FD7";
shapes = (
{
closed = 1;
nodes = (
(140,550,o),
(140,590,o),
(140,590,cs),
(87,590,o),
(50,626,o),
(50,688,cs),
(50,744,o),
(87,780,o),
(140,780,cs),
(193,780,o),
(220,753,o),
(220,708,c),
(260,708,l),
(260,772,o),
(212,820,o),
(140,820,cs),
(68,820,o),
(10,764,o),
(10,688,cs),
(10,607,o),
(68,550,o),
(140,550,cs)
);
},
{
closed = 1;
nodes = (
(223,630,o),
(260,667,o),
(260,710,cs),
(260,753,o),
(223,790,o),
(180,790,cs),
(137,790,o),
(100,753,o),
(100,710,cs),
(100,667,o),
(137,630,o),
(180,630,cs)
);
},
{
closed = 1;
nodes = (
(156,670,o),
(140,686,o),
(140,710,cs),
(140,734,o),
(156,750,o),
(180,750,cs),
(204,750,o),
(220,734,o),
(220,710,cs),
(220,686,o),
(204,670,o),
(180,670,cs)
);
}
);
width = 260;
}
);
unicode = 3008;
},
{
glyphname = "pulli-tamil";
layers = (
{
anchors = (
{
name = _top;
pos = (80,600);
}
);
layerId = "E2153A70-07D4-4910-8E8C-7A6B98FF4FD7";
shapes = (
{
closed = 1;
nodes = (
(123,660,o),
(160,697,o),
(160,740,cs),
(160,783,o),
(123,820,o),
(80,820,cs),
(37,820,o),
(0,783,o),
(0,740,cs),
(0,697,o),
(37,660,o),
(80,660,cs)
);
},
{
closed = 1;
nodes = (
(56,700,o),
(40,716,o),
(40,740,cs),
(40,764,o),
(56,780,o),
(80,780,cs),
(104,780,o),
(120,764,o),
(120,740,cs),
(120,716,o),
(104,700,o),
(80,700,cs)
);
}
);
width = 160;
}
);
unicode = 3021;
},
{
glyphname = "iiMatra-tamil.001";
layers = (
{
anchors = (
{
name = _imatra;
pos = (90,500);
},
{
name = top;
pos = (71,800);
}
);
layerId = "E2153A70-07D4-4910-8E8C-7A6B98FF4FD7";
shapes = (
{
closed = 1;
nodes = (
(90,480,l),
(90,520,l),
(72,520,ls),
(27,520,o),
(-40,547,o),
(-40,650,cs),
(-40,753,o),
(27,780,o),
(75,780,cs),
(92,780,o),
(97,779,o),
(105,776,c),
(74,769,o),
(50,741,o),
(50,708,cs),
(50,670,o),
(82,638,o),
(120,638,cs),
(158,638,o),
(190,670,o),
(190,708,cs),
(190,772,o),
(142,820,o),
(75,820,cs),
(8,820,o),
(-80,772,o),
(-80,650,cs),
(-80,528,o),
(8,480,o),
(72,480,cs)
);
},
{
closed = 1;
nodes = (
(101,678,o),
(90,689,o),
(90,708,cs),
(90,727,o),
(101,738,o),
(120,738,cs),
(139,738,o),
(150,727,o),
(150,708,cs),
(150,689,o),
(139,678,o),
(120,678,cs)
);
}
);
width = 205;
}
);
},
{
glyphname = "aaMatra-tamil";
layers = (
{
layerId = "E2153A70-07D4-4910-8E8C-7A6B98FF4FD7";
shapes = (
{
closed = 1;
nodes = (
(70,-20,l),
(70,580,l),
(240,580,l),
(240,-20,l),
(280,-20,l),
(280,580,l),
(380,580,l),
(380,620,l),
(30,620,l),
(30,-20,l)
);
}
);
width = 390;
}
);
metricLeft = "ca-tamil";
unicode = 3006;
},
{
glyphname = "iMatra-tamil";
layers = (
{
anchors = (
{
name = _imatra;
pos = (-150,600);
}
);
layerId = "E2153A70-07D4-4910-8E8C-7A6B98FF4FD7";
shapes = (
{
closed = 1;
nodes = (
(50,0,l),
(50,628,ls),
(50,741,o),
(-27,820,o),
(-130,820,cs),
(-209,820,o),
(-280,776,o),
(-280,688,cs),
(-280,620,o),
(-228,580,o),
(-150,580,c),
(-150,620,l),
(-209,620,o),
(-240,640,o),
(-240,688,cs),
(-240,751,o),
(-195,780,o),
(-130,780,cs),
(-48,780,o),
(10,724,o),
(10,628,cs),
(10,0,l)
);
}
);
width = 115;
}
);
unicode = 3007;
},
{
glyphname = "uMatra-tamil";
layers = (
{
layerId = "E2153A70-07D4-4910-8E8C-7A6B98FF4FD7";
shapes = (
{
closed = 1;
nodes = (
(259,460,o),
(310,512,o),
(310,582,c),
(310,620,l),
(-100,620,l),
(-100,580,l),
(70,580,l),
(71,511,o),
(122,460,o),
(190,460,cs)
);
},
{
closed = 1;
nodes = (
(141,500,o),
(111,530,o),
(110,580,c),
(270,580,l),
(269,530,o),
(239,500,o),
(190,500,cs)
);
}
);
width = 340;
}
);
metricRight = "ca-tamil";
unicode = 3009;
},
{
glyphname = "uuMatra-tamil";
layers = (
{
layerId = "E2153A70-07D4-4910-8E8C-7A6B98FF4FD7";
shapes = (
{
closed = 1;
nodes = (
(400,350,o),
(450,468,o),
(450,558,cs),
(450,670,o),
(377,757,o),
(261,757,cs),
(147,757,o),
(82,686,o),
(72,620,c),
(-100,620,l),
(-100,580,l),
(70,580,l),
(71,511,o),
(122,460,o),
(190,460,cs),
(259,460,o),
(310,512,o),
(310,582,cs),
(310,620,l),
(113,620,l),
(121,670,o),
(172,717,o),
(261,717,cs),
(354,717,o),
(410,654,o),
(410,558,cs),
(410,478,o),
(372,390,o),
(242,388,c),
(242,348,l)
);
},
{
closed = 1;
nodes = (
(141,500,o),
(111,530,o),
(110,580,c),
(270,580,l),
(269,530,o),
(239,500,o),
(190,500,cs)
);
}
);
width = 480;
}
);
metricRight = "ca-tamil";
unicode = 3010;
},
{
glyphname = "eMatra-tamil";
layers = (
{
layerId = "E2153A70-07D4-4910-8E8C-7A6B98FF4FD7";
shapes = (
{
closed = 1;
nodes = (
(440,-20,l),
(440,516,ls),
(440,633,o),
(353,720,o),
(236,720,cs),
(234,720,ls),
(117,720,o),
(30,633,o),
(30,516,cs),
(30,98,ls),
(30,32,o),
(77,-20,o),
(140,-20,cs),
(205,-20,o),
(250,32,o),
(250,98,cs),
(250,142,ls),
(250,208,o),
(203,260,o),
(140,260,cs),
(113,260,o),
(89,250,o),
(70,234,c),
(70,516,ls),
(70,614,o),
(136,680,o),
(234,680,cs),
(236,680,ls),
(334,680,o),
(400,614,o),
(400,516,cs),
(400,-20,l)
);
},
{
closed = 1;
nodes = (
(97,20,o),
(70,50,o),
(70,98,cs),
(70,142,ls),
(70,190,o),
(97,220,o),
(140,220,cs),
(183,220,o),
(210,190,o),
(210,142,cs),
(210,98,ls),
(210,50,o),
(184,20,o),
(140,20,cs)
);
}
);
width = 450;
}
);
metricLeft = "ca-tamil";
unicode = 3014;
},
{
glyphname = "eeMatra-tamil";
layers = (
{
layerId = "E2153A70-07D4-4910-8E8C-7A6B98FF4FD7";
shapes = (
{
closed = 1;
nodes = (
(302,-20,ls),
(358,-20,o),
(397,25,o),
(397,82,cs),
(397,118,ls),
(397,175,o),
(356,220,o),
(302,220,cs),
(248,220,o),
(207,175,o),
(207,118,cs),
(207,82,ls),
(207,60,o),
(213,39,o),
(224,22,c),
(161,34,o),
(70,84,o),
(70,350,cs),
(70,616,o),
(161,666,o),
(224,678,c),
(213,661,o),
(207,640,o),
(207,618,cs),
(207,582,ls),
(207,525,o),
(248,480,o),
(302,480,cs),
(358,480,o),
(397,525,o),
(397,582,cs),
(397,618,ls),
(397,675,o),
(356,720,o),
(302,720,cs),
(253,720,ls),
(154,720,o),
(30,646,o),
(30,350,cs),
(30,54,o),
(154,-20,o),
(253,-20,cs)
);
},
{
closed = 1;
nodes = (
(268,20,o),
(247,43,o),
(247,82,cs),
(247,118,ls),
(247,157,o),
(268,180,o),
(302,180,cs),
(336,180,o),
(357,157,o),
(357,118,cs),
(357,82,ls),
(357,42,o),
(337,20,o),
(302,20,cs)
);
},
{
closed = 1;
nodes = (
(268,520,o),
(247,543,o),
(247,582,cs),
(247,618,ls),
(247,657,o),
(268,680,o),
(302,680,cs),
(336,680,o),
(357,657,o),
(357,618,cs),
(357,582,ls),
(357,542,o),
(337,520,o),
(302,520,cs)
);
}
);
width = 417;
}
);
metricLeft = "ca-tamil";
unicode = 3015;
},
{
glyphname = "aiMatra-tamil";
lastChange = "2023-04-29 09:46:56 +0000";
layers = (
{
layerId = "E2153A70-07D4-4910-8E8C-7A6B98FF4FD7";
shapes = (
{
closed = 1;
nodes = (
(172,-20,ls),
(226,-19,o),
(265,26,o),
(265,82,cs),
(265,118,ls),
(265,175,o),
(224,220,o),
(170,220,cs),
(116,220,o),
(75,175,o),
(75,118,cs),
(75,86,l),
(72,97,o),
(70,109,o),
(70,122,cs),
(70,416,ls),
(70,514,o),
(136,580,o),
(234,580,cs),
(306,580,l),
(291,562,o),
(282,538,o),
(282,511,cs),
(282,89,ls),
(282,27,o),
(328,-20,o),
(389,-20,cs),
(450,-20,o),
(497,27,o),
(497,89,cs),
(497,511,ls),
(497,538,o),
(488,562,o),
(474,580,c),
(515,580,ls),
(578,580,o),
(617,541,o),
(617,478,cs),
(617,122,ls),
(617,59,o),
(578,20,o),
(515,20,cs),
(503,20,l),
(503,-20,l),
(515,-20,ls),
(597,-20,o),
(657,40,o),
(657,122,cs),
(657,478,ls),
(657,560,o),
(597,620,o),
(515,620,cs),
(234,620,ls),
(117,620,o),
(30,533,o),
(30,416,cs),
(30,122,ls),
(30,43,o),
(87,-16,o),
(163,-20,cs),
(165,-20,o),
(168,-20,o),
(170,-20,cs)
);
},
{
closed = 1;
nodes = (
(134,22,o),
(115,45,o),
(115,82,cs),
(115,118,ls),
(115,157,o),
(136,180,o),
(170,180,cs),
(204,180,o),
(225,157,o),
(225,118,cs),
(225,82,ls),
(225,43,o),
(205,20,o),
(171,20,cs),
(165,20,ls)
);
},
{
closed = 1;
nodes = (
(348,20,o),
(322,46,o),
(322,89,cs),
(322,511,ls),
(322,554,o),
(348,580,o),
(391,580,cs),
(432,580,o),
(457,554,o),
(457,511,cs),
(457,89,ls),
(457,46,o),
(431,20,o),
(389,20,cs)
);
}
);
width = 687;
}
);
metricLeft = "ca-tamil";
metricRight = "ca-tamil";
unicode = 3016;
},
{
glyphname = "auLength-tamil";
layers = (
{
anchors = (
{
name = imatra;
pos = (497,600);
},
{
name = top;
pos = (314,600);
}
);
layerId = "E2153A70-07D4-4910-8E8C-7A6B98FF4FD7";
shapes = (
{
closed = 1;
nodes = (
(183,-20,o),
(192,-11,o),
(192,0,cs),
(192,11,o),
(183,20,o),
(172,20,cs),
(110,20,o),
(70,59,o),
(70,122,cs),
(70,478,ls),
(70,541,o),
(109,580,o),
(172,580,cs),
(196,580,ls),
(256,580,o),
(297,543,o),
(297,473,cs),
(297,180,l),
(337,180,l),
(337,580,l),
(477,580,l),
(477,-20,ls),
(477,-20,o),
(517,-20,o),
(517,-20,cs),
(517,580,l),
(617,580,l),
(617,620,l),
(297,620,l),
(297,579,l),
(271,605,o),
(236,620,o),
(196,620,cs),
(172,620,ls),
(90,620,o),
(30,560,o),
(30,478,cs),
(30,122,ls),
(30,40,o),
(91,-20,o),
(172,-20,cs)
);
},
{
closed = 1;
nodes = (
(228,-20,o),
(267,25,o),
(267,82,cs),
(267,118,ls),
(267,175,o),
(226,220,o),
(172,220,cs),
(118,220,o),
(77,175,o),
(77,118,cs),
(77,82,ls),
(77,25,o),
(118,-20,o),
(172,-20,cs)
);
},
{
closed = 1;
nodes = (
(138,20,o),
(117,43,o),
(117,82,cs),
(117,118,ls),
(117,157,o),
(138,180,o),
(172,180,cs),
(206,180,o),
(227,157,o),
(227,118,cs),
(227,82,ls),
(227,43,o),
(207,20,o),
(172,20,cs)
);
}
);
width = 647;
}
);
unicode = 3031;
},
{
glyphname = "iMatra-tamil.001";
layers = (
{
anchors = (
{
name = _imatra;
pos = (-45,550);
}
);
layerId = "E2153A70-07D4-4910-8E8C-7A6B98FF4FD7";
shapes = (
{
closed = 1;
nodes = (
(70,-20,l),
(70,678,ls),
(70,772,o),
(22,820,o),
(-50,820,cs),
(-122,820,o),
(-170,752,o),
(-170,675,cs),
(-170,588,o),
(-122,530,o),
(-58,530,cs),
(-30,530,l),
(-30,570,l),
(-58,570,ls),
(-103,570,o),
(-130,607,o),
(-130,675,cs),
(-130,733,o),
(-103,780,o),
(-50,780,cs),
(3,780,o),
(30,753,o),
(30,678,cs),
(30,-20,l)
);
}
);
width = 95;
}
);
},
{
glyphname = "iMatra-tamil.002";
layers = (
{
anchors = (
{
name = _imatra;
pos = (-120,600);
}
);
layerId = "E2153A70-07D4-4910-8E8C-7A6B98FF4FD7";
shapes = (
{
closed = 1;
nodes = (
(80,-20,l),
(80,618,ls),
(80,772,o),
(7,820,o),
(-80,820,cs),
(-167,820,o),
(-240,762,o),
(-240,678,cs),
(-240,639,o),
(-222,580,o),
(-120,580,c),
(-120,620,l),
(-179,620,o),
(-200,639,o),
(-200,678,cs),
(-200,743,o),
(-148,780,o),
(-80,780,cs),
(-12,780,o),
(40,753,o),
(40,618,cs),
(40,-20,l)
);
}
);
width = 105;
}
);
},
{
glyphname = "uMatra-tamil.001";
layers = (
{
layerId = "E2153A70-07D4-4910-8E8C-7A6B98FF4FD7";
shapes = (
{
closed = 1;
nodes = (
(179,140,o),
(230,192,o),
(230,262,c),
(230,300,l),
(-180,300,l),
(-180,260,l),
(-10,260,l),
(-9,191,o),
(42,140,o),
(110,140,cs)
);
},
{
closed = 1;
nodes = (
(61,180,o),
(31,210,o),
(30,260,c),
(190,260,l),
(189,210,o),
(159,180,o),
(110,180,cs)
);
}
);
width = 260;
}
);
metricRight = "ca-tamil";
},
{
glyphname = "uuMatra-tamil.001";
layers = (
{
layerId = "E2153A70-07D4-4910-8E8C-7A6B98FF4FD7";
shapes = (
{
closed = 1;
nodes = (
(400,30,o),
(450,148,o),
(450,238,cs),
(450,350,o),
(377,437,o),
(261,437,cs),
(147,437,o),
(82,366,o),
(72,300,c),
(-100,300,l),
(-100,260,l),
(70,260,l),
(71,191,o),
(122,140,o),
(190,140,cs),
(259,140,o),
(310,192,o),
(310,262,cs),
(310,300,l),
(113,300,l),
(121,350,o),
(172,397,o),
(261,397,cs),
(354,397,o),
(410,334,o),
(410,238,cs),
(410,158,o),
(372,70,o),
(242,68,c),
(242,28,l)
);
},
{
closed = 1;
nodes = (
(141,180,o),
(111,210,o),
(110,260,c),
(270,260,l),
(269,210,o),
(239,180,o),
(190,180,cs)
);
}
